<svg width="653" height="438" viewBox="0 0 653 438" fill="none" xmlns="http://www.w3.org/2000/svg">
<path d="M270.212 133.852C314.753 96.0041 358.415 27.0754 176.735 54.1423C-50.3642 87.9758 -22.3168 346.135 89.2511 265.172C270.212 133.852 -120.471 588.597 270.212 265.172C239.053 356.541 210.291 506.135 344.513 373.554C512.292 207.827 230.664 -219.393 459.561 153.349C688.459 526.091 325.938 348.322 569.216 428.032C812.495 507.741 393.049 -408.632 623.145 323.664" stroke="url(#paint0_linear_131_49)" stroke-width="10" stroke-linecap="round"/>
<g filter="url(#filter0_d_131_49)">
<rect x="98" y="49" width="374" height="270" rx="18" fill="#ECEDF5"/>
<path d="M124.383 91V79.7969H127.938C129.021 79.7969 129.878 80.0339 130.508 80.5078C131.143 80.9818 131.461 81.599 131.461 82.3594C131.461 82.9948 131.281 83.5469 130.922 84.0156C130.562 84.4844 130.065 84.8177 129.43 85.0156V85.0469C130.201 85.1354 130.815 85.4219 131.273 85.9062C131.737 86.3854 131.969 87.0104 131.969 87.7812C131.969 88.7396 131.591 89.5156 130.836 90.1094C130.081 90.7031 129.128 91 127.977 91H124.383ZM126.234 81.2891V84.4766H127.438C128.083 84.4766 128.589 84.3255 128.953 84.0234C129.323 83.7161 129.508 83.2839 129.508 82.7266C129.508 81.7682 128.867 81.2891 127.586 81.2891H126.234ZM126.234 85.9688V89.5156H127.82C128.513 89.5156 129.047 89.3568 129.422 89.0391C129.802 88.7161 129.992 88.2734 129.992 87.7109C129.992 86.5495 129.188 85.9688 127.578 85.9688H126.234ZM145.523 91H143.219L140.109 87.1016H140.078V91H138.258V83H140.078V86.6797H140.109L143.047 83H145.266L141.938 86.8125L145.523 91ZM152.805 91H151.047V89.75H151.016C150.464 90.7083 149.654 91.1875 148.586 91.1875C147.799 91.1875 147.182 90.974 146.734 90.5469C146.292 90.1198 146.07 89.5547 146.07 88.8516C146.07 87.3411 146.94 86.4609 148.68 86.2109L151.055 85.875C151.055 84.7344 150.513 84.1641 149.43 84.1641C148.477 84.1641 147.617 84.4922 146.852 85.1484V83.5625C147.695 83.0625 148.669 82.8125 149.773 82.8125C151.794 82.8125 152.805 83.8073 152.805 85.7969V91ZM151.055 87.0703L149.375 87.3047C148.854 87.3724 148.461 87.5 148.195 87.6875C147.935 87.8698 147.805 88.1927 147.805 88.6562C147.805 88.9948 147.924 89.2734 148.164 89.4922C148.409 89.7057 148.734 89.8125 149.141 89.8125C149.693 89.8125 150.148 89.6198 150.508 89.2344C150.872 88.8438 151.055 88.3542 151.055 87.7656V87.0703ZM162.289 91H159.984L156.875 87.1016H156.844V91H155.023V83H156.844V86.6797H156.875L159.812 83H162.031L158.703 86.8125L162.289 91ZM170.695 91H169.055V85.1328C168.951 85.3411 168.792 85.6302 168.578 86L165.211 91H163.43V83H165.094V88.75C165.151 88.6146 165.273 88.3802 165.461 88.0469L168.875 83H170.695V91ZM179.844 87.4922H174.391C174.411 88.2318 174.638 88.8021 175.07 89.2031C175.508 89.6042 176.107 89.8047 176.867 89.8047C177.721 89.8047 178.505 89.5495 179.219 89.0391V90.5C178.49 90.9583 177.526 91.1875 176.328 91.1875C175.151 91.1875 174.227 90.8255 173.555 90.1016C172.888 89.3724 172.555 88.349 172.555 87.0312C172.555 85.7865 172.922 84.7734 173.656 83.9922C174.396 83.2057 175.312 82.8125 176.406 82.8125C177.5 82.8125 178.346 83.1641 178.945 83.8672C179.544 84.5703 179.844 85.5469 179.844 86.7969V87.4922ZM178.094 86.2109C178.089 85.5599 177.935 85.0547 177.633 84.6953C177.331 84.3307 176.914 84.1484 176.383 84.1484C175.862 84.1484 175.419 84.3385 175.055 84.7188C174.695 85.099 174.474 85.5964 174.391 86.2109H178.094ZM190.773 84.4453H187.797V91H185.977V83H190.773V84.4453ZM195.586 91.1875C194.352 91.1875 193.365 90.8151 192.625 90.0703C191.891 89.3203 191.523 88.3281 191.523 87.0938C191.523 85.75 191.906 84.7005 192.672 83.9453C193.443 83.1901 194.479 82.8125 195.781 82.8125C197.031 82.8125 198.005 83.1797 198.703 83.9141C199.401 84.6484 199.75 85.6667 199.75 86.9688C199.75 88.2448 199.372 89.2682 198.617 90.0391C197.867 90.8047 196.857 91.1875 195.586 91.1875ZM195.672 84.2578C194.964 84.2578 194.404 84.5052 193.992 85C193.581 85.4948 193.375 86.1771 193.375 87.0469C193.375 87.8854 193.583 88.5469 194 89.0312C194.417 89.5104 194.974 89.75 195.672 89.75C196.385 89.75 196.932 89.513 197.312 89.0391C197.698 88.5651 197.891 87.8906 197.891 87.0156C197.891 86.1354 197.698 85.4557 197.312 84.9766C196.932 84.4974 196.385 84.2578 195.672 84.2578ZM209.086 93.9141H207.578V91H201.883V93.9141H200.391V89.6172H201.102C202.378 87.7318 203.026 85.526 203.047 83H207.859V89.6172H209.086V93.9141ZM206.047 89.6172V84.375H204.523C204.398 86.3125 203.867 88.0599 202.93 89.6172H206.047ZM220.453 91H218.641V83H220.453V91ZM210.711 91V83H212.523V85.9531H214.711C215.539 85.9531 216.198 86.1719 216.688 86.6094C217.177 87.0417 217.422 87.6458 217.422 88.4219C217.422 89.2188 217.167 89.849 216.656 90.3125C216.151 90.7708 215.513 91 214.742 91H210.711ZM212.523 87.2578V89.6953H214.18C215.096 89.6953 215.555 89.276 215.555 88.4375C215.555 87.651 215.091 87.2578 214.164 87.2578H212.523ZM234.352 91H232.531V84.3828H229.047V91H227.227V83H234.352V91ZM238.555 89.8203H238.523V94.6797H236.711V83H238.523V84.4062H238.555C239.174 83.3438 240.081 82.8125 241.273 82.8125C242.289 82.8125 243.081 83.1693 243.648 83.8828C244.216 84.5964 244.5 85.5547 244.5 86.7578C244.5 88.0911 244.18 89.1589 243.539 89.9609C242.898 90.763 242.023 91.1641 240.914 91.1641C239.893 91.1641 239.107 90.7161 238.555 89.8203ZM238.508 86.6641V87.6562C238.508 88.2396 238.693 88.7344 239.062 89.1406C239.438 89.5469 239.911 89.75 240.484 89.75C241.156 89.75 241.682 89.4896 242.062 88.9688C242.448 88.4427 242.641 87.7109 242.641 86.7734C242.641 85.987 242.461 85.3724 242.102 84.9297C241.747 84.4818 241.266 84.2578 240.656 84.2578C240.01 84.2578 239.49 84.487 239.094 84.9453C238.703 85.4036 238.508 85.9766 238.508 86.6641ZM252.305 91H250.547V89.75H250.516C249.964 90.7083 249.154 91.1875 248.086 91.1875C247.299 91.1875 246.682 90.974 246.234 90.5469C245.792 90.1198 245.57 89.5547 245.57 88.8516C245.57 87.3411 246.44 86.4609 248.18 86.2109L250.555 85.875C250.555 84.7344 250.013 84.1641 248.93 84.1641C247.977 84.1641 247.117 84.4922 246.352 85.1484V83.5625C247.195 83.0625 248.169 82.8125 249.273 82.8125C251.294 82.8125 252.305 83.8073 252.305 85.7969V91ZM250.555 87.0703L248.875 87.3047C248.354 87.3724 247.961 87.5 247.695 87.6875C247.435 87.8698 247.305 88.1927 247.305 88.6562C247.305 88.9948 247.424 89.2734 247.664 89.4922C247.909 89.7057 248.234 89.8125 248.641 89.8125C249.193 89.8125 249.648 89.6198 250.008 89.2344C250.372 88.8438 250.555 88.3542 250.555 87.7656V87.0703ZM254.523 91V83H258.344C259.203 83 259.883 83.1745 260.383 83.5234C260.883 83.8724 261.133 84.349 261.133 84.9531C261.133 85.974 260.609 86.5938 259.562 86.8125C260.807 86.9688 261.43 87.5833 261.43 88.6562C261.43 89.3177 261.167 89.875 260.641 90.3281C260.115 90.776 259.461 91 258.68 91H254.523ZM256.336 84.2812V86.2734H257.938C258.844 86.2734 259.297 85.9219 259.297 85.2188C259.297 84.5938 258.901 84.2812 258.109 84.2812H256.336ZM256.336 87.5312V89.7109H258.195C259.122 89.7109 259.586 89.3359 259.586 88.5859C259.586 87.8828 259.083 87.5312 258.078 87.5312H256.336ZM270.633 91H268.992V85.1328C268.888 85.3411 268.729 85.6302 268.516 86L265.148 91H263.367V83H265.031V88.75C265.089 88.6146 265.211 88.3802 265.398 88.0469L268.812 83H270.633V91ZM279.625 91H277.805V84.3828H276.172C275.943 86.8568 275.549 88.5964 274.992 89.6016C274.44 90.6016 273.695 91.1016 272.758 91.1016C272.445 91.1016 272.177 91.0573 271.953 90.9688V89.6172C272.135 89.7057 272.331 89.75 272.539 89.75C273.659 89.75 274.378 87.5 274.695 83H279.625V91ZM288.133 91H286.375V89.75H286.344C285.792 90.7083 284.982 91.1875 283.914 91.1875C283.128 91.1875 282.51 90.974 282.062 90.5469C281.62 90.1198 281.398 89.5547 281.398 88.8516C281.398 87.3411 282.268 86.4609 284.008 86.2109L286.383 85.875C286.383 84.7344 285.841 84.1641 284.758 84.1641C283.805 84.1641 282.945 84.4922 282.18 85.1484V83.5625C283.023 83.0625 283.997 82.8125 285.102 82.8125C287.122 82.8125 288.133 83.8073 288.133 85.7969V91ZM286.383 87.0703L284.703 87.3047C284.182 87.3724 283.789 87.5 283.523 87.6875C283.263 87.8698 283.133 88.1927 283.133 88.6562C283.133 88.9948 283.253 89.2734 283.492 89.4922C283.737 89.7057 284.062 89.8125 284.469 89.8125C285.021 89.8125 285.477 89.6198 285.836 89.2344C286.201 88.8438 286.383 88.3542 286.383 87.7656V87.0703ZM301.25 91H294.961V79.7969H301V81.375H296.82V84.5469H300.672V86.1172H296.82V89.4297H301.25V91ZM310.305 91H308L304.891 87.1016H304.859V91H303.039V83H304.859V86.6797H304.891L307.828 83H310.047L306.719 86.8125L310.305 91ZM317.586 91H315.828V89.75H315.797C315.245 90.7083 314.435 91.1875 313.367 91.1875C312.581 91.1875 311.964 90.974 311.516 90.5469C311.073 90.1198 310.852 89.5547 310.852 88.8516C310.852 87.3411 311.721 86.4609 313.461 86.2109L315.836 85.875C315.836 84.7344 315.294 84.1641 314.211 84.1641C313.258 84.1641 312.398 84.4922 311.633 85.1484V83.5625C312.477 83.0625 313.451 82.8125 314.555 82.8125C316.576 82.8125 317.586 83.8073 317.586 85.7969V91ZM315.836 87.0703L314.156 87.3047C313.635 87.3724 313.242 87.5 312.977 87.6875C312.716 87.8698 312.586 88.1927 312.586 88.6562C312.586 88.9948 312.706 89.2734 312.945 89.4922C313.19 89.7057 313.516 89.8125 313.922 89.8125C314.474 89.8125 314.93 89.6198 315.289 89.2344C315.654 88.8438 315.836 88.3542 315.836 87.7656V87.0703ZM325.258 84.4453H322.977V91H321.156V84.4453H318.859V83H325.258V84.4453ZM333.203 87.4922H327.75C327.771 88.2318 327.997 88.8021 328.43 89.2031C328.867 89.6042 329.466 89.8047 330.227 89.8047C331.081 89.8047 331.865 89.5495 332.578 89.0391V90.5C331.849 90.9583 330.885 91.1875 329.688 91.1875C328.51 91.1875 327.586 90.8255 326.914 90.1016C326.247 89.3724 325.914 88.349 325.914 87.0312C325.914 85.7865 326.281 84.7734 327.016 83.9922C327.755 83.2057 328.672 82.8125 329.766 82.8125C330.859 82.8125 331.706 83.1641 332.305 83.8672C332.904 84.5703 333.203 85.5469 333.203 86.7969V87.4922ZM331.453 86.2109C331.448 85.5599 331.294 85.0547 330.992 84.6953C330.69 84.3307 330.273 84.1484 329.742 84.1484C329.221 84.1484 328.779 84.3385 328.414 84.7188C328.055 85.099 327.833 85.5964 327.75 86.2109H331.453ZM336.773 89.8203H336.742V94.6797H334.93V83H336.742V84.4062H336.773C337.393 83.3438 338.299 82.8125 339.492 82.8125C340.508 82.8125 341.299 83.1693 341.867 83.8828C342.435 84.5964 342.719 85.5547 342.719 86.7578C342.719 88.0911 342.398 89.1589 341.758 89.9609C341.117 90.763 340.242 91.1641 339.133 91.1641C338.112 91.1641 337.326 90.7161 336.773 89.8203ZM336.727 86.6641V87.6562C336.727 88.2396 336.911 88.7344 337.281 89.1406C337.656 89.5469 338.13 89.75 338.703 89.75C339.375 89.75 339.901 89.4896 340.281 88.9688C340.667 88.4427 340.859 87.7109 340.859 86.7734C340.859 85.987 340.68 85.3724 340.32 84.9297C339.966 84.4818 339.484 84.2578 338.875 84.2578C338.229 84.2578 337.708 84.487 337.312 84.9453C336.922 85.4036 336.727 85.9766 336.727 86.6641ZM351.836 91H350.195V85.1328C350.091 85.3411 349.932 85.6302 349.719 86L346.352 91H344.57V83H346.234V88.75C346.292 88.6146 346.414 88.3802 346.602 88.0469L350.016 83H351.836V91ZM361.336 91H359.516V87.5H356.031V91H354.211V83H356.031V86.1406H359.516V83H361.336V91ZM369.836 91H368.078V89.75H368.047C367.495 90.7083 366.685 91.1875 365.617 91.1875C364.831 91.1875 364.214 90.974 363.766 90.5469C363.323 90.1198 363.102 89.5547 363.102 88.8516C363.102 87.3411 363.971 86.4609 365.711 86.2109L368.086 85.875C368.086 84.7344 367.544 84.1641 366.461 84.1641C365.508 84.1641 364.648 84.4922 363.883 85.1484V83.5625C364.727 83.0625 365.701 82.8125 366.805 82.8125C368.826 82.8125 369.836 83.8073 369.836 85.7969V91ZM368.086 87.0703L366.406 87.3047C365.885 87.3724 365.492 87.5 365.227 87.6875C364.966 87.8698 364.836 88.1927 364.836 88.6562C364.836 88.9948 364.956 89.2734 365.195 89.4922C365.44 89.7057 365.766 89.8125 366.172 89.8125C366.724 89.8125 367.18 89.6198 367.539 89.2344C367.904 88.8438 368.086 88.3542 368.086 87.7656V87.0703ZM378.57 91H376.656V79.7969H378.57V91ZM382.32 87.8359C382.273 87.7057 382.232 87.5365 382.195 87.3281C382.159 87.1198 382.141 86.9141 382.141 86.7109C382.141 86.3932 382.203 86.1068 382.328 85.8516C382.458 85.5911 382.617 85.349 382.805 85.125C382.997 84.901 383.203 84.6849 383.422 84.4766C383.646 84.2682 383.852 84.0651 384.039 83.8672C384.232 83.6693 384.391 83.4609 384.516 83.2422C384.646 83.0234 384.711 82.7839 384.711 82.5234C384.711 82.2891 384.664 82.0859 384.57 81.9141C384.477 81.737 384.346 81.5911 384.18 81.4766C384.018 81.3568 383.831 81.2682 383.617 81.2109C383.409 81.1536 383.185 81.125 382.945 81.125C382.169 81.125 381.43 81.4714 380.727 82.1641V80.3594C381.581 79.8594 382.466 79.6094 383.383 79.6094C383.805 79.6094 384.203 79.6641 384.578 79.7734C384.953 79.8828 385.281 80.0443 385.562 80.2578C385.844 80.4714 386.065 80.737 386.227 81.0547C386.388 81.3724 386.469 81.7422 386.469 82.1641C386.469 82.5651 386.401 82.9219 386.266 83.2344C386.13 83.5469 385.958 83.8359 385.75 84.1016C385.547 84.362 385.326 84.5938 385.086 84.7969C384.852 85 384.63 85.2031 384.422 85.4062C384.219 85.6094 384.049 85.8203 383.914 86.0391C383.779 86.2578 383.711 86.5 383.711 86.7656C383.711 86.9896 383.74 87.1927 383.797 87.375C383.854 87.5573 383.911 87.7109 383.969 87.8359H382.32ZM383.211 91.1406C382.914 91.1406 382.651 91.0391 382.422 90.8359C382.203 90.638 382.094 90.3932 382.094 90.1016C382.094 89.8047 382.203 89.5599 382.422 89.3672C382.646 89.1589 382.909 89.0547 383.211 89.0547C383.508 89.0547 383.768 89.1589 383.992 89.3672C384.211 89.5599 384.32 89.8047 384.32 90.1016C384.32 90.3932 384.211 90.638 383.992 90.8359C383.763 91.0391 383.503 91.1406 383.211 91.1406Z" fill="#225F67"/>
<rect x="123" y="108" width="324" height="36" rx="8" fill="#DDE4FC"/>
<path d="M138.805 120.547V132H136.992V122.766C136.664 123 136.31 123.201 135.93 123.367C135.555 123.529 135.125 123.672 134.641 123.797V122.25C134.943 122.151 135.234 122.047 135.516 121.938C135.797 121.828 136.073 121.706 136.344 121.57C136.62 121.435 136.896 121.284 137.172 121.117C137.453 120.951 137.742 120.76 138.039 120.547H138.805ZM148.469 121.703C148 122.562 147.557 123.414 147.141 124.258C146.724 125.096 146.346 125.94 146.008 126.789C145.669 127.638 145.375 128.495 145.125 129.359C144.875 130.219 144.682 131.099 144.547 132H142.648C142.773 131.198 142.951 130.398 143.18 129.602C143.414 128.799 143.688 128 144 127.203C144.312 126.401 144.661 125.596 145.047 124.789C145.438 123.982 145.852 123.167 146.289 122.344H140.984V120.797H148.469V121.703ZM156.812 132H149.781V131.133C149.781 130.779 149.831 130.448 149.93 130.141C150.029 129.828 150.161 129.536 150.328 129.266C150.495 128.99 150.69 128.732 150.914 128.492C151.138 128.247 151.378 128.013 151.633 127.789C151.888 127.56 152.148 127.341 152.414 127.133C152.68 126.919 152.94 126.706 153.195 126.492C153.435 126.289 153.654 126.091 153.852 125.898C154.049 125.701 154.219 125.497 154.359 125.289C154.5 125.081 154.609 124.862 154.688 124.633C154.766 124.398 154.805 124.146 154.805 123.875C154.805 123.578 154.758 123.32 154.664 123.102C154.576 122.878 154.448 122.693 154.281 122.547C154.12 122.396 153.927 122.284 153.703 122.211C153.479 122.133 153.234 122.094 152.969 122.094C152.51 122.094 152.044 122.201 151.57 122.414C151.096 122.628 150.641 122.948 150.203 123.375V121.633C150.432 121.461 150.664 121.312 150.898 121.188C151.133 121.057 151.375 120.951 151.625 120.867C151.875 120.779 152.138 120.714 152.414 120.672C152.69 120.63 152.984 120.609 153.297 120.609C153.802 120.609 154.26 120.677 154.672 120.812C155.083 120.943 155.435 121.138 155.727 121.398C156.018 121.654 156.242 121.974 156.398 122.359C156.56 122.745 156.641 123.188 156.641 123.688C156.641 124.141 156.583 124.549 156.469 124.914C156.359 125.273 156.201 125.609 155.992 125.922C155.789 126.234 155.542 126.531 155.25 126.812C154.958 127.094 154.633 127.383 154.273 127.68C153.971 127.924 153.669 128.164 153.367 128.398C153.07 128.628 152.802 128.854 152.562 129.078C152.323 129.297 152.128 129.518 151.977 129.742C151.831 129.961 151.758 130.182 151.758 130.406V130.445H156.812V132ZM159.117 131.742V130C159.852 130.495 160.596 130.742 161.352 130.742C162.112 130.742 162.724 130.549 163.188 130.164C163.651 129.773 163.883 129.255 163.883 128.609C163.883 127.974 163.646 127.479 163.172 127.125C162.703 126.771 162.029 126.594 161.148 126.594C160.846 126.594 160.234 126.625 159.312 126.688L159.711 120.797H165.227V122.344H161.219L161.031 125.148C161.391 125.128 161.716 125.117 162.008 125.117C163.195 125.117 164.112 125.422 164.758 126.031C165.409 126.641 165.734 127.474 165.734 128.531C165.734 129.641 165.362 130.531 164.617 131.203C163.878 131.87 162.859 132.203 161.562 132.203C160.469 132.203 159.654 132.049 159.117 131.742ZM172.188 128.297H167.922V126.961H172.188V128.297ZM178.039 120.547V132H176.227V122.766C175.898 123 175.544 123.201 175.164 123.367C174.789 123.529 174.359 123.672 173.875 123.797V122.25C174.177 122.151 174.469 122.047 174.75 121.938C175.031 121.828 175.307 121.706 175.578 121.57C175.854 121.435 176.13 121.284 176.406 121.117C176.688 120.951 176.977 120.76 177.273 120.547H178.039ZM187.703 121.703C187.234 122.562 186.792 123.414 186.375 124.258C185.958 125.096 185.581 125.94 185.242 126.789C184.904 127.638 184.609 128.495 184.359 129.359C184.109 130.219 183.917 131.099 183.781 132H181.883C182.008 131.198 182.185 130.398 182.414 129.602C182.648 128.799 182.922 128 183.234 127.203C183.547 126.401 183.896 125.596 184.281 124.789C184.672 123.982 185.086 123.167 185.523 122.344H180.219V120.797H187.703V121.703ZM196.047 132H189.016V131.133C189.016 130.779 189.065 130.448 189.164 130.141C189.263 129.828 189.396 129.536 189.562 129.266C189.729 128.99 189.924 128.732 190.148 128.492C190.372 128.247 190.612 128.013 190.867 127.789C191.122 127.56 191.383 127.341 191.648 127.133C191.914 126.919 192.174 126.706 192.43 126.492C192.669 126.289 192.888 126.091 193.086 125.898C193.284 125.701 193.453 125.497 193.594 125.289C193.734 125.081 193.844 124.862 193.922 124.633C194 124.398 194.039 124.146 194.039 123.875C194.039 123.578 193.992 123.32 193.898 123.102C193.81 122.878 193.682 122.693 193.516 122.547C193.354 122.396 193.161 122.284 192.938 122.211C192.714 122.133 192.469 122.094 192.203 122.094C191.745 122.094 191.279 122.201 190.805 122.414C190.331 122.628 189.875 122.948 189.438 123.375V121.633C189.667 121.461 189.898 121.312 190.133 121.188C190.367 121.057 190.609 120.951 190.859 120.867C191.109 120.779 191.372 120.714 191.648 120.672C191.924 120.63 192.219 120.609 192.531 120.609C193.036 120.609 193.495 120.677 193.906 120.812C194.318 120.943 194.669 121.138 194.961 121.398C195.253 121.654 195.477 121.974 195.633 122.359C195.794 122.745 195.875 123.188 195.875 123.688C195.875 124.141 195.818 124.549 195.703 124.914C195.594 125.273 195.435 125.609 195.227 125.922C195.023 126.234 194.776 126.531 194.484 126.812C194.193 127.094 193.867 127.383 193.508 127.68C193.206 127.924 192.904 128.164 192.602 128.398C192.305 128.628 192.036 128.854 191.797 129.078C191.557 129.297 191.362 129.518 191.211 129.742C191.065 129.961 190.992 130.182 190.992 130.406V130.445H196.047V132ZM205.172 121.703C204.703 122.562 204.26 123.414 203.844 124.258C203.427 125.096 203.049 125.94 202.711 126.789C202.372 127.638 202.078 128.495 201.828 129.359C201.578 130.219 201.385 131.099 201.25 132H199.352C199.477 131.198 199.654 130.398 199.883 129.602C200.117 128.799 200.391 128 200.703 127.203C201.016 126.401 201.365 125.596 201.75 124.789C202.141 123.982 202.555 123.167 202.992 122.344H197.688V120.797H205.172V121.703Z" fill="black"/>
<rect x="123" y="159" width="324" height="36" rx="8" fill="#F3F3F3"/>
<rect x="123" y="210" width="324" height="36" rx="8" fill="#F3F3F3"/>
<rect x="123" y="261" width="324" height="36" rx="8" fill="#F3F3F3"/>
<path d="M138.805 171.547V183H136.992V173.766C136.664 174 136.31 174.201 135.93 174.367C135.555 174.529 135.125 174.672 134.641 174.797V173.25C134.943 173.151 135.234 173.047 135.516 172.938C135.797 172.828 136.073 172.706 136.344 172.57C136.62 172.435 136.896 172.284 137.172 172.117C137.453 171.951 137.742 171.76 138.039 171.547H138.805ZM148.469 172.703C148 173.562 147.557 174.414 147.141 175.258C146.724 176.096 146.346 176.94 146.008 177.789C145.669 178.638 145.375 179.495 145.125 180.359C144.875 181.219 144.682 182.099 144.547 183H142.648C142.773 182.198 142.951 181.398 143.18 180.602C143.414 179.799 143.688 179 144 178.203C144.312 177.401 144.661 176.596 145.047 175.789C145.438 174.982 145.852 174.167 146.289 173.344H140.984V171.797H148.469V172.703ZM156.812 183H149.781V182.133C149.781 181.779 149.831 181.448 149.93 181.141C150.029 180.828 150.161 180.536 150.328 180.266C150.495 179.99 150.69 179.732 150.914 179.492C151.138 179.247 151.378 179.013 151.633 178.789C151.888 178.56 152.148 178.341 152.414 178.133C152.68 177.919 152.94 177.706 153.195 177.492C153.435 177.289 153.654 177.091 153.852 176.898C154.049 176.701 154.219 176.497 154.359 176.289C154.5 176.081 154.609 175.862 154.688 175.633C154.766 175.398 154.805 175.146 154.805 174.875C154.805 174.578 154.758 174.32 154.664 174.102C154.576 173.878 154.448 173.693 154.281 173.547C154.12 173.396 153.927 173.284 153.703 173.211C153.479 173.133 153.234 173.094 152.969 173.094C152.51 173.094 152.044 173.201 151.57 173.414C151.096 173.628 150.641 173.948 150.203 174.375V172.633C150.432 172.461 150.664 172.312 150.898 172.188C151.133 172.057 151.375 171.951 151.625 171.867C151.875 171.779 152.138 171.714 152.414 171.672C152.69 171.63 152.984 171.609 153.297 171.609C153.802 171.609 154.26 171.677 154.672 171.812C155.083 171.943 155.435 172.138 155.727 172.398C156.018 172.654 156.242 172.974 156.398 173.359C156.56 173.745 156.641 174.188 156.641 174.688C156.641 175.141 156.583 175.549 156.469 175.914C156.359 176.273 156.201 176.609 155.992 176.922C155.789 177.234 155.542 177.531 155.25 177.812C154.958 178.094 154.633 178.383 154.273 178.68C153.971 178.924 153.669 179.164 153.367 179.398C153.07 179.628 152.802 179.854 152.562 180.078C152.323 180.297 152.128 180.518 151.977 180.742C151.831 180.961 151.758 181.182 151.758 181.406V181.445H156.812V183ZM165.703 183H158.672V182.133C158.672 181.779 158.721 181.448 158.82 181.141C158.919 180.828 159.052 180.536 159.219 180.266C159.385 179.99 159.581 179.732 159.805 179.492C160.029 179.247 160.268 179.013 160.523 178.789C160.779 178.56 161.039 178.341 161.305 178.133C161.57 177.919 161.831 177.706 162.086 177.492C162.326 177.289 162.544 177.091 162.742 176.898C162.94 176.701 163.109 176.497 163.25 176.289C163.391 176.081 163.5 175.862 163.578 175.633C163.656 175.398 163.695 175.146 163.695 174.875C163.695 174.578 163.648 174.32 163.555 174.102C163.466 173.878 163.339 173.693 163.172 173.547C163.01 173.396 162.818 173.284 162.594 173.211C162.37 173.133 162.125 173.094 161.859 173.094C161.401 173.094 160.935 173.201 160.461 173.414C159.987 173.628 159.531 173.948 159.094 174.375V172.633C159.323 172.461 159.555 172.312 159.789 172.188C160.023 172.057 160.266 171.951 160.516 171.867C160.766 171.779 161.029 171.714 161.305 171.672C161.581 171.63 161.875 171.609 162.188 171.609C162.693 171.609 163.151 171.677 163.562 171.812C163.974 171.943 164.326 172.138 164.617 172.398C164.909 172.654 165.133 172.974 165.289 173.359C165.451 173.745 165.531 174.188 165.531 174.688C165.531 175.141 165.474 175.549 165.359 175.914C165.25 176.273 165.091 176.609 164.883 176.922C164.68 177.234 164.432 177.531 164.141 177.812C163.849 178.094 163.523 178.383 163.164 178.68C162.862 178.924 162.56 179.164 162.258 179.398C161.961 179.628 161.693 179.854 161.453 180.078C161.214 180.297 161.018 180.518 160.867 180.742C160.721 180.961 160.648 181.182 160.648 181.406V181.445H165.703V183ZM172.188 179.297H167.922V177.961H172.188V179.297ZM178.039 171.547V183H176.227V173.766C175.898 174 175.544 174.201 175.164 174.367C174.789 174.529 174.359 174.672 173.875 174.797V173.25C174.177 173.151 174.469 173.047 174.75 172.938C175.031 172.828 175.307 172.706 175.578 172.57C175.854 172.435 176.13 172.284 176.406 172.117C176.688 171.951 176.977 171.76 177.273 171.547H178.039ZM187.703 172.703C187.234 173.562 186.792 174.414 186.375 175.258C185.958 176.096 185.581 176.94 185.242 177.789C184.904 178.638 184.609 179.495 184.359 180.359C184.109 181.219 183.917 182.099 183.781 183H181.883C182.008 182.198 182.185 181.398 182.414 180.602C182.648 179.799 182.922 179 183.234 178.203C183.547 177.401 183.896 176.596 184.281 175.789C184.672 174.982 185.086 174.167 185.523 173.344H180.219V171.797H187.703V172.703ZM196.047 183H189.016V182.133C189.016 181.779 189.065 181.448 189.164 181.141C189.263 180.828 189.396 180.536 189.562 180.266C189.729 179.99 189.924 179.732 190.148 179.492C190.372 179.247 190.612 179.013 190.867 178.789C191.122 178.56 191.383 178.341 191.648 178.133C191.914 177.919 192.174 177.706 192.43 177.492C192.669 177.289 192.888 177.091 193.086 176.898C193.284 176.701 193.453 176.497 193.594 176.289C193.734 176.081 193.844 175.862 193.922 175.633C194 175.398 194.039 175.146 194.039 174.875C194.039 174.578 193.992 174.32 193.898 174.102C193.81 173.878 193.682 173.693 193.516 173.547C193.354 173.396 193.161 173.284 192.938 173.211C192.714 173.133 192.469 173.094 192.203 173.094C191.745 173.094 191.279 173.201 190.805 173.414C190.331 173.628 189.875 173.948 189.438 174.375V172.633C189.667 172.461 189.898 172.312 190.133 172.188C190.367 172.057 190.609 171.951 190.859 171.867C191.109 171.779 191.372 171.714 191.648 171.672C191.924 171.63 192.219 171.609 192.531 171.609C193.036 171.609 193.495 171.677 193.906 171.812C194.318 171.943 194.669 172.138 194.961 172.398C195.253 172.654 195.477 172.974 195.633 173.359C195.794 173.745 195.875 174.188 195.875 174.688C195.875 175.141 195.818 175.549 195.703 175.914C195.594 176.273 195.435 176.609 195.227 176.922C195.023 177.234 194.776 177.531 194.484 177.812C194.193 178.094 193.867 178.383 193.508 178.68C193.206 178.924 192.904 179.164 192.602 179.398C192.305 179.628 192.036 179.854 191.797 180.078C191.557 180.297 191.362 180.518 191.211 180.742C191.065 180.961 190.992 181.182 190.992 181.406V181.445H196.047V183ZM198.352 182.742V181C199.086 181.495 199.831 181.742 200.586 181.742C201.346 181.742 201.958 181.549 202.422 181.164C202.885 180.773 203.117 180.255 203.117 179.609C203.117 178.974 202.88 178.479 202.406 178.125C201.938 177.771 201.263 177.594 200.383 177.594C200.081 177.594 199.469 177.625 198.547 177.688L198.945 171.797H204.461V173.344H200.453L200.266 176.148C200.625 176.128 200.951 176.117 201.242 176.117C202.43 176.117 203.346 176.422 203.992 177.031C204.643 177.641 204.969 178.474 204.969 179.531C204.969 180.641 204.596 181.531 203.852 182.203C203.112 182.87 202.094 183.203 200.797 183.203C199.703 183.203 198.888 183.049 198.352 182.742Z" fill="black"/>
<path d="M138.805 222.547V234H136.992V224.766C136.664 225 136.31 225.201 135.93 225.367C135.555 225.529 135.125 225.672 134.641 225.797V224.25C134.943 224.151 135.234 224.047 135.516 223.938C135.797 223.828 136.073 223.706 136.344 223.57C136.62 223.435 136.896 223.284 137.172 223.117C137.453 222.951 137.742 222.76 138.039 222.547H138.805ZM148.469 223.703C148 224.562 147.557 225.414 147.141 226.258C146.724 227.096 146.346 227.94 146.008 228.789C145.669 229.638 145.375 230.495 145.125 231.359C144.875 232.219 144.682 233.099 144.547 234H142.648C142.773 233.198 142.951 232.398 143.18 231.602C143.414 230.799 143.688 230 144 229.203C144.312 228.401 144.661 227.596 145.047 226.789C145.438 225.982 145.852 225.167 146.289 224.344H140.984V222.797H148.469V223.703ZM156.812 234H149.781V233.133C149.781 232.779 149.831 232.448 149.93 232.141C150.029 231.828 150.161 231.536 150.328 231.266C150.495 230.99 150.69 230.732 150.914 230.492C151.138 230.247 151.378 230.013 151.633 229.789C151.888 229.56 152.148 229.341 152.414 229.133C152.68 228.919 152.94 228.706 153.195 228.492C153.435 228.289 153.654 228.091 153.852 227.898C154.049 227.701 154.219 227.497 154.359 227.289C154.5 227.081 154.609 226.862 154.688 226.633C154.766 226.398 154.805 226.146 154.805 225.875C154.805 225.578 154.758 225.32 154.664 225.102C154.576 224.878 154.448 224.693 154.281 224.547C154.12 224.396 153.927 224.284 153.703 224.211C153.479 224.133 153.234 224.094 152.969 224.094C152.51 224.094 152.044 224.201 151.57 224.414C151.096 224.628 150.641 224.948 150.203 225.375V223.633C150.432 223.461 150.664 223.312 150.898 223.188C151.133 223.057 151.375 222.951 151.625 222.867C151.875 222.779 152.138 222.714 152.414 222.672C152.69 222.63 152.984 222.609 153.297 222.609C153.802 222.609 154.26 222.677 154.672 222.812C155.083 222.943 155.435 223.138 155.727 223.398C156.018 223.654 156.242 223.974 156.398 224.359C156.56 224.745 156.641 225.188 156.641 225.688C156.641 226.141 156.583 226.549 156.469 226.914C156.359 227.273 156.201 227.609 155.992 227.922C155.789 228.234 155.542 228.531 155.25 228.812C154.958 229.094 154.633 229.383 154.273 229.68C153.971 229.924 153.669 230.164 153.367 230.398C153.07 230.628 152.802 230.854 152.562 231.078C152.323 231.297 152.128 231.518 151.977 231.742C151.831 231.961 151.758 232.182 151.758 232.406V232.445H156.812V234ZM166.227 230.398C166.227 230.961 166.133 231.474 165.945 231.938C165.763 232.401 165.508 232.802 165.18 233.141C164.852 233.474 164.461 233.734 164.008 233.922C163.56 234.104 163.073 234.195 162.547 234.195C161.984 234.195 161.466 234.086 160.992 233.867C160.523 233.648 160.117 233.323 159.773 232.891C159.435 232.458 159.172 231.922 158.984 231.281C158.797 230.635 158.703 229.888 158.703 229.039C158.703 228.003 158.826 227.083 159.07 226.281C159.32 225.479 159.661 224.807 160.094 224.266C160.526 223.724 161.034 223.312 161.617 223.031C162.201 222.75 162.831 222.609 163.508 222.609C163.93 222.609 164.312 222.638 164.656 222.695C165.005 222.753 165.284 222.831 165.492 222.93V224.562C165.227 224.427 164.943 224.312 164.641 224.219C164.339 224.125 163.992 224.078 163.602 224.078C163.164 224.078 162.76 224.167 162.391 224.344C162.021 224.521 161.701 224.781 161.43 225.125C161.164 225.464 160.953 225.885 160.797 226.391C160.646 226.891 160.568 227.469 160.562 228.125H160.609C160.849 227.755 161.172 227.464 161.578 227.25C161.99 227.036 162.471 226.93 163.023 226.93C163.513 226.93 163.953 227.01 164.344 227.172C164.74 227.328 165.076 227.557 165.352 227.859C165.633 228.156 165.849 228.521 166 228.953C166.151 229.38 166.227 229.862 166.227 230.398ZM164.398 230.547C164.398 230.224 164.359 229.93 164.281 229.664C164.208 229.398 164.094 229.172 163.938 228.984C163.786 228.792 163.594 228.643 163.359 228.539C163.13 228.435 162.859 228.383 162.547 228.383C162.234 228.383 161.958 228.44 161.719 228.555C161.484 228.664 161.286 228.81 161.125 228.992C160.964 229.174 160.841 229.383 160.758 229.617C160.68 229.852 160.641 230.091 160.641 230.336C160.641 230.602 160.677 230.875 160.75 231.156C160.828 231.432 160.945 231.685 161.102 231.914C161.258 232.143 161.456 232.333 161.695 232.484C161.94 232.63 162.229 232.703 162.562 232.703C162.859 232.703 163.122 232.648 163.352 232.539C163.581 232.43 163.771 232.279 163.922 232.086C164.078 231.893 164.195 231.667 164.273 231.406C164.357 231.141 164.398 230.854 164.398 230.547ZM172.234 230.297H167.969V228.961H172.234V230.297ZM178.086 222.547V234H176.273V224.766C175.945 225 175.591 225.201 175.211 225.367C174.836 225.529 174.406 225.672 173.922 225.797V224.25C174.224 224.151 174.516 224.047 174.797 223.938C175.078 223.828 175.354 223.706 175.625 223.57C175.901 223.435 176.177 223.284 176.453 223.117C176.734 222.951 177.023 222.76 177.32 222.547H178.086ZM187.75 223.703C187.281 224.562 186.839 225.414 186.422 226.258C186.005 227.096 185.628 227.94 185.289 228.789C184.951 229.638 184.656 230.495 184.406 231.359C184.156 232.219 183.964 233.099 183.828 234H181.93C182.055 233.198 182.232 232.398 182.461 231.602C182.695 230.799 182.969 230 183.281 229.203C183.594 228.401 183.943 227.596 184.328 226.789C184.719 225.982 185.133 225.167 185.57 224.344H180.266V222.797H187.75V223.703ZM196.094 234H189.062V233.133C189.062 232.779 189.112 232.448 189.211 232.141C189.31 231.828 189.443 231.536 189.609 231.266C189.776 230.99 189.971 230.732 190.195 230.492C190.419 230.247 190.659 230.013 190.914 229.789C191.169 229.56 191.43 229.341 191.695 229.133C191.961 228.919 192.221 228.706 192.477 228.492C192.716 228.289 192.935 228.091 193.133 227.898C193.331 227.701 193.5 227.497 193.641 227.289C193.781 227.081 193.891 226.862 193.969 226.633C194.047 226.398 194.086 226.146 194.086 225.875C194.086 225.578 194.039 225.32 193.945 225.102C193.857 224.878 193.729 224.693 193.562 224.547C193.401 224.396 193.208 224.284 192.984 224.211C192.76 224.133 192.516 224.094 192.25 224.094C191.792 224.094 191.326 224.201 190.852 224.414C190.378 224.628 189.922 224.948 189.484 225.375V223.633C189.714 223.461 189.945 223.312 190.18 223.188C190.414 223.057 190.656 222.951 190.906 222.867C191.156 222.779 191.419 222.714 191.695 222.672C191.971 222.63 192.266 222.609 192.578 222.609C193.083 222.609 193.542 222.677 193.953 222.812C194.365 222.943 194.716 223.138 195.008 223.398C195.299 223.654 195.523 223.974 195.68 224.359C195.841 224.745 195.922 225.188 195.922 225.688C195.922 226.141 195.865 226.549 195.75 226.914C195.641 227.273 195.482 227.609 195.273 227.922C195.07 228.234 194.823 228.531 194.531 228.812C194.24 229.094 193.914 229.383 193.555 229.68C193.253 229.924 192.951 230.164 192.648 230.398C192.352 230.628 192.083 230.854 191.844 231.078C191.604 231.297 191.409 231.518 191.258 231.742C191.112 231.961 191.039 232.182 191.039 232.406V232.445H196.094V234ZM205.367 227.789C205.367 228.909 205.245 229.872 205 230.68C204.76 231.487 204.427 232.151 204 232.672C203.578 233.193 203.081 233.578 202.508 233.828C201.94 234.073 201.328 234.195 200.672 234.195C200.458 234.195 200.242 234.182 200.023 234.156C199.81 234.13 199.604 234.096 199.406 234.055C199.214 234.013 199.036 233.969 198.875 233.922C198.719 233.87 198.589 233.82 198.484 233.773V232.141C198.594 232.208 198.729 232.279 198.891 232.352C199.052 232.419 199.227 232.482 199.414 232.539C199.607 232.591 199.805 232.635 200.008 232.672C200.216 232.703 200.417 232.719 200.609 232.719C201.052 232.719 201.453 232.633 201.812 232.461C202.177 232.289 202.487 232.034 202.742 231.695C202.997 231.357 203.193 230.938 203.328 230.438C203.469 229.932 203.539 229.349 203.539 228.688H203.508C203.414 228.854 203.289 229.013 203.133 229.164C202.982 229.31 202.807 229.44 202.609 229.555C202.411 229.664 202.19 229.753 201.945 229.82C201.706 229.888 201.448 229.922 201.172 229.922C200.703 229.922 200.266 229.841 199.859 229.68C199.458 229.513 199.109 229.279 198.812 228.977C198.516 228.674 198.281 228.307 198.109 227.875C197.943 227.443 197.859 226.961 197.859 226.43C197.859 225.846 197.956 225.32 198.148 224.852C198.341 224.378 198.607 223.977 198.945 223.648C199.284 223.315 199.682 223.06 200.141 222.883C200.599 222.701 201.096 222.609 201.633 222.609C202.138 222.609 202.615 222.706 203.062 222.898C203.516 223.086 203.911 223.388 204.25 223.805C204.594 224.216 204.865 224.75 205.062 225.406C205.266 226.062 205.367 226.857 205.367 227.789ZM203.477 226.594C203.477 226.219 203.427 225.878 203.328 225.57C203.234 225.263 203.102 225 202.93 224.781C202.758 224.562 202.552 224.393 202.312 224.273C202.078 224.154 201.82 224.094 201.539 224.094C201.289 224.094 201.049 224.146 200.82 224.25C200.596 224.349 200.398 224.492 200.227 224.68C200.06 224.867 199.927 225.094 199.828 225.359C199.729 225.625 199.68 225.919 199.68 226.242C199.68 226.596 199.727 226.909 199.82 227.18C199.919 227.451 200.055 227.68 200.227 227.867C200.398 228.049 200.604 228.19 200.844 228.289C201.089 228.383 201.357 228.43 201.648 228.43C201.909 228.43 202.148 228.383 202.367 228.289C202.591 228.19 202.784 228.06 202.945 227.898C203.112 227.732 203.242 227.536 203.336 227.312C203.43 227.089 203.477 226.849 203.477 226.594Z" fill="black"/>
<path d="M138.805 273.547V285H136.992V275.766C136.664 276 136.31 276.201 135.93 276.367C135.555 276.529 135.125 276.672 134.641 276.797V275.25C134.943 275.151 135.234 275.047 135.516 274.938C135.797 274.828 136.073 274.706 136.344 274.57C136.62 274.435 136.896 274.284 137.172 274.117C137.453 273.951 137.742 273.76 138.039 273.547H138.805ZM148.469 274.703C148 275.562 147.557 276.414 147.141 277.258C146.724 278.096 146.346 278.94 146.008 279.789C145.669 280.638 145.375 281.495 145.125 282.359C144.875 283.219 144.682 284.099 144.547 285H142.648C142.773 284.198 142.951 283.398 143.18 282.602C143.414 281.799 143.688 281 144 280.203C144.312 279.401 144.661 278.596 145.047 277.789C145.438 276.982 145.852 276.167 146.289 275.344H140.984V273.797H148.469V274.703ZM153.82 273.547V285H152.008V275.766C151.68 276 151.326 276.201 150.945 276.367C150.57 276.529 150.141 276.672 149.656 276.797V275.25C149.958 275.151 150.25 275.047 150.531 274.938C150.812 274.828 151.089 274.706 151.359 274.57C151.635 274.435 151.911 274.284 152.188 274.117C152.469 273.951 152.758 273.76 153.055 273.547H153.82ZM156.664 284.742V283C157.398 283.495 158.143 283.742 158.898 283.742C159.659 283.742 160.271 283.549 160.734 283.164C161.198 282.773 161.43 282.255 161.43 281.609C161.43 280.974 161.193 280.479 160.719 280.125C160.25 279.771 159.576 279.594 158.695 279.594C158.393 279.594 157.781 279.625 156.859 279.688L157.258 273.797H162.773V275.344H158.766L158.578 278.148C158.938 278.128 159.263 278.117 159.555 278.117C160.742 278.117 161.659 278.422 162.305 279.031C162.956 279.641 163.281 280.474 163.281 281.531C163.281 282.641 162.909 283.531 162.164 284.203C161.424 284.87 160.406 285.203 159.109 285.203C158.016 285.203 157.201 285.049 156.664 284.742ZM169.734 281.297H165.469V279.961H169.734V281.297ZM175.586 273.547V285H173.773V275.766C173.445 276 173.091 276.201 172.711 276.367C172.336 276.529 171.906 276.672 171.422 276.797V275.25C171.724 275.151 172.016 275.047 172.297 274.938C172.578 274.828 172.854 274.706 173.125 274.57C173.401 274.435 173.677 274.284 173.953 274.117C174.234 273.951 174.523 273.76 174.82 273.547H175.586ZM185.25 274.703C184.781 275.562 184.339 276.414 183.922 277.258C183.505 278.096 183.128 278.94 182.789 279.789C182.451 280.638 182.156 281.495 181.906 282.359C181.656 283.219 181.464 284.099 181.328 285H179.43C179.555 284.198 179.732 283.398 179.961 282.602C180.195 281.799 180.469 281 180.781 280.203C181.094 279.401 181.443 278.596 181.828 277.789C182.219 276.982 182.633 276.167 183.07 275.344H177.766V273.797H185.25V274.703ZM190.602 273.547V285H188.789V275.766C188.461 276 188.107 276.201 187.727 276.367C187.352 276.529 186.922 276.672 186.438 276.797V275.25C186.74 275.151 187.031 275.047 187.312 274.938C187.594 274.828 187.87 274.706 188.141 274.57C188.417 274.435 188.693 274.284 188.969 274.117C189.25 273.951 189.539 273.76 189.836 273.547H190.602ZM200.266 274.703C199.797 275.562 199.354 276.414 198.938 277.258C198.521 278.096 198.143 278.94 197.805 279.789C197.466 280.638 197.172 281.495 196.922 282.359C196.672 283.219 196.479 284.099 196.344 285H194.445C194.57 284.198 194.747 283.398 194.977 282.602C195.211 281.799 195.484 281 195.797 280.203C196.109 279.401 196.458 278.596 196.844 277.789C197.234 276.982 197.648 276.167 198.086 275.344H192.781V273.797H200.266V274.703Z" fill="black"/>
</g>
<g filter="url(#filter1_d_131_49)">
<rect x="237" y="246" width="374" height="127.557" rx="18" fill="#E3E5EF"/>
<path d="M272.422 284H270.555V274.461H265.242V284H263.383V272.797H272.422V284ZM281.734 280.492H276.281C276.302 281.232 276.529 281.802 276.961 282.203C277.398 282.604 277.997 282.805 278.758 282.805C279.612 282.805 280.396 282.549 281.109 282.039V283.5C280.38 283.958 279.417 284.188 278.219 284.188C277.042 284.188 276.117 283.826 275.445 283.102C274.779 282.372 274.445 281.349 274.445 280.031C274.445 278.786 274.812 277.773 275.547 276.992C276.286 276.206 277.203 275.812 278.297 275.812C279.391 275.812 280.237 276.164 280.836 276.867C281.435 277.57 281.734 278.547 281.734 279.797V280.492ZM279.984 279.211C279.979 278.56 279.826 278.055 279.523 277.695C279.221 277.331 278.805 277.148 278.273 277.148C277.753 277.148 277.31 277.339 276.945 277.719C276.586 278.099 276.365 278.596 276.281 279.211H279.984ZM285.305 282.82H285.273V287.68H283.461V276H285.273V277.406H285.305C285.924 276.344 286.831 275.812 288.023 275.812C289.039 275.812 289.831 276.169 290.398 276.883C290.966 277.596 291.25 278.555 291.25 279.758C291.25 281.091 290.93 282.159 290.289 282.961C289.648 283.763 288.773 284.164 287.664 284.164C286.643 284.164 285.857 283.716 285.305 282.82ZM285.258 279.664V280.656C285.258 281.24 285.443 281.734 285.812 282.141C286.188 282.547 286.661 282.75 287.234 282.75C287.906 282.75 288.432 282.49 288.812 281.969C289.198 281.443 289.391 280.711 289.391 279.773C289.391 278.987 289.211 278.372 288.852 277.93C288.497 277.482 288.016 277.258 287.406 277.258C286.76 277.258 286.24 277.487 285.844 277.945C285.453 278.404 285.258 278.977 285.258 279.664ZM299.875 280.492H294.422C294.443 281.232 294.669 281.802 295.102 282.203C295.539 282.604 296.138 282.805 296.898 282.805C297.753 282.805 298.536 282.549 299.25 282.039V283.5C298.521 283.958 297.557 284.188 296.359 284.188C295.182 284.188 294.258 283.826 293.586 283.102C292.919 282.372 292.586 281.349 292.586 280.031C292.586 278.786 292.953 277.773 293.688 276.992C294.427 276.206 295.344 275.812 296.438 275.812C297.531 275.812 298.378 276.164 298.977 276.867C299.576 277.57 299.875 278.547 299.875 279.797V280.492ZM298.125 279.211C298.12 278.56 297.966 278.055 297.664 277.695C297.362 277.331 296.945 277.148 296.414 277.148C295.893 277.148 295.451 277.339 295.086 277.719C294.727 278.099 294.505 278.596 294.422 279.211H298.125ZM309.258 286.914H307.75V284H302.055V286.914H300.562V282.617H301.273C302.549 280.732 303.198 278.526 303.219 276H308.031V282.617H309.258V286.914ZM306.219 282.617V277.375H304.695C304.57 279.312 304.039 281.06 303.102 282.617H306.219ZM317.656 280.492H312.203C312.224 281.232 312.451 281.802 312.883 282.203C313.32 282.604 313.919 282.805 314.68 282.805C315.534 282.805 316.318 282.549 317.031 282.039V283.5C316.302 283.958 315.339 284.188 314.141 284.188C312.964 284.188 312.039 283.826 311.367 283.102C310.701 282.372 310.367 281.349 310.367 280.031C310.367 278.786 310.734 277.773 311.469 276.992C312.208 276.206 313.125 275.812 314.219 275.812C315.312 275.812 316.159 276.164 316.758 276.867C317.357 277.57 317.656 278.547 317.656 279.797V280.492ZM315.906 279.211C315.901 278.56 315.747 278.055 315.445 277.695C315.143 277.331 314.727 277.148 314.195 277.148C313.674 277.148 313.232 277.339 312.867 277.719C312.508 278.099 312.286 278.596 312.203 279.211H315.906ZM326 284H324.18V277.383H322.547C322.318 279.857 321.924 281.596 321.367 282.602C320.815 283.602 320.07 284.102 319.133 284.102C318.82 284.102 318.552 284.057 318.328 283.969V282.617C318.51 282.706 318.706 282.75 318.914 282.75C320.034 282.75 320.753 280.5 321.07 276H326V284ZM334.508 284H332.75V282.75H332.719C332.167 283.708 331.357 284.188 330.289 284.188C329.503 284.188 328.885 283.974 328.438 283.547C327.995 283.12 327.773 282.555 327.773 281.852C327.773 280.341 328.643 279.461 330.383 279.211L332.758 278.875C332.758 277.734 332.216 277.164 331.133 277.164C330.18 277.164 329.32 277.492 328.555 278.148V276.562C329.398 276.062 330.372 275.812 331.477 275.812C333.497 275.812 334.508 276.807 334.508 278.797V284ZM332.758 280.07L331.078 280.305C330.557 280.372 330.164 280.5 329.898 280.688C329.638 280.87 329.508 281.193 329.508 281.656C329.508 281.995 329.628 282.273 329.867 282.492C330.112 282.706 330.438 282.812 330.844 282.812C331.396 282.812 331.852 282.62 332.211 282.234C332.576 281.844 332.758 281.354 332.758 280.766V280.07ZM343.992 284H342.352V278.133C342.247 278.341 342.089 278.63 341.875 279L338.508 284H336.727V276H338.391V281.75C338.448 281.615 338.57 281.38 338.758 281.047L342.172 276H343.992V284ZM343.469 272.148C343.385 272.93 343.062 273.547 342.5 274C341.943 274.448 341.242 274.672 340.398 274.672C339.534 274.672 338.828 274.448 338.281 274C337.74 273.547 337.443 272.93 337.391 272.148H338.898C338.971 273.096 339.479 273.57 340.422 273.57C340.839 273.57 341.182 273.445 341.453 273.195C341.729 272.945 341.898 272.596 341.961 272.148H343.469ZM351.82 277.445H349.539V284H347.719V277.445H345.422V276H351.82V277.445ZM359.766 280.492H354.312C354.333 281.232 354.56 281.802 354.992 282.203C355.43 282.604 356.029 282.805 356.789 282.805C357.643 282.805 358.427 282.549 359.141 282.039V283.5C358.411 283.958 357.448 284.188 356.25 284.188C355.073 284.188 354.148 283.826 353.477 283.102C352.81 282.372 352.477 281.349 352.477 280.031C352.477 278.786 352.844 277.773 353.578 276.992C354.318 276.206 355.234 275.812 356.328 275.812C357.422 275.812 358.268 276.164 358.867 276.867C359.466 277.57 359.766 278.547 359.766 279.797V280.492ZM358.016 279.211C358.01 278.56 357.857 278.055 357.555 277.695C357.253 277.331 356.836 277.148 356.305 277.148C355.784 277.148 355.341 277.339 354.977 277.719C354.617 278.099 354.396 278.596 354.312 279.211H358.016ZM371.625 283.633C370.984 284.003 370.227 284.188 369.352 284.188C368.164 284.188 367.206 283.818 366.477 283.078C365.747 282.333 365.383 281.37 365.383 280.188C365.383 278.87 365.773 277.812 366.555 277.016C367.341 276.214 368.391 275.812 369.703 275.812C370.432 275.812 371.076 275.94 371.633 276.195V277.883C371.076 277.466 370.482 277.258 369.852 277.258C369.086 277.258 368.458 277.518 367.969 278.039C367.479 278.555 367.234 279.232 367.234 280.07C367.234 280.898 367.464 281.552 367.922 282.031C368.385 282.51 369.005 282.75 369.781 282.75C370.432 282.75 371.047 282.518 371.625 282.055V283.633ZM380.047 284H378.227V277.383H376.594C376.365 279.857 375.971 281.596 375.414 282.602C374.862 283.602 374.117 284.102 373.18 284.102C372.867 284.102 372.599 284.057 372.375 283.969V282.617C372.557 282.706 372.753 282.75 372.961 282.75C374.081 282.75 374.799 280.5 375.117 276H380.047V284ZM385.961 284.188C384.727 284.188 383.74 283.815 383 283.07C382.266 282.32 381.898 281.328 381.898 280.094C381.898 278.75 382.281 277.701 383.047 276.945C383.818 276.19 384.854 275.812 386.156 275.812C387.406 275.812 388.38 276.18 389.078 276.914C389.776 277.648 390.125 278.667 390.125 279.969C390.125 281.245 389.747 282.268 388.992 283.039C388.242 283.805 387.232 284.188 385.961 284.188ZM386.047 277.258C385.339 277.258 384.779 277.505 384.367 278C383.956 278.495 383.75 279.177 383.75 280.047C383.75 280.885 383.958 281.547 384.375 282.031C384.792 282.51 385.349 282.75 386.047 282.75C386.76 282.75 387.307 282.513 387.688 282.039C388.073 281.565 388.266 280.891 388.266 280.016C388.266 279.135 388.073 278.456 387.688 277.977C387.307 277.497 386.76 277.258 386.047 277.258ZM391.977 284V276H395.797C396.656 276 397.336 276.174 397.836 276.523C398.336 276.872 398.586 277.349 398.586 277.953C398.586 278.974 398.062 279.594 397.016 279.812C398.26 279.969 398.883 280.583 398.883 281.656C398.883 282.318 398.62 282.875 398.094 283.328C397.568 283.776 396.914 284 396.133 284H391.977ZM393.789 277.281V279.273H395.391C396.297 279.273 396.75 278.922 396.75 278.219C396.75 277.594 396.354 277.281 395.562 277.281H393.789ZM393.789 280.531V282.711H395.648C396.576 282.711 397.039 282.336 397.039 281.586C397.039 280.883 396.536 280.531 395.531 280.531H393.789ZM404.367 284.188C403.133 284.188 402.146 283.815 401.406 283.07C400.672 282.32 400.305 281.328 400.305 280.094C400.305 278.75 400.688 277.701 401.453 276.945C402.224 276.19 403.26 275.812 404.562 275.812C405.812 275.812 406.786 276.18 407.484 276.914C408.182 277.648 408.531 278.667 408.531 279.969C408.531 281.245 408.154 282.268 407.398 283.039C406.648 283.805 405.638 284.188 404.367 284.188ZM404.453 277.258C403.745 277.258 403.185 277.505 402.773 278C402.362 278.495 402.156 279.177 402.156 280.047C402.156 280.885 402.365 281.547 402.781 282.031C403.198 282.51 403.755 282.75 404.453 282.75C405.167 282.75 405.714 282.513 406.094 282.039C406.479 281.565 406.672 280.891 406.672 280.016C406.672 279.135 406.479 278.456 406.094 277.977C405.714 277.497 405.167 277.258 404.453 277.258ZM416.109 283.633C415.469 284.003 414.711 284.188 413.836 284.188C412.648 284.188 411.69 283.818 410.961 283.078C410.232 282.333 409.867 281.37 409.867 280.188C409.867 278.87 410.258 277.812 411.039 277.016C411.826 276.214 412.875 275.812 414.188 275.812C414.917 275.812 415.56 275.94 416.117 276.195V277.883C415.56 277.466 414.966 277.258 414.336 277.258C413.57 277.258 412.943 277.518 412.453 278.039C411.964 278.555 411.719 279.232 411.719 280.07C411.719 280.898 411.948 281.552 412.406 282.031C412.87 282.51 413.49 282.75 414.266 282.75C414.917 282.75 415.531 282.518 416.109 282.055V283.633ZM421.461 284.188C420.227 284.188 419.24 283.815 418.5 283.07C417.766 282.32 417.398 281.328 417.398 280.094C417.398 278.75 417.781 277.701 418.547 276.945C419.318 276.19 420.354 275.812 421.656 275.812C422.906 275.812 423.88 276.18 424.578 276.914C425.276 277.648 425.625 278.667 425.625 279.969C425.625 281.245 425.247 282.268 424.492 283.039C423.742 283.805 422.732 284.188 421.461 284.188ZM421.547 277.258C420.839 277.258 420.279 277.505 419.867 278C419.456 278.495 419.25 279.177 419.25 280.047C419.25 280.885 419.458 281.547 419.875 282.031C420.292 282.51 420.849 282.75 421.547 282.75C422.26 282.75 422.807 282.513 423.188 282.039C423.573 281.565 423.766 280.891 423.766 280.016C423.766 279.135 423.573 278.456 423.188 277.977C422.807 277.497 422.26 277.258 421.547 277.258ZM434.406 284H432.594V280.984C431.682 281.479 430.844 281.727 430.078 281.727C428.276 281.727 427.375 280.747 427.375 278.789V276H429.148V278.539C429.148 279.669 429.591 280.234 430.477 280.234C431.133 280.234 431.839 280.039 432.594 279.648V276H434.406V284ZM443.547 280.492H438.094C438.115 281.232 438.341 281.802 438.773 282.203C439.211 282.604 439.81 282.805 440.57 282.805C441.424 282.805 442.208 282.549 442.922 282.039V283.5C442.193 283.958 441.229 284.188 440.031 284.188C438.854 284.188 437.93 283.826 437.258 283.102C436.591 282.372 436.258 281.349 436.258 280.031C436.258 278.786 436.625 277.773 437.359 276.992C438.099 276.206 439.016 275.812 440.109 275.812C441.203 275.812 442.049 276.164 442.648 276.867C443.247 277.57 443.547 278.547 443.547 279.797V280.492ZM441.797 279.211C441.792 278.56 441.638 278.055 441.336 277.695C441.034 277.331 440.617 277.148 440.086 277.148C439.565 277.148 439.122 277.339 438.758 277.719C438.398 278.099 438.177 278.596 438.094 279.211H441.797ZM450.727 277.445H448.445V284H446.625V277.445H444.328V276H450.727V277.445ZM458.305 284H456.547V282.75H456.516C455.964 283.708 455.154 284.188 454.086 284.188C453.299 284.188 452.682 283.974 452.234 283.547C451.792 283.12 451.57 282.555 451.57 281.852C451.57 280.341 452.44 279.461 454.18 279.211L456.555 278.875C456.555 277.734 456.013 277.164 454.93 277.164C453.977 277.164 453.117 277.492 452.352 278.148V276.562C453.195 276.062 454.169 275.812 455.273 275.812C457.294 275.812 458.305 276.807 458.305 278.797V284ZM456.555 280.07L454.875 280.305C454.354 280.372 453.961 280.5 453.695 280.688C453.435 280.87 453.305 281.193 453.305 281.656C453.305 281.995 453.424 282.273 453.664 282.492C453.909 282.706 454.234 282.812 454.641 282.812C455.193 282.812 455.648 282.62 456.008 282.234C456.372 281.844 456.555 281.354 456.555 280.766V280.07ZM467.648 284H465.828V280.5H462.344V284H460.523V276H462.344V279.141H465.828V276H467.648V284ZM477.273 284H475.633V278.133C475.529 278.341 475.37 278.63 475.156 279L471.789 284H470.008V276H471.672V281.75C471.729 281.615 471.852 281.38 472.039 281.047L475.453 276H477.273V284ZM486.422 280.492H480.969C480.99 281.232 481.216 281.802 481.648 282.203C482.086 282.604 482.685 282.805 483.445 282.805C484.299 282.805 485.083 282.549 485.797 282.039V283.5C485.068 283.958 484.104 284.188 482.906 284.188C481.729 284.188 480.805 283.826 480.133 283.102C479.466 282.372 479.133 281.349 479.133 280.031C479.133 278.786 479.5 277.773 480.234 276.992C480.974 276.206 481.891 275.812 482.984 275.812C484.078 275.812 484.924 276.164 485.523 276.867C486.122 277.57 486.422 278.547 486.422 279.797V280.492ZM484.672 279.211C484.667 278.56 484.513 278.055 484.211 277.695C483.909 277.331 483.492 277.148 482.961 277.148C482.44 277.148 481.997 277.339 481.633 277.719C481.273 278.099 481.052 278.596 480.969 279.211H484.672ZM268.023 293.578L267.148 297.055H265.562L266.836 293.578H268.023ZM265.258 293.578L264.406 297.055H262.789L264.062 293.578H265.258ZM277.711 307.914H276.203V305H270.508V307.914H269.016V303.617H269.727C271.003 301.732 271.651 299.526 271.672 297H276.484V303.617H277.711V307.914ZM274.672 303.617V298.375H273.148C273.023 300.312 272.492 302.06 271.555 303.617H274.672ZM286.109 301.492H280.656C280.677 302.232 280.904 302.802 281.336 303.203C281.773 303.604 282.372 303.805 283.133 303.805C283.987 303.805 284.771 303.549 285.484 303.039V304.5C284.755 304.958 283.792 305.188 282.594 305.188C281.417 305.188 280.492 304.826 279.82 304.102C279.154 303.372 278.82 302.349 278.82 301.031C278.82 299.786 279.188 298.773 279.922 297.992C280.661 297.206 281.578 296.812 282.672 296.812C283.766 296.812 284.612 297.164 285.211 297.867C285.81 298.57 286.109 299.547 286.109 300.797V301.492ZM284.359 300.211C284.354 299.56 284.201 299.055 283.898 298.695C283.596 298.331 283.18 298.148 282.648 298.148C282.128 298.148 281.685 298.339 281.32 298.719C280.961 299.099 280.74 299.596 280.656 300.211H284.359ZM289.68 303.82H289.648V308.68H287.836V297H289.648V298.406H289.68C290.299 297.344 291.206 296.812 292.398 296.812C293.414 296.812 294.206 297.169 294.773 297.883C295.341 298.596 295.625 299.555 295.625 300.758C295.625 302.091 295.305 303.159 294.664 303.961C294.023 304.763 293.148 305.164 292.039 305.164C291.018 305.164 290.232 304.716 289.68 303.82ZM289.633 300.664V301.656C289.633 302.24 289.818 302.734 290.188 303.141C290.562 303.547 291.036 303.75 291.609 303.75C292.281 303.75 292.807 303.49 293.188 302.969C293.573 302.443 293.766 301.711 293.766 300.773C293.766 299.987 293.586 299.372 293.227 298.93C292.872 298.482 292.391 298.258 291.781 298.258C291.135 298.258 290.615 298.487 290.219 298.945C289.828 299.404 289.633 299.977 289.633 300.664ZM304.25 301.492H298.797C298.818 302.232 299.044 302.802 299.477 303.203C299.914 303.604 300.513 303.805 301.273 303.805C302.128 303.805 302.911 303.549 303.625 303.039V304.5C302.896 304.958 301.932 305.188 300.734 305.188C299.557 305.188 298.633 304.826 297.961 304.102C297.294 303.372 296.961 302.349 296.961 301.031C296.961 299.786 297.328 298.773 298.062 297.992C298.802 297.206 299.719 296.812 300.812 296.812C301.906 296.812 302.753 297.164 303.352 297.867C303.951 298.57 304.25 299.547 304.25 300.797V301.492ZM302.5 300.211C302.495 299.56 302.341 299.055 302.039 298.695C301.737 298.331 301.32 298.148 300.789 298.148C300.268 298.148 299.826 298.339 299.461 298.719C299.102 299.099 298.88 299.596 298.797 300.211H302.5ZM305.977 305V297H309.797C310.656 297 311.336 297.174 311.836 297.523C312.336 297.872 312.586 298.349 312.586 298.953C312.586 299.974 312.062 300.594 311.016 300.812C312.26 300.969 312.883 301.583 312.883 302.656C312.883 303.318 312.62 303.875 312.094 304.328C311.568 304.776 310.914 305 310.133 305H305.977ZM307.789 298.281V300.273H309.391C310.297 300.273 310.75 299.922 310.75 299.219C310.75 298.594 310.354 298.281 309.562 298.281H307.789ZM307.789 301.531V303.711H309.648C310.576 303.711 311.039 303.336 311.039 302.586C311.039 301.883 310.536 301.531 309.531 301.531H307.789ZM320.984 305H319.18V301.836H318.25C317.802 301.836 317.396 302.237 317.031 303.039L316.078 305H314.023L315.289 302.625C315.648 302.01 316.081 301.604 316.586 301.406C315.951 301.323 315.464 301.096 315.125 300.727C314.792 300.352 314.625 299.883 314.625 299.32C314.625 298.607 314.909 298.042 315.477 297.625C316.049 297.208 316.818 297 317.781 297H320.984V305ZM319.18 300.586V298.312H317.93C316.951 298.312 316.461 298.685 316.461 299.43C316.461 300.201 316.943 300.586 317.906 300.586H319.18ZM330.461 305H328.641V301.5H325.156V305H323.336V297H325.156V300.141H328.641V297H330.461V305ZM339.945 305H338.125V301.5H334.641V305H332.82V297H334.641V300.141H338.125V297H339.945V305ZM352.047 305H350.234V297H352.047V305ZM342.305 305V297H344.117V299.953H346.305C347.133 299.953 347.792 300.172 348.281 300.609C348.771 301.042 349.016 301.646 349.016 302.422C349.016 303.219 348.76 303.849 348.25 304.312C347.745 304.771 347.107 305 346.336 305H342.305ZM344.117 301.258V303.695H345.773C346.69 303.695 347.148 303.276 347.148 302.438C347.148 301.651 346.685 301.258 345.758 301.258H344.117ZM361.68 305H360.039V299.133C359.935 299.341 359.776 299.63 359.562 300L356.195 305H354.414V297H356.078V302.75C356.135 302.615 356.258 302.38 356.445 302.047L359.859 297H361.68V305ZM361.156 293.148C361.073 293.93 360.75 294.547 360.188 295C359.63 295.448 358.93 295.672 358.086 295.672C357.221 295.672 356.516 295.448 355.969 295C355.427 294.547 355.13 293.93 355.078 293.148H356.586C356.659 294.096 357.167 294.57 358.109 294.57C358.526 294.57 358.87 294.445 359.141 294.195C359.417 293.945 359.586 293.596 359.648 293.148H361.156ZM379.344 305H368.461V297H370.281V303.617H372.992V297H374.812V303.617H377.523V297H379.344V305ZM388.977 305H386.672L383.562 301.102H383.531V305H381.711V297H383.531V300.68H383.562L386.5 297H388.719L385.391 300.812L388.977 305ZM396.258 305H394.5V303.75H394.469C393.917 304.708 393.107 305.188 392.039 305.188C391.253 305.188 390.635 304.974 390.188 304.547C389.745 304.12 389.523 303.555 389.523 302.852C389.523 301.341 390.393 300.461 392.133 300.211L394.508 299.875C394.508 298.734 393.966 298.164 392.883 298.164C391.93 298.164 391.07 298.492 390.305 299.148V297.562C391.148 297.062 392.122 296.812 393.227 296.812C395.247 296.812 396.258 297.807 396.258 299.797V305ZM394.508 301.07L392.828 301.305C392.307 301.372 391.914 301.5 391.648 301.688C391.388 301.87 391.258 302.193 391.258 302.656C391.258 302.995 391.378 303.273 391.617 303.492C391.862 303.706 392.188 303.812 392.594 303.812C393.146 303.812 393.602 303.62 393.961 303.234C394.326 302.844 394.508 302.354 394.508 301.766V301.07ZM403.969 305.141V308.734H402.297V305.141H402.031C400.812 305.141 399.826 304.766 399.07 304.016C398.32 303.266 397.945 302.284 397.945 301.07C397.945 299.794 398.326 298.773 399.086 298.008C399.846 297.242 400.852 296.859 402.102 296.859H402.297V293.586H403.969V296.859H404.148C405.409 296.859 406.419 297.24 407.18 298C407.94 298.76 408.32 299.784 408.32 301.07C408.32 302.284 407.945 303.266 407.195 304.016C406.451 304.766 405.471 305.141 404.258 305.141H403.969ZM403.969 298.234V303.773H404.117C404.831 303.773 405.401 303.529 405.828 303.039C406.255 302.549 406.469 301.885 406.469 301.047C406.469 300.167 406.258 299.479 405.836 298.984C405.419 298.484 404.859 298.234 404.156 298.234H403.969ZM402.297 303.773V298.234H402.133C401.43 298.234 400.865 298.484 400.438 298.984C400.01 299.484 399.797 300.172 399.797 301.047C399.797 301.875 400.01 302.536 400.438 303.031C400.865 303.526 401.438 303.773 402.156 303.773H402.297ZM414.148 293.578L412.883 297.055H411.68L412.547 293.578H414.148ZM411.383 293.578L410.109 297.055H408.914L409.797 293.578H411.383ZM420.508 305V297H424.328C425.188 297 425.867 297.174 426.367 297.523C426.867 297.872 427.117 298.349 427.117 298.953C427.117 299.974 426.594 300.594 425.547 300.812C426.792 300.969 427.414 301.583 427.414 302.656C427.414 303.318 427.151 303.875 426.625 304.328C426.099 304.776 425.445 305 424.664 305H420.508ZM422.32 298.281V300.273H423.922C424.828 300.273 425.281 299.922 425.281 299.219C425.281 298.594 424.885 298.281 424.094 298.281H422.32ZM422.32 301.531V303.711H424.18C425.107 303.711 425.57 303.336 425.57 302.586C425.57 301.883 425.068 301.531 424.062 301.531H422.32ZM440.688 297L437.078 306.281C436.328 307.938 435.276 308.766 433.922 308.766C433.542 308.766 433.224 308.732 432.969 308.664V307.156C433.255 307.25 433.516 307.297 433.75 307.297C434.427 307.297 434.932 306.964 435.266 306.297L435.805 304.984L432.625 297H434.633L436.539 302.812C436.56 302.885 436.607 303.078 436.68 303.391H436.719C436.745 303.271 436.792 303.083 436.859 302.828L438.859 297H440.688ZM449.023 305H447.203V298.383H443.719V305H441.898V297H449.023V305ZM453.227 303.82H453.195V308.68H451.383V297H453.195V298.406H453.227C453.846 297.344 454.753 296.812 455.945 296.812C456.961 296.812 457.753 297.169 458.32 297.883C458.888 298.596 459.172 299.555 459.172 300.758C459.172 302.091 458.852 303.159 458.211 303.961C457.57 304.763 456.695 305.164 455.586 305.164C454.565 305.164 453.779 304.716 453.227 303.82ZM453.18 300.664V301.656C453.18 302.24 453.365 302.734 453.734 303.141C454.109 303.547 454.583 303.75 455.156 303.75C455.828 303.75 456.354 303.49 456.734 302.969C457.12 302.443 457.312 301.711 457.312 300.773C457.312 299.987 457.133 299.372 456.773 298.93C456.419 298.482 455.938 298.258 455.328 298.258C454.682 298.258 454.161 298.487 453.766 298.945C453.375 299.404 453.18 299.977 453.18 300.664ZM466.977 305H465.219V303.75H465.188C464.635 304.708 463.826 305.188 462.758 305.188C461.971 305.188 461.354 304.974 460.906 304.547C460.464 304.12 460.242 303.555 460.242 302.852C460.242 301.341 461.112 300.461 462.852 300.211L465.227 299.875C465.227 298.734 464.685 298.164 463.602 298.164C462.648 298.164 461.789 298.492 461.023 299.148V297.562C461.867 297.062 462.841 296.812 463.945 296.812C465.966 296.812 466.977 297.807 466.977 299.797V305ZM465.227 301.07L463.547 301.305C463.026 301.372 462.633 301.5 462.367 301.688C462.107 301.87 461.977 302.193 461.977 302.656C461.977 302.995 462.096 303.273 462.336 303.492C462.581 303.706 462.906 303.812 463.312 303.812C463.865 303.812 464.32 303.62 464.68 303.234C465.044 302.844 465.227 302.354 465.227 301.766V301.07ZM469.195 305V297H473.016C473.875 297 474.555 297.174 475.055 297.523C475.555 297.872 475.805 298.349 475.805 298.953C475.805 299.974 475.281 300.594 474.234 300.812C475.479 300.969 476.102 301.583 476.102 302.656C476.102 303.318 475.839 303.875 475.312 304.328C474.786 304.776 474.133 305 473.352 305H469.195ZM471.008 298.281V300.273H472.609C473.516 300.273 473.969 299.922 473.969 299.219C473.969 298.594 473.573 298.281 472.781 298.281H471.008ZM471.008 301.531V303.711H472.867C473.794 303.711 474.258 303.336 474.258 302.586C474.258 301.883 473.755 301.531 472.75 301.531H471.008ZM484.656 305H482.836V298.383H481.203C480.974 300.857 480.581 302.596 480.023 303.602C479.471 304.602 478.727 305.102 477.789 305.102C477.477 305.102 477.208 305.057 476.984 304.969V303.617C477.167 303.706 477.362 303.75 477.57 303.75C478.69 303.75 479.409 301.5 479.727 297H484.656V305ZM493.797 301.492H488.344C488.365 302.232 488.591 302.802 489.023 303.203C489.461 303.604 490.06 303.805 490.82 303.805C491.674 303.805 492.458 303.549 493.172 303.039V304.5C492.443 304.958 491.479 305.188 490.281 305.188C489.104 305.188 488.18 304.826 487.508 304.102C486.841 303.372 486.508 302.349 486.508 301.031C486.508 299.786 486.875 298.773 487.609 297.992C488.349 297.206 489.266 296.812 490.359 296.812C491.453 296.812 492.299 297.164 492.898 297.867C493.497 298.57 493.797 299.547 493.797 300.797V301.492ZM492.047 300.211C492.042 299.56 491.888 299.055 491.586 298.695C491.284 298.331 490.867 298.148 490.336 298.148C489.815 298.148 489.372 298.339 489.008 298.719C488.648 299.099 488.427 299.596 488.344 300.211H492.047ZM502.648 305H500.828V301.5H497.344V305H495.523V297H497.344V300.141H500.828V297H502.648V305ZM512.273 305H510.633V299.133C510.529 299.341 510.37 299.63 510.156 300L506.789 305H505.008V297H506.672V302.75C506.729 302.615 506.852 302.38 507.039 302.047L510.453 297H512.273V305ZM521.422 301.492H515.969C515.99 302.232 516.216 302.802 516.648 303.203C517.086 303.604 517.685 303.805 518.445 303.805C519.299 303.805 520.083 303.549 520.797 303.039V304.5C520.068 304.958 519.104 305.188 517.906 305.188C516.729 305.188 515.805 304.826 515.133 304.102C514.466 303.372 514.133 302.349 514.133 301.031C514.133 299.786 514.5 298.773 515.234 297.992C515.974 297.206 516.891 296.812 517.984 296.812C519.078 296.812 519.924 297.164 520.523 297.867C521.122 298.57 521.422 299.547 521.422 300.797V301.492ZM519.672 300.211C519.667 299.56 519.513 299.055 519.211 298.695C518.909 298.331 518.492 298.148 517.961 298.148C517.44 298.148 516.997 298.339 516.633 298.719C516.273 299.099 516.052 299.596 515.969 300.211H519.672Z" fill="#225F67"/>
<rect x="257.447" y="321.493" width="334.24" height="36.962" rx="12" fill="#FAFAFA"/>
</g>
<defs>
<filter id="filter0_d_131_49" x="56" y="9" width="464" height="360" filterUnits="userSpaceOnUse" color-interpolation-filters="sRGB">
<feFlood flood-opacity="0" result="BackgroundImageFix"/>
<feColorMatrix in="SourceAlpha" type="matrix" values="0 0 0 0 0 0 0 0 0 0 0 0 0 0 0 0 0 0 127 0" result="hardAlpha"/>
<feOffset dx="3" dy="5"/>
<feGaussianBlur stdDeviation="22.5"/>
<feComposite in2="hardAlpha" operator="out"/>
<feColorMatrix type="matrix" values="0 0 0 0 0.082066 0 0 0 0 0.0905948 0 0 0 0 0.120833 0 0 0 0.1 0"/>
<feBlend mode="normal" in2="BackgroundImageFix" result="effect1_dropShadow_131_49"/>
<feBlend mode="normal" in="SourceGraphic" in2="effect1_dropShadow_131_49" result="shape"/>
</filter>
<filter id="filter1_d_131_49" x="210" y="221" width="434" height="187.557" filterUnits="userSpaceOnUse" color-interpolation-filters="sRGB">
<feFlood flood-opacity="0" result="BackgroundImageFix"/>
<feColorMatrix in="SourceAlpha" type="matrix" values="0 0 0 0 0 0 0 0 0 0 0 0 0 0 0 0 0 0 127 0" result="hardAlpha"/>
<feOffset dx="3" dy="5"/>
<feGaussianBlur stdDeviation="15"/>
<feComposite in2="hardAlpha" operator="out"/>
<feColorMatrix type="matrix" values="0 0 0 0 0.082066 0 0 0 0 0.0905948 0 0 0 0 0.120833 0 0 0 0.15 0"/>
<feBlend mode="normal" in2="BackgroundImageFix" result="effect1_dropShadow_131_49"/>
<feBlend mode="normal" in="SourceGraphic" in2="effect1_dropShadow_131_49" result="shape"/>
</filter>
<linearGradient id="paint0_linear_131_49" x1="-6.46423" y1="41.0637" x2="620.956" y2="516.739" gradientUnits="userSpaceOnUse">
<stop stop-color="#801DCD"/>
<stop offset="1" stop-color="#7997FF"/>
</linearGradient>
</defs>
</svg>
