<svg width="588" height="406" viewBox="0 0 588 406" fill="none" xmlns="http://www.w3.org/2000/svg">
<path d="M230.302 137.348C267.469 104.348 303.902 44.2479 152.302 67.8479C-37.1979 97.3479 -13.7941 322.441 79.3021 251.848C230.302 137.348 -95.6979 533.848 230.302 251.848C204.302 331.515 180.302 461.948 292.302 346.348C432.302 201.848 197.302 -170.652 388.302 154.348C579.302 479.348 276.802 324.348 479.802 393.848C682.802 463.348 332.802 -335.652 524.802 302.848" stroke="url(#paint0_linear_131_49)" stroke-width="15" stroke-linecap="round"/>
<g filter="url(#filter0_d_131_49)">
<rect x="42" y="40" width="374" height="270" rx="18" fill="#ECEDF5"/>
<path d="M68.3828 82V70.7969H71.9375C73.0208 70.7969 73.8776 71.0339 74.5078 71.5078C75.1432 71.9818 75.4609 72.599 75.4609 73.3594C75.4609 73.9948 75.2812 74.5469 74.9219 75.0156C74.5625 75.4844 74.0651 75.8177 73.4297 76.0156V76.0469C74.2005 76.1354 74.8151 76.4219 75.2734 76.9062C75.737 77.3854 75.9688 78.0104 75.9688 78.7812C75.9688 79.7396 75.5911 80.5156 74.8359 81.1094C74.0807 81.7031 73.1276 82 71.9766 82H68.3828ZM70.2344 72.2891V75.4766H71.4375C72.0833 75.4766 72.5885 75.3255 72.9531 75.0234C73.3229 74.7161 73.5078 74.2839 73.5078 73.7266C73.5078 72.7682 72.8672 72.2891 71.5859 72.2891H70.2344ZM70.2344 76.9688V80.5156H71.8203C72.513 80.5156 73.0469 80.3568 73.4219 80.0391C73.8021 79.7161 73.9922 79.2734 73.9922 78.7109C73.9922 77.5495 73.1875 76.9688 71.5781 76.9688H70.2344ZM89.5234 82H87.2188L84.1094 78.1016H84.0781V82H82.2578V74H84.0781V77.6797H84.1094L87.0469 74H89.2656L85.9375 77.8125L89.5234 82ZM96.8047 82H95.0469V80.75H95.0156C94.4635 81.7083 93.6536 82.1875 92.5859 82.1875C91.7995 82.1875 91.1823 81.974 90.7344 81.5469C90.2917 81.1198 90.0703 80.5547 90.0703 79.8516C90.0703 78.3411 90.9401 77.4609 92.6797 77.2109L95.0547 76.875C95.0547 75.7344 94.513 75.1641 93.4297 75.1641C92.4766 75.1641 91.6172 75.4922 90.8516 76.1484V74.5625C91.6953 74.0625 92.6693 73.8125 93.7734 73.8125C95.7943 73.8125 96.8047 74.8073 96.8047 76.7969V82ZM95.0547 78.0703L93.375 78.3047C92.8542 78.3724 92.4609 78.5 92.1953 78.6875C91.9349 78.8698 91.8047 79.1927 91.8047 79.6562C91.8047 79.9948 91.9245 80.2734 92.1641 80.4922C92.4089 80.7057 92.7344 80.8125 93.1406 80.8125C93.6927 80.8125 94.1484 80.6198 94.5078 80.2344C94.8724 79.8438 95.0547 79.3542 95.0547 78.7656V78.0703ZM106.289 82H103.984L100.875 78.1016H100.844V82H99.0234V74H100.844V77.6797H100.875L103.812 74H106.031L102.703 77.8125L106.289 82ZM114.695 82H113.055V76.1328C112.951 76.3411 112.792 76.6302 112.578 77L109.211 82H107.43V74H109.094V79.75C109.151 79.6146 109.273 79.3802 109.461 79.0469L112.875 74H114.695V82ZM123.844 78.4922H118.391C118.411 79.2318 118.638 79.8021 119.07 80.2031C119.508 80.6042 120.107 80.8047 120.867 80.8047C121.721 80.8047 122.505 80.5495 123.219 80.0391V81.5C122.49 81.9583 121.526 82.1875 120.328 82.1875C119.151 82.1875 118.227 81.8255 117.555 81.1016C116.888 80.3724 116.555 79.349 116.555 78.0312C116.555 76.7865 116.922 75.7734 117.656 74.9922C118.396 74.2057 119.312 73.8125 120.406 73.8125C121.5 73.8125 122.346 74.1641 122.945 74.8672C123.544 75.5703 123.844 76.5469 123.844 77.7969V78.4922ZM122.094 77.2109C122.089 76.5599 121.935 76.0547 121.633 75.6953C121.331 75.3307 120.914 75.1484 120.383 75.1484C119.862 75.1484 119.419 75.3385 119.055 75.7188C118.695 76.099 118.474 76.5964 118.391 77.2109H122.094ZM134.773 75.4453H131.797V82H129.977V74H134.773V75.4453ZM139.586 82.1875C138.352 82.1875 137.365 81.8151 136.625 81.0703C135.891 80.3203 135.523 79.3281 135.523 78.0938C135.523 76.75 135.906 75.7005 136.672 74.9453C137.443 74.1901 138.479 73.8125 139.781 73.8125C141.031 73.8125 142.005 74.1797 142.703 74.9141C143.401 75.6484 143.75 76.6667 143.75 77.9688C143.75 79.2448 143.372 80.2682 142.617 81.0391C141.867 81.8047 140.857 82.1875 139.586 82.1875ZM139.672 75.2578C138.964 75.2578 138.404 75.5052 137.992 76C137.581 76.4948 137.375 77.1771 137.375 78.0469C137.375 78.8854 137.583 79.5469 138 80.0312C138.417 80.5104 138.974 80.75 139.672 80.75C140.385 80.75 140.932 80.513 141.312 80.0391C141.698 79.5651 141.891 78.8906 141.891 78.0156C141.891 77.1354 141.698 76.4557 141.312 75.9766C140.932 75.4974 140.385 75.2578 139.672 75.2578ZM153.086 84.9141H151.578V82H145.883V84.9141H144.391V80.6172H145.102C146.378 78.7318 147.026 76.526 147.047 74H151.859V80.6172H153.086V84.9141ZM150.047 80.6172V75.375H148.523C148.398 77.3125 147.867 79.0599 146.93 80.6172H150.047ZM164.453 82H162.641V74H164.453V82ZM154.711 82V74H156.523V76.9531H158.711C159.539 76.9531 160.198 77.1719 160.688 77.6094C161.177 78.0417 161.422 78.6458 161.422 79.4219C161.422 80.2188 161.167 80.849 160.656 81.3125C160.151 81.7708 159.513 82 158.742 82H154.711ZM156.523 78.2578V80.6953H158.18C159.096 80.6953 159.555 80.276 159.555 79.4375C159.555 78.651 159.091 78.2578 158.164 78.2578H156.523ZM178.352 82H176.531V75.3828H173.047V82H171.227V74H178.352V82ZM182.555 80.8203H182.523V85.6797H180.711V74H182.523V75.4062H182.555C183.174 74.3438 184.081 73.8125 185.273 73.8125C186.289 73.8125 187.081 74.1693 187.648 74.8828C188.216 75.5964 188.5 76.5547 188.5 77.7578C188.5 79.0911 188.18 80.1589 187.539 80.9609C186.898 81.763 186.023 82.1641 184.914 82.1641C183.893 82.1641 183.107 81.7161 182.555 80.8203ZM182.508 77.6641V78.6562C182.508 79.2396 182.693 79.7344 183.062 80.1406C183.438 80.5469 183.911 80.75 184.484 80.75C185.156 80.75 185.682 80.4896 186.062 79.9688C186.448 79.4427 186.641 78.7109 186.641 77.7734C186.641 76.987 186.461 76.3724 186.102 75.9297C185.747 75.4818 185.266 75.2578 184.656 75.2578C184.01 75.2578 183.49 75.487 183.094 75.9453C182.703 76.4036 182.508 76.9766 182.508 77.6641ZM196.305 82H194.547V80.75H194.516C193.964 81.7083 193.154 82.1875 192.086 82.1875C191.299 82.1875 190.682 81.974 190.234 81.5469C189.792 81.1198 189.57 80.5547 189.57 79.8516C189.57 78.3411 190.44 77.4609 192.18 77.2109L194.555 76.875C194.555 75.7344 194.013 75.1641 192.93 75.1641C191.977 75.1641 191.117 75.4922 190.352 76.1484V74.5625C191.195 74.0625 192.169 73.8125 193.273 73.8125C195.294 73.8125 196.305 74.8073 196.305 76.7969V82ZM194.555 78.0703L192.875 78.3047C192.354 78.3724 191.961 78.5 191.695 78.6875C191.435 78.8698 191.305 79.1927 191.305 79.6562C191.305 79.9948 191.424 80.2734 191.664 80.4922C191.909 80.7057 192.234 80.8125 192.641 80.8125C193.193 80.8125 193.648 80.6198 194.008 80.2344C194.372 79.8438 194.555 79.3542 194.555 78.7656V78.0703ZM198.523 82V74H202.344C203.203 74 203.883 74.1745 204.383 74.5234C204.883 74.8724 205.133 75.349 205.133 75.9531C205.133 76.974 204.609 77.5938 203.562 77.8125C204.807 77.9688 205.43 78.5833 205.43 79.6562C205.43 80.3177 205.167 80.875 204.641 81.3281C204.115 81.776 203.461 82 202.68 82H198.523ZM200.336 75.2812V77.2734H201.938C202.844 77.2734 203.297 76.9219 203.297 76.2188C203.297 75.5938 202.901 75.2812 202.109 75.2812H200.336ZM200.336 78.5312V80.7109H202.195C203.122 80.7109 203.586 80.3359 203.586 79.5859C203.586 78.8828 203.083 78.5312 202.078 78.5312H200.336ZM214.633 82H212.992V76.1328C212.888 76.3411 212.729 76.6302 212.516 77L209.148 82H207.367V74H209.031V79.75C209.089 79.6146 209.211 79.3802 209.398 79.0469L212.812 74H214.633V82ZM223.625 82H221.805V75.3828H220.172C219.943 77.8568 219.549 79.5964 218.992 80.6016C218.44 81.6016 217.695 82.1016 216.758 82.1016C216.445 82.1016 216.177 82.0573 215.953 81.9688V80.6172C216.135 80.7057 216.331 80.75 216.539 80.75C217.659 80.75 218.378 78.5 218.695 74H223.625V82ZM232.133 82H230.375V80.75H230.344C229.792 81.7083 228.982 82.1875 227.914 82.1875C227.128 82.1875 226.51 81.974 226.062 81.5469C225.62 81.1198 225.398 80.5547 225.398 79.8516C225.398 78.3411 226.268 77.4609 228.008 77.2109L230.383 76.875C230.383 75.7344 229.841 75.1641 228.758 75.1641C227.805 75.1641 226.945 75.4922 226.18 76.1484V74.5625C227.023 74.0625 227.997 73.8125 229.102 73.8125C231.122 73.8125 232.133 74.8073 232.133 76.7969V82ZM230.383 78.0703L228.703 78.3047C228.182 78.3724 227.789 78.5 227.523 78.6875C227.263 78.8698 227.133 79.1927 227.133 79.6562C227.133 79.9948 227.253 80.2734 227.492 80.4922C227.737 80.7057 228.062 80.8125 228.469 80.8125C229.021 80.8125 229.477 80.6198 229.836 80.2344C230.201 79.8438 230.383 79.3542 230.383 78.7656V78.0703ZM245.25 82H238.961V70.7969H245V72.375H240.82V75.5469H244.672V77.1172H240.82V80.4297H245.25V82ZM254.305 82H252L248.891 78.1016H248.859V82H247.039V74H248.859V77.6797H248.891L251.828 74H254.047L250.719 77.8125L254.305 82ZM261.586 82H259.828V80.75H259.797C259.245 81.7083 258.435 82.1875 257.367 82.1875C256.581 82.1875 255.964 81.974 255.516 81.5469C255.073 81.1198 254.852 80.5547 254.852 79.8516C254.852 78.3411 255.721 77.4609 257.461 77.2109L259.836 76.875C259.836 75.7344 259.294 75.1641 258.211 75.1641C257.258 75.1641 256.398 75.4922 255.633 76.1484V74.5625C256.477 74.0625 257.451 73.8125 258.555 73.8125C260.576 73.8125 261.586 74.8073 261.586 76.7969V82ZM259.836 78.0703L258.156 78.3047C257.635 78.3724 257.242 78.5 256.977 78.6875C256.716 78.8698 256.586 79.1927 256.586 79.6562C256.586 79.9948 256.706 80.2734 256.945 80.4922C257.19 80.7057 257.516 80.8125 257.922 80.8125C258.474 80.8125 258.93 80.6198 259.289 80.2344C259.654 79.8438 259.836 79.3542 259.836 78.7656V78.0703ZM269.258 75.4453H266.977V82H265.156V75.4453H262.859V74H269.258V75.4453ZM277.203 78.4922H271.75C271.771 79.2318 271.997 79.8021 272.43 80.2031C272.867 80.6042 273.466 80.8047 274.227 80.8047C275.081 80.8047 275.865 80.5495 276.578 80.0391V81.5C275.849 81.9583 274.885 82.1875 273.688 82.1875C272.51 82.1875 271.586 81.8255 270.914 81.1016C270.247 80.3724 269.914 79.349 269.914 78.0312C269.914 76.7865 270.281 75.7734 271.016 74.9922C271.755 74.2057 272.672 73.8125 273.766 73.8125C274.859 73.8125 275.706 74.1641 276.305 74.8672C276.904 75.5703 277.203 76.5469 277.203 77.7969V78.4922ZM275.453 77.2109C275.448 76.5599 275.294 76.0547 274.992 75.6953C274.69 75.3307 274.273 75.1484 273.742 75.1484C273.221 75.1484 272.779 75.3385 272.414 75.7188C272.055 76.099 271.833 76.5964 271.75 77.2109H275.453ZM280.773 80.8203H280.742V85.6797H278.93V74H280.742V75.4062H280.773C281.393 74.3438 282.299 73.8125 283.492 73.8125C284.508 73.8125 285.299 74.1693 285.867 74.8828C286.435 75.5964 286.719 76.5547 286.719 77.7578C286.719 79.0911 286.398 80.1589 285.758 80.9609C285.117 81.763 284.242 82.1641 283.133 82.1641C282.112 82.1641 281.326 81.7161 280.773 80.8203ZM280.727 77.6641V78.6562C280.727 79.2396 280.911 79.7344 281.281 80.1406C281.656 80.5469 282.13 80.75 282.703 80.75C283.375 80.75 283.901 80.4896 284.281 79.9688C284.667 79.4427 284.859 78.7109 284.859 77.7734C284.859 76.987 284.68 76.3724 284.32 75.9297C283.966 75.4818 283.484 75.2578 282.875 75.2578C282.229 75.2578 281.708 75.487 281.312 75.9453C280.922 76.4036 280.727 76.9766 280.727 77.6641ZM295.836 82H294.195V76.1328C294.091 76.3411 293.932 76.6302 293.719 77L290.352 82H288.57V74H290.234V79.75C290.292 79.6146 290.414 79.3802 290.602 79.0469L294.016 74H295.836V82ZM305.336 82H303.516V78.5H300.031V82H298.211V74H300.031V77.1406H303.516V74H305.336V82ZM313.836 82H312.078V80.75H312.047C311.495 81.7083 310.685 82.1875 309.617 82.1875C308.831 82.1875 308.214 81.974 307.766 81.5469C307.323 81.1198 307.102 80.5547 307.102 79.8516C307.102 78.3411 307.971 77.4609 309.711 77.2109L312.086 76.875C312.086 75.7344 311.544 75.1641 310.461 75.1641C309.508 75.1641 308.648 75.4922 307.883 76.1484V74.5625C308.727 74.0625 309.701 73.8125 310.805 73.8125C312.826 73.8125 313.836 74.8073 313.836 76.7969V82ZM312.086 78.0703L310.406 78.3047C309.885 78.3724 309.492 78.5 309.227 78.6875C308.966 78.8698 308.836 79.1927 308.836 79.6562C308.836 79.9948 308.956 80.2734 309.195 80.4922C309.44 80.7057 309.766 80.8125 310.172 80.8125C310.724 80.8125 311.18 80.6198 311.539 80.2344C311.904 79.8438 312.086 79.3542 312.086 78.7656V78.0703ZM322.57 82H320.656V70.7969H322.57V82ZM326.32 78.8359C326.273 78.7057 326.232 78.5365 326.195 78.3281C326.159 78.1198 326.141 77.9141 326.141 77.7109C326.141 77.3932 326.203 77.1068 326.328 76.8516C326.458 76.5911 326.617 76.349 326.805 76.125C326.997 75.901 327.203 75.6849 327.422 75.4766C327.646 75.2682 327.852 75.0651 328.039 74.8672C328.232 74.6693 328.391 74.4609 328.516 74.2422C328.646 74.0234 328.711 73.7839 328.711 73.5234C328.711 73.2891 328.664 73.0859 328.57 72.9141C328.477 72.737 328.346 72.5911 328.18 72.4766C328.018 72.3568 327.831 72.2682 327.617 72.2109C327.409 72.1536 327.185 72.125 326.945 72.125C326.169 72.125 325.43 72.4714 324.727 73.1641V71.3594C325.581 70.8594 326.466 70.6094 327.383 70.6094C327.805 70.6094 328.203 70.6641 328.578 70.7734C328.953 70.8828 329.281 71.0443 329.562 71.2578C329.844 71.4714 330.065 71.737 330.227 72.0547C330.388 72.3724 330.469 72.7422 330.469 73.1641C330.469 73.5651 330.401 73.9219 330.266 74.2344C330.13 74.5469 329.958 74.8359 329.75 75.1016C329.547 75.362 329.326 75.5938 329.086 75.7969C328.852 76 328.63 76.2031 328.422 76.4062C328.219 76.6094 328.049 76.8203 327.914 77.0391C327.779 77.2578 327.711 77.5 327.711 77.7656C327.711 77.9896 327.74 78.1927 327.797 78.375C327.854 78.5573 327.911 78.7109 327.969 78.8359H326.32ZM327.211 82.1406C326.914 82.1406 326.651 82.0391 326.422 81.8359C326.203 81.638 326.094 81.3932 326.094 81.1016C326.094 80.8047 326.203 80.5599 326.422 80.3672C326.646 80.1589 326.909 80.0547 327.211 80.0547C327.508 80.0547 327.768 80.1589 327.992 80.3672C328.211 80.5599 328.32 80.8047 328.32 81.1016C328.32 81.3932 328.211 81.638 327.992 81.8359C327.763 82.0391 327.503 82.1406 327.211 82.1406Z" fill="#225F67"/>
<rect x="67" y="99" width="324" height="36" rx="8" fill="#DDE4FC"/>
<path d="M82.8047 111.547V123H80.9922V113.766C80.6641 114 80.3099 114.201 79.9297 114.367C79.5547 114.529 79.125 114.672 78.6406 114.797V113.25C78.9427 113.151 79.2344 113.047 79.5156 112.938C79.7969 112.828 80.0729 112.706 80.3438 112.57C80.6198 112.435 80.8958 112.284 81.1719 112.117C81.4531 111.951 81.7422 111.76 82.0391 111.547H82.8047ZM92.4688 112.703C92 113.562 91.5573 114.414 91.1406 115.258C90.724 116.096 90.3464 116.94 90.0078 117.789C89.6693 118.638 89.375 119.495 89.125 120.359C88.875 121.219 88.6823 122.099 88.5469 123H86.6484C86.7734 122.198 86.9505 121.398 87.1797 120.602C87.4141 119.799 87.6875 119 88 118.203C88.3125 117.401 88.6615 116.596 89.0469 115.789C89.4375 114.982 89.8516 114.167 90.2891 113.344H84.9844V111.797H92.4688V112.703ZM100.812 123H93.7812V122.133C93.7812 121.779 93.8307 121.448 93.9297 121.141C94.0286 120.828 94.1615 120.536 94.3281 120.266C94.4948 119.99 94.6901 119.732 94.9141 119.492C95.138 119.247 95.3776 119.013 95.6328 118.789C95.888 118.56 96.1484 118.341 96.4141 118.133C96.6797 117.919 96.9401 117.706 97.1953 117.492C97.4349 117.289 97.6536 117.091 97.8516 116.898C98.0495 116.701 98.2188 116.497 98.3594 116.289C98.5 116.081 98.6094 115.862 98.6875 115.633C98.7656 115.398 98.8047 115.146 98.8047 114.875C98.8047 114.578 98.7578 114.32 98.6641 114.102C98.5755 113.878 98.4479 113.693 98.2812 113.547C98.1198 113.396 97.9271 113.284 97.7031 113.211C97.4792 113.133 97.2344 113.094 96.9688 113.094C96.5104 113.094 96.0443 113.201 95.5703 113.414C95.0964 113.628 94.6406 113.948 94.2031 114.375V112.633C94.4323 112.461 94.6641 112.312 94.8984 112.188C95.1328 112.057 95.375 111.951 95.625 111.867C95.875 111.779 96.138 111.714 96.4141 111.672C96.6901 111.63 96.9844 111.609 97.2969 111.609C97.8021 111.609 98.2604 111.677 98.6719 111.812C99.0833 111.943 99.4349 112.138 99.7266 112.398C100.018 112.654 100.242 112.974 100.398 113.359C100.56 113.745 100.641 114.188 100.641 114.688C100.641 115.141 100.583 115.549 100.469 115.914C100.359 116.273 100.201 116.609 99.9922 116.922C99.7891 117.234 99.5417 117.531 99.25 117.812C98.9583 118.094 98.6328 118.383 98.2734 118.68C97.9714 118.924 97.6693 119.164 97.3672 119.398C97.0703 119.628 96.8021 119.854 96.5625 120.078C96.3229 120.297 96.1276 120.518 95.9766 120.742C95.8307 120.961 95.7578 121.182 95.7578 121.406V121.445H100.812V123ZM103.117 122.742V121C103.852 121.495 104.596 121.742 105.352 121.742C106.112 121.742 106.724 121.549 107.188 121.164C107.651 120.773 107.883 120.255 107.883 119.609C107.883 118.974 107.646 118.479 107.172 118.125C106.703 117.771 106.029 117.594 105.148 117.594C104.846 117.594 104.234 117.625 103.312 117.688L103.711 111.797H109.227V113.344H105.219L105.031 116.148C105.391 116.128 105.716 116.117 106.008 116.117C107.195 116.117 108.112 116.422 108.758 117.031C109.409 117.641 109.734 118.474 109.734 119.531C109.734 120.641 109.362 121.531 108.617 122.203C107.878 122.87 106.859 123.203 105.562 123.203C104.469 123.203 103.654 123.049 103.117 122.742ZM116.188 119.297H111.922V117.961H116.188V119.297ZM122.039 111.547V123H120.227V113.766C119.898 114 119.544 114.201 119.164 114.367C118.789 114.529 118.359 114.672 117.875 114.797V113.25C118.177 113.151 118.469 113.047 118.75 112.938C119.031 112.828 119.307 112.706 119.578 112.57C119.854 112.435 120.13 112.284 120.406 112.117C120.688 111.951 120.977 111.76 121.273 111.547H122.039ZM131.703 112.703C131.234 113.562 130.792 114.414 130.375 115.258C129.958 116.096 129.581 116.94 129.242 117.789C128.904 118.638 128.609 119.495 128.359 120.359C128.109 121.219 127.917 122.099 127.781 123H125.883C126.008 122.198 126.185 121.398 126.414 120.602C126.648 119.799 126.922 119 127.234 118.203C127.547 117.401 127.896 116.596 128.281 115.789C128.672 114.982 129.086 114.167 129.523 113.344H124.219V111.797H131.703V112.703ZM140.047 123H133.016V122.133C133.016 121.779 133.065 121.448 133.164 121.141C133.263 120.828 133.396 120.536 133.562 120.266C133.729 119.99 133.924 119.732 134.148 119.492C134.372 119.247 134.612 119.013 134.867 118.789C135.122 118.56 135.383 118.341 135.648 118.133C135.914 117.919 136.174 117.706 136.43 117.492C136.669 117.289 136.888 117.091 137.086 116.898C137.284 116.701 137.453 116.497 137.594 116.289C137.734 116.081 137.844 115.862 137.922 115.633C138 115.398 138.039 115.146 138.039 114.875C138.039 114.578 137.992 114.32 137.898 114.102C137.81 113.878 137.682 113.693 137.516 113.547C137.354 113.396 137.161 113.284 136.938 113.211C136.714 113.133 136.469 113.094 136.203 113.094C135.745 113.094 135.279 113.201 134.805 113.414C134.331 113.628 133.875 113.948 133.438 114.375V112.633C133.667 112.461 133.898 112.312 134.133 112.188C134.367 112.057 134.609 111.951 134.859 111.867C135.109 111.779 135.372 111.714 135.648 111.672C135.924 111.63 136.219 111.609 136.531 111.609C137.036 111.609 137.495 111.677 137.906 111.812C138.318 111.943 138.669 112.138 138.961 112.398C139.253 112.654 139.477 112.974 139.633 113.359C139.794 113.745 139.875 114.188 139.875 114.688C139.875 115.141 139.818 115.549 139.703 115.914C139.594 116.273 139.435 116.609 139.227 116.922C139.023 117.234 138.776 117.531 138.484 117.812C138.193 118.094 137.867 118.383 137.508 118.68C137.206 118.924 136.904 119.164 136.602 119.398C136.305 119.628 136.036 119.854 135.797 120.078C135.557 120.297 135.362 120.518 135.211 120.742C135.065 120.961 134.992 121.182 134.992 121.406V121.445H140.047V123ZM149.172 112.703C148.703 113.562 148.26 114.414 147.844 115.258C147.427 116.096 147.049 116.94 146.711 117.789C146.372 118.638 146.078 119.495 145.828 120.359C145.578 121.219 145.385 122.099 145.25 123H143.352C143.477 122.198 143.654 121.398 143.883 120.602C144.117 119.799 144.391 119 144.703 118.203C145.016 117.401 145.365 116.596 145.75 115.789C146.141 114.982 146.555 114.167 146.992 113.344H141.688V111.797H149.172V112.703Z" fill="black"/>
<rect x="67" y="150" width="324" height="36" rx="8" fill="#F3F3F3"/>
<rect x="67" y="201" width="324" height="36" rx="8" fill="#F3F3F3"/>
<rect x="67" y="252" width="324" height="36" rx="8" fill="#F3F3F3"/>
<path d="M82.8047 162.547V174H80.9922V164.766C80.6641 165 80.3099 165.201 79.9297 165.367C79.5547 165.529 79.125 165.672 78.6406 165.797V164.25C78.9427 164.151 79.2344 164.047 79.5156 163.938C79.7969 163.828 80.0729 163.706 80.3438 163.57C80.6198 163.435 80.8958 163.284 81.1719 163.117C81.4531 162.951 81.7422 162.76 82.0391 162.547H82.8047ZM92.4688 163.703C92 164.562 91.5573 165.414 91.1406 166.258C90.724 167.096 90.3464 167.94 90.0078 168.789C89.6693 169.638 89.375 170.495 89.125 171.359C88.875 172.219 88.6823 173.099 88.5469 174H86.6484C86.7734 173.198 86.9505 172.398 87.1797 171.602C87.4141 170.799 87.6875 170 88 169.203C88.3125 168.401 88.6615 167.596 89.0469 166.789C89.4375 165.982 89.8516 165.167 90.2891 164.344H84.9844V162.797H92.4688V163.703ZM100.812 174H93.7812V173.133C93.7812 172.779 93.8307 172.448 93.9297 172.141C94.0286 171.828 94.1615 171.536 94.3281 171.266C94.4948 170.99 94.6901 170.732 94.9141 170.492C95.138 170.247 95.3776 170.013 95.6328 169.789C95.888 169.56 96.1484 169.341 96.4141 169.133C96.6797 168.919 96.9401 168.706 97.1953 168.492C97.4349 168.289 97.6536 168.091 97.8516 167.898C98.0495 167.701 98.2188 167.497 98.3594 167.289C98.5 167.081 98.6094 166.862 98.6875 166.633C98.7656 166.398 98.8047 166.146 98.8047 165.875C98.8047 165.578 98.7578 165.32 98.6641 165.102C98.5755 164.878 98.4479 164.693 98.2812 164.547C98.1198 164.396 97.9271 164.284 97.7031 164.211C97.4792 164.133 97.2344 164.094 96.9688 164.094C96.5104 164.094 96.0443 164.201 95.5703 164.414C95.0964 164.628 94.6406 164.948 94.2031 165.375V163.633C94.4323 163.461 94.6641 163.312 94.8984 163.188C95.1328 163.057 95.375 162.951 95.625 162.867C95.875 162.779 96.138 162.714 96.4141 162.672C96.6901 162.63 96.9844 162.609 97.2969 162.609C97.8021 162.609 98.2604 162.677 98.6719 162.812C99.0833 162.943 99.4349 163.138 99.7266 163.398C100.018 163.654 100.242 163.974 100.398 164.359C100.56 164.745 100.641 165.188 100.641 165.688C100.641 166.141 100.583 166.549 100.469 166.914C100.359 167.273 100.201 167.609 99.9922 167.922C99.7891 168.234 99.5417 168.531 99.25 168.812C98.9583 169.094 98.6328 169.383 98.2734 169.68C97.9714 169.924 97.6693 170.164 97.3672 170.398C97.0703 170.628 96.8021 170.854 96.5625 171.078C96.3229 171.297 96.1276 171.518 95.9766 171.742C95.8307 171.961 95.7578 172.182 95.7578 172.406V172.445H100.812V174ZM109.703 174H102.672V173.133C102.672 172.779 102.721 172.448 102.82 172.141C102.919 171.828 103.052 171.536 103.219 171.266C103.385 170.99 103.581 170.732 103.805 170.492C104.029 170.247 104.268 170.013 104.523 169.789C104.779 169.56 105.039 169.341 105.305 169.133C105.57 168.919 105.831 168.706 106.086 168.492C106.326 168.289 106.544 168.091 106.742 167.898C106.94 167.701 107.109 167.497 107.25 167.289C107.391 167.081 107.5 166.862 107.578 166.633C107.656 166.398 107.695 166.146 107.695 165.875C107.695 165.578 107.648 165.32 107.555 165.102C107.466 164.878 107.339 164.693 107.172 164.547C107.01 164.396 106.818 164.284 106.594 164.211C106.37 164.133 106.125 164.094 105.859 164.094C105.401 164.094 104.935 164.201 104.461 164.414C103.987 164.628 103.531 164.948 103.094 165.375V163.633C103.323 163.461 103.555 163.312 103.789 163.188C104.023 163.057 104.266 162.951 104.516 162.867C104.766 162.779 105.029 162.714 105.305 162.672C105.581 162.63 105.875 162.609 106.188 162.609C106.693 162.609 107.151 162.677 107.562 162.812C107.974 162.943 108.326 163.138 108.617 163.398C108.909 163.654 109.133 163.974 109.289 164.359C109.451 164.745 109.531 165.188 109.531 165.688C109.531 166.141 109.474 166.549 109.359 166.914C109.25 167.273 109.091 167.609 108.883 167.922C108.68 168.234 108.432 168.531 108.141 168.812C107.849 169.094 107.523 169.383 107.164 169.68C106.862 169.924 106.56 170.164 106.258 170.398C105.961 170.628 105.693 170.854 105.453 171.078C105.214 171.297 105.018 171.518 104.867 171.742C104.721 171.961 104.648 172.182 104.648 172.406V172.445H109.703V174ZM116.188 170.297H111.922V168.961H116.188V170.297ZM122.039 162.547V174H120.227V164.766C119.898 165 119.544 165.201 119.164 165.367C118.789 165.529 118.359 165.672 117.875 165.797V164.25C118.177 164.151 118.469 164.047 118.75 163.938C119.031 163.828 119.307 163.706 119.578 163.57C119.854 163.435 120.13 163.284 120.406 163.117C120.688 162.951 120.977 162.76 121.273 162.547H122.039ZM131.703 163.703C131.234 164.562 130.792 165.414 130.375 166.258C129.958 167.096 129.581 167.94 129.242 168.789C128.904 169.638 128.609 170.495 128.359 171.359C128.109 172.219 127.917 173.099 127.781 174H125.883C126.008 173.198 126.185 172.398 126.414 171.602C126.648 170.799 126.922 170 127.234 169.203C127.547 168.401 127.896 167.596 128.281 166.789C128.672 165.982 129.086 165.167 129.523 164.344H124.219V162.797H131.703V163.703ZM140.047 174H133.016V173.133C133.016 172.779 133.065 172.448 133.164 172.141C133.263 171.828 133.396 171.536 133.562 171.266C133.729 170.99 133.924 170.732 134.148 170.492C134.372 170.247 134.612 170.013 134.867 169.789C135.122 169.56 135.383 169.341 135.648 169.133C135.914 168.919 136.174 168.706 136.43 168.492C136.669 168.289 136.888 168.091 137.086 167.898C137.284 167.701 137.453 167.497 137.594 167.289C137.734 167.081 137.844 166.862 137.922 166.633C138 166.398 138.039 166.146 138.039 165.875C138.039 165.578 137.992 165.32 137.898 165.102C137.81 164.878 137.682 164.693 137.516 164.547C137.354 164.396 137.161 164.284 136.938 164.211C136.714 164.133 136.469 164.094 136.203 164.094C135.745 164.094 135.279 164.201 134.805 164.414C134.331 164.628 133.875 164.948 133.438 165.375V163.633C133.667 163.461 133.898 163.312 134.133 163.188C134.367 163.057 134.609 162.951 134.859 162.867C135.109 162.779 135.372 162.714 135.648 162.672C135.924 162.63 136.219 162.609 136.531 162.609C137.036 162.609 137.495 162.677 137.906 162.812C138.318 162.943 138.669 163.138 138.961 163.398C139.253 163.654 139.477 163.974 139.633 164.359C139.794 164.745 139.875 165.188 139.875 165.688C139.875 166.141 139.818 166.549 139.703 166.914C139.594 167.273 139.435 167.609 139.227 167.922C139.023 168.234 138.776 168.531 138.484 168.812C138.193 169.094 137.867 169.383 137.508 169.68C137.206 169.924 136.904 170.164 136.602 170.398C136.305 170.628 136.036 170.854 135.797 171.078C135.557 171.297 135.362 171.518 135.211 171.742C135.065 171.961 134.992 172.182 134.992 172.406V172.445H140.047V174ZM142.352 173.742V172C143.086 172.495 143.831 172.742 144.586 172.742C145.346 172.742 145.958 172.549 146.422 172.164C146.885 171.773 147.117 171.255 147.117 170.609C147.117 169.974 146.88 169.479 146.406 169.125C145.938 168.771 145.263 168.594 144.383 168.594C144.081 168.594 143.469 168.625 142.547 168.688L142.945 162.797H148.461V164.344H144.453L144.266 167.148C144.625 167.128 144.951 167.117 145.242 167.117C146.43 167.117 147.346 167.422 147.992 168.031C148.643 168.641 148.969 169.474 148.969 170.531C148.969 171.641 148.596 172.531 147.852 173.203C147.112 173.87 146.094 174.203 144.797 174.203C143.703 174.203 142.888 174.049 142.352 173.742Z" fill="black"/>
<path d="M82.8047 213.547V225H80.9922V215.766C80.6641 216 80.3099 216.201 79.9297 216.367C79.5547 216.529 79.125 216.672 78.6406 216.797V215.25C78.9427 215.151 79.2344 215.047 79.5156 214.938C79.7969 214.828 80.0729 214.706 80.3438 214.57C80.6198 214.435 80.8958 214.284 81.1719 214.117C81.4531 213.951 81.7422 213.76 82.0391 213.547H82.8047ZM92.4688 214.703C92 215.562 91.5573 216.414 91.1406 217.258C90.724 218.096 90.3464 218.94 90.0078 219.789C89.6693 220.638 89.375 221.495 89.125 222.359C88.875 223.219 88.6823 224.099 88.5469 225H86.6484C86.7734 224.198 86.9505 223.398 87.1797 222.602C87.4141 221.799 87.6875 221 88 220.203C88.3125 219.401 88.6615 218.596 89.0469 217.789C89.4375 216.982 89.8516 216.167 90.2891 215.344H84.9844V213.797H92.4688V214.703ZM100.812 225H93.7812V224.133C93.7812 223.779 93.8307 223.448 93.9297 223.141C94.0286 222.828 94.1615 222.536 94.3281 222.266C94.4948 221.99 94.6901 221.732 94.9141 221.492C95.138 221.247 95.3776 221.013 95.6328 220.789C95.888 220.56 96.1484 220.341 96.4141 220.133C96.6797 219.919 96.9401 219.706 97.1953 219.492C97.4349 219.289 97.6536 219.091 97.8516 218.898C98.0495 218.701 98.2188 218.497 98.3594 218.289C98.5 218.081 98.6094 217.862 98.6875 217.633C98.7656 217.398 98.8047 217.146 98.8047 216.875C98.8047 216.578 98.7578 216.32 98.6641 216.102C98.5755 215.878 98.4479 215.693 98.2812 215.547C98.1198 215.396 97.9271 215.284 97.7031 215.211C97.4792 215.133 97.2344 215.094 96.9688 215.094C96.5104 215.094 96.0443 215.201 95.5703 215.414C95.0964 215.628 94.6406 215.948 94.2031 216.375V214.633C94.4323 214.461 94.6641 214.312 94.8984 214.188C95.1328 214.057 95.375 213.951 95.625 213.867C95.875 213.779 96.138 213.714 96.4141 213.672C96.6901 213.63 96.9844 213.609 97.2969 213.609C97.8021 213.609 98.2604 213.677 98.6719 213.812C99.0833 213.943 99.4349 214.138 99.7266 214.398C100.018 214.654 100.242 214.974 100.398 215.359C100.56 215.745 100.641 216.188 100.641 216.688C100.641 217.141 100.583 217.549 100.469 217.914C100.359 218.273 100.201 218.609 99.9922 218.922C99.7891 219.234 99.5417 219.531 99.25 219.812C98.9583 220.094 98.6328 220.383 98.2734 220.68C97.9714 220.924 97.6693 221.164 97.3672 221.398C97.0703 221.628 96.8021 221.854 96.5625 222.078C96.3229 222.297 96.1276 222.518 95.9766 222.742C95.8307 222.961 95.7578 223.182 95.7578 223.406V223.445H100.812V225ZM110.227 221.398C110.227 221.961 110.133 222.474 109.945 222.938C109.763 223.401 109.508 223.802 109.18 224.141C108.852 224.474 108.461 224.734 108.008 224.922C107.56 225.104 107.073 225.195 106.547 225.195C105.984 225.195 105.466 225.086 104.992 224.867C104.523 224.648 104.117 224.323 103.773 223.891C103.435 223.458 103.172 222.922 102.984 222.281C102.797 221.635 102.703 220.888 102.703 220.039C102.703 219.003 102.826 218.083 103.07 217.281C103.32 216.479 103.661 215.807 104.094 215.266C104.526 214.724 105.034 214.312 105.617 214.031C106.201 213.75 106.831 213.609 107.508 213.609C107.93 213.609 108.312 213.638 108.656 213.695C109.005 213.753 109.284 213.831 109.492 213.93V215.562C109.227 215.427 108.943 215.312 108.641 215.219C108.339 215.125 107.992 215.078 107.602 215.078C107.164 215.078 106.76 215.167 106.391 215.344C106.021 215.521 105.701 215.781 105.43 216.125C105.164 216.464 104.953 216.885 104.797 217.391C104.646 217.891 104.568 218.469 104.562 219.125H104.609C104.849 218.755 105.172 218.464 105.578 218.25C105.99 218.036 106.471 217.93 107.023 217.93C107.513 217.93 107.953 218.01 108.344 218.172C108.74 218.328 109.076 218.557 109.352 218.859C109.633 219.156 109.849 219.521 110 219.953C110.151 220.38 110.227 220.862 110.227 221.398ZM108.398 221.547C108.398 221.224 108.359 220.93 108.281 220.664C108.208 220.398 108.094 220.172 107.938 219.984C107.786 219.792 107.594 219.643 107.359 219.539C107.13 219.435 106.859 219.383 106.547 219.383C106.234 219.383 105.958 219.44 105.719 219.555C105.484 219.664 105.286 219.81 105.125 219.992C104.964 220.174 104.841 220.383 104.758 220.617C104.68 220.852 104.641 221.091 104.641 221.336C104.641 221.602 104.677 221.875 104.75 222.156C104.828 222.432 104.945 222.685 105.102 222.914C105.258 223.143 105.456 223.333 105.695 223.484C105.94 223.63 106.229 223.703 106.562 223.703C106.859 223.703 107.122 223.648 107.352 223.539C107.581 223.43 107.771 223.279 107.922 223.086C108.078 222.893 108.195 222.667 108.273 222.406C108.357 222.141 108.398 221.854 108.398 221.547ZM116.234 221.297H111.969V219.961H116.234V221.297ZM122.086 213.547V225H120.273V215.766C119.945 216 119.591 216.201 119.211 216.367C118.836 216.529 118.406 216.672 117.922 216.797V215.25C118.224 215.151 118.516 215.047 118.797 214.938C119.078 214.828 119.354 214.706 119.625 214.57C119.901 214.435 120.177 214.284 120.453 214.117C120.734 213.951 121.023 213.76 121.32 213.547H122.086ZM131.75 214.703C131.281 215.562 130.839 216.414 130.422 217.258C130.005 218.096 129.628 218.94 129.289 219.789C128.951 220.638 128.656 221.495 128.406 222.359C128.156 223.219 127.964 224.099 127.828 225H125.93C126.055 224.198 126.232 223.398 126.461 222.602C126.695 221.799 126.969 221 127.281 220.203C127.594 219.401 127.943 218.596 128.328 217.789C128.719 216.982 129.133 216.167 129.57 215.344H124.266V213.797H131.75V214.703ZM140.094 225H133.062V224.133C133.062 223.779 133.112 223.448 133.211 223.141C133.31 222.828 133.443 222.536 133.609 222.266C133.776 221.99 133.971 221.732 134.195 221.492C134.419 221.247 134.659 221.013 134.914 220.789C135.169 220.56 135.43 220.341 135.695 220.133C135.961 219.919 136.221 219.706 136.477 219.492C136.716 219.289 136.935 219.091 137.133 218.898C137.331 218.701 137.5 218.497 137.641 218.289C137.781 218.081 137.891 217.862 137.969 217.633C138.047 217.398 138.086 217.146 138.086 216.875C138.086 216.578 138.039 216.32 137.945 216.102C137.857 215.878 137.729 215.693 137.562 215.547C137.401 215.396 137.208 215.284 136.984 215.211C136.76 215.133 136.516 215.094 136.25 215.094C135.792 215.094 135.326 215.201 134.852 215.414C134.378 215.628 133.922 215.948 133.484 216.375V214.633C133.714 214.461 133.945 214.312 134.18 214.188C134.414 214.057 134.656 213.951 134.906 213.867C135.156 213.779 135.419 213.714 135.695 213.672C135.971 213.63 136.266 213.609 136.578 213.609C137.083 213.609 137.542 213.677 137.953 213.812C138.365 213.943 138.716 214.138 139.008 214.398C139.299 214.654 139.523 214.974 139.68 215.359C139.841 215.745 139.922 216.188 139.922 216.688C139.922 217.141 139.865 217.549 139.75 217.914C139.641 218.273 139.482 218.609 139.273 218.922C139.07 219.234 138.823 219.531 138.531 219.812C138.24 220.094 137.914 220.383 137.555 220.68C137.253 220.924 136.951 221.164 136.648 221.398C136.352 221.628 136.083 221.854 135.844 222.078C135.604 222.297 135.409 222.518 135.258 222.742C135.112 222.961 135.039 223.182 135.039 223.406V223.445H140.094V225ZM149.367 218.789C149.367 219.909 149.245 220.872 149 221.68C148.76 222.487 148.427 223.151 148 223.672C147.578 224.193 147.081 224.578 146.508 224.828C145.94 225.073 145.328 225.195 144.672 225.195C144.458 225.195 144.242 225.182 144.023 225.156C143.81 225.13 143.604 225.096 143.406 225.055C143.214 225.013 143.036 224.969 142.875 224.922C142.719 224.87 142.589 224.82 142.484 224.773V223.141C142.594 223.208 142.729 223.279 142.891 223.352C143.052 223.419 143.227 223.482 143.414 223.539C143.607 223.591 143.805 223.635 144.008 223.672C144.216 223.703 144.417 223.719 144.609 223.719C145.052 223.719 145.453 223.633 145.812 223.461C146.177 223.289 146.487 223.034 146.742 222.695C146.997 222.357 147.193 221.938 147.328 221.438C147.469 220.932 147.539 220.349 147.539 219.688H147.508C147.414 219.854 147.289 220.013 147.133 220.164C146.982 220.31 146.807 220.44 146.609 220.555C146.411 220.664 146.19 220.753 145.945 220.82C145.706 220.888 145.448 220.922 145.172 220.922C144.703 220.922 144.266 220.841 143.859 220.68C143.458 220.513 143.109 220.279 142.812 219.977C142.516 219.674 142.281 219.307 142.109 218.875C141.943 218.443 141.859 217.961 141.859 217.43C141.859 216.846 141.956 216.32 142.148 215.852C142.341 215.378 142.607 214.977 142.945 214.648C143.284 214.315 143.682 214.06 144.141 213.883C144.599 213.701 145.096 213.609 145.633 213.609C146.138 213.609 146.615 213.706 147.062 213.898C147.516 214.086 147.911 214.388 148.25 214.805C148.594 215.216 148.865 215.75 149.062 216.406C149.266 217.062 149.367 217.857 149.367 218.789ZM147.477 217.594C147.477 217.219 147.427 216.878 147.328 216.57C147.234 216.263 147.102 216 146.93 215.781C146.758 215.562 146.552 215.393 146.312 215.273C146.078 215.154 145.82 215.094 145.539 215.094C145.289 215.094 145.049 215.146 144.82 215.25C144.596 215.349 144.398 215.492 144.227 215.68C144.06 215.867 143.927 216.094 143.828 216.359C143.729 216.625 143.68 216.919 143.68 217.242C143.68 217.596 143.727 217.909 143.82 218.18C143.919 218.451 144.055 218.68 144.227 218.867C144.398 219.049 144.604 219.19 144.844 219.289C145.089 219.383 145.357 219.43 145.648 219.43C145.909 219.43 146.148 219.383 146.367 219.289C146.591 219.19 146.784 219.06 146.945 218.898C147.112 218.732 147.242 218.536 147.336 218.312C147.43 218.089 147.477 217.849 147.477 217.594Z" fill="black"/>
<path d="M82.8047 264.547V276H80.9922V266.766C80.6641 267 80.3099 267.201 79.9297 267.367C79.5547 267.529 79.125 267.672 78.6406 267.797V266.25C78.9427 266.151 79.2344 266.047 79.5156 265.938C79.7969 265.828 80.0729 265.706 80.3438 265.57C80.6198 265.435 80.8958 265.284 81.1719 265.117C81.4531 264.951 81.7422 264.76 82.0391 264.547H82.8047ZM92.4688 265.703C92 266.562 91.5573 267.414 91.1406 268.258C90.724 269.096 90.3464 269.94 90.0078 270.789C89.6693 271.638 89.375 272.495 89.125 273.359C88.875 274.219 88.6823 275.099 88.5469 276H86.6484C86.7734 275.198 86.9505 274.398 87.1797 273.602C87.4141 272.799 87.6875 272 88 271.203C88.3125 270.401 88.6615 269.596 89.0469 268.789C89.4375 267.982 89.8516 267.167 90.2891 266.344H84.9844V264.797H92.4688V265.703ZM97.8203 264.547V276H96.0078V266.766C95.6797 267 95.3255 267.201 94.9453 267.367C94.5703 267.529 94.1406 267.672 93.6562 267.797V266.25C93.9583 266.151 94.25 266.047 94.5312 265.938C94.8125 265.828 95.0885 265.706 95.3594 265.57C95.6354 265.435 95.9115 265.284 96.1875 265.117C96.4688 264.951 96.7578 264.76 97.0547 264.547H97.8203ZM100.664 275.742V274C101.398 274.495 102.143 274.742 102.898 274.742C103.659 274.742 104.271 274.549 104.734 274.164C105.198 273.773 105.43 273.255 105.43 272.609C105.43 271.974 105.193 271.479 104.719 271.125C104.25 270.771 103.576 270.594 102.695 270.594C102.393 270.594 101.781 270.625 100.859 270.688L101.258 264.797H106.773V266.344H102.766L102.578 269.148C102.938 269.128 103.263 269.117 103.555 269.117C104.742 269.117 105.659 269.422 106.305 270.031C106.956 270.641 107.281 271.474 107.281 272.531C107.281 273.641 106.909 274.531 106.164 275.203C105.424 275.87 104.406 276.203 103.109 276.203C102.016 276.203 101.201 276.049 100.664 275.742ZM113.734 272.297H109.469V270.961H113.734V272.297ZM119.586 264.547V276H117.773V266.766C117.445 267 117.091 267.201 116.711 267.367C116.336 267.529 115.906 267.672 115.422 267.797V266.25C115.724 266.151 116.016 266.047 116.297 265.938C116.578 265.828 116.854 265.706 117.125 265.57C117.401 265.435 117.677 265.284 117.953 265.117C118.234 264.951 118.523 264.76 118.82 264.547H119.586ZM129.25 265.703C128.781 266.562 128.339 267.414 127.922 268.258C127.505 269.096 127.128 269.94 126.789 270.789C126.451 271.638 126.156 272.495 125.906 273.359C125.656 274.219 125.464 275.099 125.328 276H123.43C123.555 275.198 123.732 274.398 123.961 273.602C124.195 272.799 124.469 272 124.781 271.203C125.094 270.401 125.443 269.596 125.828 268.789C126.219 267.982 126.633 267.167 127.07 266.344H121.766V264.797H129.25V265.703ZM134.602 264.547V276H132.789V266.766C132.461 267 132.107 267.201 131.727 267.367C131.352 267.529 130.922 267.672 130.438 267.797V266.25C130.74 266.151 131.031 266.047 131.312 265.938C131.594 265.828 131.87 265.706 132.141 265.57C132.417 265.435 132.693 265.284 132.969 265.117C133.25 264.951 133.539 264.76 133.836 264.547H134.602ZM144.266 265.703C143.797 266.562 143.354 267.414 142.938 268.258C142.521 269.096 142.143 269.94 141.805 270.789C141.466 271.638 141.172 272.495 140.922 273.359C140.672 274.219 140.479 275.099 140.344 276H138.445C138.57 275.198 138.747 274.398 138.977 273.602C139.211 272.799 139.484 272 139.797 271.203C140.109 270.401 140.458 269.596 140.844 268.789C141.234 267.982 141.648 267.167 142.086 266.344H136.781V264.797H144.266V265.703Z" fill="black"/>
</g>
<g filter="url(#filter1_d_131_49)">
<rect x="181" y="237" width="374" height="127.557" rx="18" fill="#E3E5EF"/>
<path d="M216.422 275H214.555V265.461H209.242V275H207.383V263.797H216.422V275ZM225.734 271.492H220.281C220.302 272.232 220.529 272.802 220.961 273.203C221.398 273.604 221.997 273.805 222.758 273.805C223.612 273.805 224.396 273.549 225.109 273.039V274.5C224.38 274.958 223.417 275.188 222.219 275.188C221.042 275.188 220.117 274.826 219.445 274.102C218.779 273.372 218.445 272.349 218.445 271.031C218.445 269.786 218.812 268.773 219.547 267.992C220.286 267.206 221.203 266.812 222.297 266.812C223.391 266.812 224.237 267.164 224.836 267.867C225.435 268.57 225.734 269.547 225.734 270.797V271.492ZM223.984 270.211C223.979 269.56 223.826 269.055 223.523 268.695C223.221 268.331 222.805 268.148 222.273 268.148C221.753 268.148 221.31 268.339 220.945 268.719C220.586 269.099 220.365 269.596 220.281 270.211H223.984ZM229.305 273.82H229.273V278.68H227.461V267H229.273V268.406H229.305C229.924 267.344 230.831 266.812 232.023 266.812C233.039 266.812 233.831 267.169 234.398 267.883C234.966 268.596 235.25 269.555 235.25 270.758C235.25 272.091 234.93 273.159 234.289 273.961C233.648 274.763 232.773 275.164 231.664 275.164C230.643 275.164 229.857 274.716 229.305 273.82ZM229.258 270.664V271.656C229.258 272.24 229.443 272.734 229.812 273.141C230.188 273.547 230.661 273.75 231.234 273.75C231.906 273.75 232.432 273.49 232.812 272.969C233.198 272.443 233.391 271.711 233.391 270.773C233.391 269.987 233.211 269.372 232.852 268.93C232.497 268.482 232.016 268.258 231.406 268.258C230.76 268.258 230.24 268.487 229.844 268.945C229.453 269.404 229.258 269.977 229.258 270.664ZM243.875 271.492H238.422C238.443 272.232 238.669 272.802 239.102 273.203C239.539 273.604 240.138 273.805 240.898 273.805C241.753 273.805 242.536 273.549 243.25 273.039V274.5C242.521 274.958 241.557 275.188 240.359 275.188C239.182 275.188 238.258 274.826 237.586 274.102C236.919 273.372 236.586 272.349 236.586 271.031C236.586 269.786 236.953 268.773 237.688 267.992C238.427 267.206 239.344 266.812 240.438 266.812C241.531 266.812 242.378 267.164 242.977 267.867C243.576 268.57 243.875 269.547 243.875 270.797V271.492ZM242.125 270.211C242.12 269.56 241.966 269.055 241.664 268.695C241.362 268.331 240.945 268.148 240.414 268.148C239.893 268.148 239.451 268.339 239.086 268.719C238.727 269.099 238.505 269.596 238.422 270.211H242.125ZM253.258 277.914H251.75V275H246.055V277.914H244.562V273.617H245.273C246.549 271.732 247.198 269.526 247.219 267H252.031V273.617H253.258V277.914ZM250.219 273.617V268.375H248.695C248.57 270.312 248.039 272.06 247.102 273.617H250.219ZM261.656 271.492H256.203C256.224 272.232 256.451 272.802 256.883 273.203C257.32 273.604 257.919 273.805 258.68 273.805C259.534 273.805 260.318 273.549 261.031 273.039V274.5C260.302 274.958 259.339 275.188 258.141 275.188C256.964 275.188 256.039 274.826 255.367 274.102C254.701 273.372 254.367 272.349 254.367 271.031C254.367 269.786 254.734 268.773 255.469 267.992C256.208 267.206 257.125 266.812 258.219 266.812C259.312 266.812 260.159 267.164 260.758 267.867C261.357 268.57 261.656 269.547 261.656 270.797V271.492ZM259.906 270.211C259.901 269.56 259.747 269.055 259.445 268.695C259.143 268.331 258.727 268.148 258.195 268.148C257.674 268.148 257.232 268.339 256.867 268.719C256.508 269.099 256.286 269.596 256.203 270.211H259.906ZM270 275H268.18V268.383H266.547C266.318 270.857 265.924 272.596 265.367 273.602C264.815 274.602 264.07 275.102 263.133 275.102C262.82 275.102 262.552 275.057 262.328 274.969V273.617C262.51 273.706 262.706 273.75 262.914 273.75C264.034 273.75 264.753 271.5 265.07 267H270V275ZM278.508 275H276.75V273.75H276.719C276.167 274.708 275.357 275.188 274.289 275.188C273.503 275.188 272.885 274.974 272.438 274.547C271.995 274.12 271.773 273.555 271.773 272.852C271.773 271.341 272.643 270.461 274.383 270.211L276.758 269.875C276.758 268.734 276.216 268.164 275.133 268.164C274.18 268.164 273.32 268.492 272.555 269.148V267.562C273.398 267.062 274.372 266.812 275.477 266.812C277.497 266.812 278.508 267.807 278.508 269.797V275ZM276.758 271.07L275.078 271.305C274.557 271.372 274.164 271.5 273.898 271.688C273.638 271.87 273.508 272.193 273.508 272.656C273.508 272.995 273.628 273.273 273.867 273.492C274.112 273.706 274.438 273.812 274.844 273.812C275.396 273.812 275.852 273.62 276.211 273.234C276.576 272.844 276.758 272.354 276.758 271.766V271.07ZM287.992 275H286.352V269.133C286.247 269.341 286.089 269.63 285.875 270L282.508 275H280.727V267H282.391V272.75C282.448 272.615 282.57 272.38 282.758 272.047L286.172 267H287.992V275ZM287.469 263.148C287.385 263.93 287.062 264.547 286.5 265C285.943 265.448 285.242 265.672 284.398 265.672C283.534 265.672 282.828 265.448 282.281 265C281.74 264.547 281.443 263.93 281.391 263.148H282.898C282.971 264.096 283.479 264.57 284.422 264.57C284.839 264.57 285.182 264.445 285.453 264.195C285.729 263.945 285.898 263.596 285.961 263.148H287.469ZM295.82 268.445H293.539V275H291.719V268.445H289.422V267H295.82V268.445ZM303.766 271.492H298.312C298.333 272.232 298.56 272.802 298.992 273.203C299.43 273.604 300.029 273.805 300.789 273.805C301.643 273.805 302.427 273.549 303.141 273.039V274.5C302.411 274.958 301.448 275.188 300.25 275.188C299.073 275.188 298.148 274.826 297.477 274.102C296.81 273.372 296.477 272.349 296.477 271.031C296.477 269.786 296.844 268.773 297.578 267.992C298.318 267.206 299.234 266.812 300.328 266.812C301.422 266.812 302.268 267.164 302.867 267.867C303.466 268.57 303.766 269.547 303.766 270.797V271.492ZM302.016 270.211C302.01 269.56 301.857 269.055 301.555 268.695C301.253 268.331 300.836 268.148 300.305 268.148C299.784 268.148 299.341 268.339 298.977 268.719C298.617 269.099 298.396 269.596 298.312 270.211H302.016ZM315.625 274.633C314.984 275.003 314.227 275.188 313.352 275.188C312.164 275.188 311.206 274.818 310.477 274.078C309.747 273.333 309.383 272.37 309.383 271.188C309.383 269.87 309.773 268.812 310.555 268.016C311.341 267.214 312.391 266.812 313.703 266.812C314.432 266.812 315.076 266.94 315.633 267.195V268.883C315.076 268.466 314.482 268.258 313.852 268.258C313.086 268.258 312.458 268.518 311.969 269.039C311.479 269.555 311.234 270.232 311.234 271.07C311.234 271.898 311.464 272.552 311.922 273.031C312.385 273.51 313.005 273.75 313.781 273.75C314.432 273.75 315.047 273.518 315.625 273.055V274.633ZM324.047 275H322.227V268.383H320.594C320.365 270.857 319.971 272.596 319.414 273.602C318.862 274.602 318.117 275.102 317.18 275.102C316.867 275.102 316.599 275.057 316.375 274.969V273.617C316.557 273.706 316.753 273.75 316.961 273.75C318.081 273.75 318.799 271.5 319.117 267H324.047V275ZM329.961 275.188C328.727 275.188 327.74 274.815 327 274.07C326.266 273.32 325.898 272.328 325.898 271.094C325.898 269.75 326.281 268.701 327.047 267.945C327.818 267.19 328.854 266.812 330.156 266.812C331.406 266.812 332.38 267.18 333.078 267.914C333.776 268.648 334.125 269.667 334.125 270.969C334.125 272.245 333.747 273.268 332.992 274.039C332.242 274.805 331.232 275.188 329.961 275.188ZM330.047 268.258C329.339 268.258 328.779 268.505 328.367 269C327.956 269.495 327.75 270.177 327.75 271.047C327.75 271.885 327.958 272.547 328.375 273.031C328.792 273.51 329.349 273.75 330.047 273.75C330.76 273.75 331.307 273.513 331.688 273.039C332.073 272.565 332.266 271.891 332.266 271.016C332.266 270.135 332.073 269.456 331.688 268.977C331.307 268.497 330.76 268.258 330.047 268.258ZM335.977 275V267H339.797C340.656 267 341.336 267.174 341.836 267.523C342.336 267.872 342.586 268.349 342.586 268.953C342.586 269.974 342.062 270.594 341.016 270.812C342.26 270.969 342.883 271.583 342.883 272.656C342.883 273.318 342.62 273.875 342.094 274.328C341.568 274.776 340.914 275 340.133 275H335.977ZM337.789 268.281V270.273H339.391C340.297 270.273 340.75 269.922 340.75 269.219C340.75 268.594 340.354 268.281 339.562 268.281H337.789ZM337.789 271.531V273.711H339.648C340.576 273.711 341.039 273.336 341.039 272.586C341.039 271.883 340.536 271.531 339.531 271.531H337.789ZM348.367 275.188C347.133 275.188 346.146 274.815 345.406 274.07C344.672 273.32 344.305 272.328 344.305 271.094C344.305 269.75 344.688 268.701 345.453 267.945C346.224 267.19 347.26 266.812 348.562 266.812C349.812 266.812 350.786 267.18 351.484 267.914C352.182 268.648 352.531 269.667 352.531 270.969C352.531 272.245 352.154 273.268 351.398 274.039C350.648 274.805 349.638 275.188 348.367 275.188ZM348.453 268.258C347.745 268.258 347.185 268.505 346.773 269C346.362 269.495 346.156 270.177 346.156 271.047C346.156 271.885 346.365 272.547 346.781 273.031C347.198 273.51 347.755 273.75 348.453 273.75C349.167 273.75 349.714 273.513 350.094 273.039C350.479 272.565 350.672 271.891 350.672 271.016C350.672 270.135 350.479 269.456 350.094 268.977C349.714 268.497 349.167 268.258 348.453 268.258ZM360.109 274.633C359.469 275.003 358.711 275.188 357.836 275.188C356.648 275.188 355.69 274.818 354.961 274.078C354.232 273.333 353.867 272.37 353.867 271.188C353.867 269.87 354.258 268.812 355.039 268.016C355.826 267.214 356.875 266.812 358.188 266.812C358.917 266.812 359.56 266.94 360.117 267.195V268.883C359.56 268.466 358.966 268.258 358.336 268.258C357.57 268.258 356.943 268.518 356.453 269.039C355.964 269.555 355.719 270.232 355.719 271.07C355.719 271.898 355.948 272.552 356.406 273.031C356.87 273.51 357.49 273.75 358.266 273.75C358.917 273.75 359.531 273.518 360.109 273.055V274.633ZM365.461 275.188C364.227 275.188 363.24 274.815 362.5 274.07C361.766 273.32 361.398 272.328 361.398 271.094C361.398 269.75 361.781 268.701 362.547 267.945C363.318 267.19 364.354 266.812 365.656 266.812C366.906 266.812 367.88 267.18 368.578 267.914C369.276 268.648 369.625 269.667 369.625 270.969C369.625 272.245 369.247 273.268 368.492 274.039C367.742 274.805 366.732 275.188 365.461 275.188ZM365.547 268.258C364.839 268.258 364.279 268.505 363.867 269C363.456 269.495 363.25 270.177 363.25 271.047C363.25 271.885 363.458 272.547 363.875 273.031C364.292 273.51 364.849 273.75 365.547 273.75C366.26 273.75 366.807 273.513 367.188 273.039C367.573 272.565 367.766 271.891 367.766 271.016C367.766 270.135 367.573 269.456 367.188 268.977C366.807 268.497 366.26 268.258 365.547 268.258ZM378.406 275H376.594V271.984C375.682 272.479 374.844 272.727 374.078 272.727C372.276 272.727 371.375 271.747 371.375 269.789V267H373.148V269.539C373.148 270.669 373.591 271.234 374.477 271.234C375.133 271.234 375.839 271.039 376.594 270.648V267H378.406V275ZM387.547 271.492H382.094C382.115 272.232 382.341 272.802 382.773 273.203C383.211 273.604 383.81 273.805 384.57 273.805C385.424 273.805 386.208 273.549 386.922 273.039V274.5C386.193 274.958 385.229 275.188 384.031 275.188C382.854 275.188 381.93 274.826 381.258 274.102C380.591 273.372 380.258 272.349 380.258 271.031C380.258 269.786 380.625 268.773 381.359 267.992C382.099 267.206 383.016 266.812 384.109 266.812C385.203 266.812 386.049 267.164 386.648 267.867C387.247 268.57 387.547 269.547 387.547 270.797V271.492ZM385.797 270.211C385.792 269.56 385.638 269.055 385.336 268.695C385.034 268.331 384.617 268.148 384.086 268.148C383.565 268.148 383.122 268.339 382.758 268.719C382.398 269.099 382.177 269.596 382.094 270.211H385.797ZM394.727 268.445H392.445V275H390.625V268.445H388.328V267H394.727V268.445ZM402.305 275H400.547V273.75H400.516C399.964 274.708 399.154 275.188 398.086 275.188C397.299 275.188 396.682 274.974 396.234 274.547C395.792 274.12 395.57 273.555 395.57 272.852C395.57 271.341 396.44 270.461 398.18 270.211L400.555 269.875C400.555 268.734 400.013 268.164 398.93 268.164C397.977 268.164 397.117 268.492 396.352 269.148V267.562C397.195 267.062 398.169 266.812 399.273 266.812C401.294 266.812 402.305 267.807 402.305 269.797V275ZM400.555 271.07L398.875 271.305C398.354 271.372 397.961 271.5 397.695 271.688C397.435 271.87 397.305 272.193 397.305 272.656C397.305 272.995 397.424 273.273 397.664 273.492C397.909 273.706 398.234 273.812 398.641 273.812C399.193 273.812 399.648 273.62 400.008 273.234C400.372 272.844 400.555 272.354 400.555 271.766V271.07ZM411.648 275H409.828V271.5H406.344V275H404.523V267H406.344V270.141H409.828V267H411.648V275ZM421.273 275H419.633V269.133C419.529 269.341 419.37 269.63 419.156 270L415.789 275H414.008V267H415.672V272.75C415.729 272.615 415.852 272.38 416.039 272.047L419.453 267H421.273V275ZM430.422 271.492H424.969C424.99 272.232 425.216 272.802 425.648 273.203C426.086 273.604 426.685 273.805 427.445 273.805C428.299 273.805 429.083 273.549 429.797 273.039V274.5C429.068 274.958 428.104 275.188 426.906 275.188C425.729 275.188 424.805 274.826 424.133 274.102C423.466 273.372 423.133 272.349 423.133 271.031C423.133 269.786 423.5 268.773 424.234 267.992C424.974 267.206 425.891 266.812 426.984 266.812C428.078 266.812 428.924 267.164 429.523 267.867C430.122 268.57 430.422 269.547 430.422 270.797V271.492ZM428.672 270.211C428.667 269.56 428.513 269.055 428.211 268.695C427.909 268.331 427.492 268.148 426.961 268.148C426.44 268.148 425.997 268.339 425.633 268.719C425.273 269.099 425.052 269.596 424.969 270.211H428.672ZM212.023 284.578L211.148 288.055H209.562L210.836 284.578H212.023ZM209.258 284.578L208.406 288.055H206.789L208.062 284.578H209.258ZM221.711 298.914H220.203V296H214.508V298.914H213.016V294.617H213.727C215.003 292.732 215.651 290.526 215.672 288H220.484V294.617H221.711V298.914ZM218.672 294.617V289.375H217.148C217.023 291.312 216.492 293.06 215.555 294.617H218.672ZM230.109 292.492H224.656C224.677 293.232 224.904 293.802 225.336 294.203C225.773 294.604 226.372 294.805 227.133 294.805C227.987 294.805 228.771 294.549 229.484 294.039V295.5C228.755 295.958 227.792 296.188 226.594 296.188C225.417 296.188 224.492 295.826 223.82 295.102C223.154 294.372 222.82 293.349 222.82 292.031C222.82 290.786 223.188 289.773 223.922 288.992C224.661 288.206 225.578 287.812 226.672 287.812C227.766 287.812 228.612 288.164 229.211 288.867C229.81 289.57 230.109 290.547 230.109 291.797V292.492ZM228.359 291.211C228.354 290.56 228.201 290.055 227.898 289.695C227.596 289.331 227.18 289.148 226.648 289.148C226.128 289.148 225.685 289.339 225.32 289.719C224.961 290.099 224.74 290.596 224.656 291.211H228.359ZM233.68 294.82H233.648V299.68H231.836V288H233.648V289.406H233.68C234.299 288.344 235.206 287.812 236.398 287.812C237.414 287.812 238.206 288.169 238.773 288.883C239.341 289.596 239.625 290.555 239.625 291.758C239.625 293.091 239.305 294.159 238.664 294.961C238.023 295.763 237.148 296.164 236.039 296.164C235.018 296.164 234.232 295.716 233.68 294.82ZM233.633 291.664V292.656C233.633 293.24 233.818 293.734 234.188 294.141C234.562 294.547 235.036 294.75 235.609 294.75C236.281 294.75 236.807 294.49 237.188 293.969C237.573 293.443 237.766 292.711 237.766 291.773C237.766 290.987 237.586 290.372 237.227 289.93C236.872 289.482 236.391 289.258 235.781 289.258C235.135 289.258 234.615 289.487 234.219 289.945C233.828 290.404 233.633 290.977 233.633 291.664ZM248.25 292.492H242.797C242.818 293.232 243.044 293.802 243.477 294.203C243.914 294.604 244.513 294.805 245.273 294.805C246.128 294.805 246.911 294.549 247.625 294.039V295.5C246.896 295.958 245.932 296.188 244.734 296.188C243.557 296.188 242.633 295.826 241.961 295.102C241.294 294.372 240.961 293.349 240.961 292.031C240.961 290.786 241.328 289.773 242.062 288.992C242.802 288.206 243.719 287.812 244.812 287.812C245.906 287.812 246.753 288.164 247.352 288.867C247.951 289.57 248.25 290.547 248.25 291.797V292.492ZM246.5 291.211C246.495 290.56 246.341 290.055 246.039 289.695C245.737 289.331 245.32 289.148 244.789 289.148C244.268 289.148 243.826 289.339 243.461 289.719C243.102 290.099 242.88 290.596 242.797 291.211H246.5ZM249.977 296V288H253.797C254.656 288 255.336 288.174 255.836 288.523C256.336 288.872 256.586 289.349 256.586 289.953C256.586 290.974 256.062 291.594 255.016 291.812C256.26 291.969 256.883 292.583 256.883 293.656C256.883 294.318 256.62 294.875 256.094 295.328C255.568 295.776 254.914 296 254.133 296H249.977ZM251.789 289.281V291.273H253.391C254.297 291.273 254.75 290.922 254.75 290.219C254.75 289.594 254.354 289.281 253.562 289.281H251.789ZM251.789 292.531V294.711H253.648C254.576 294.711 255.039 294.336 255.039 293.586C255.039 292.883 254.536 292.531 253.531 292.531H251.789ZM264.984 296H263.18V292.836H262.25C261.802 292.836 261.396 293.237 261.031 294.039L260.078 296H258.023L259.289 293.625C259.648 293.01 260.081 292.604 260.586 292.406C259.951 292.323 259.464 292.096 259.125 291.727C258.792 291.352 258.625 290.883 258.625 290.32C258.625 289.607 258.909 289.042 259.477 288.625C260.049 288.208 260.818 288 261.781 288H264.984V296ZM263.18 291.586V289.312H261.93C260.951 289.312 260.461 289.685 260.461 290.43C260.461 291.201 260.943 291.586 261.906 291.586H263.18ZM274.461 296H272.641V292.5H269.156V296H267.336V288H269.156V291.141H272.641V288H274.461V296ZM283.945 296H282.125V292.5H278.641V296H276.82V288H278.641V291.141H282.125V288H283.945V296ZM296.047 296H294.234V288H296.047V296ZM286.305 296V288H288.117V290.953H290.305C291.133 290.953 291.792 291.172 292.281 291.609C292.771 292.042 293.016 292.646 293.016 293.422C293.016 294.219 292.76 294.849 292.25 295.312C291.745 295.771 291.107 296 290.336 296H286.305ZM288.117 292.258V294.695H289.773C290.69 294.695 291.148 294.276 291.148 293.438C291.148 292.651 290.685 292.258 289.758 292.258H288.117ZM305.68 296H304.039V290.133C303.935 290.341 303.776 290.63 303.562 291L300.195 296H298.414V288H300.078V293.75C300.135 293.615 300.258 293.38 300.445 293.047L303.859 288H305.68V296ZM305.156 284.148C305.073 284.93 304.75 285.547 304.188 286C303.63 286.448 302.93 286.672 302.086 286.672C301.221 286.672 300.516 286.448 299.969 286C299.427 285.547 299.13 284.93 299.078 284.148H300.586C300.659 285.096 301.167 285.57 302.109 285.57C302.526 285.57 302.87 285.445 303.141 285.195C303.417 284.945 303.586 284.596 303.648 284.148H305.156ZM323.344 296H312.461V288H314.281V294.617H316.992V288H318.812V294.617H321.523V288H323.344V296ZM332.977 296H330.672L327.562 292.102H327.531V296H325.711V288H327.531V291.68H327.562L330.5 288H332.719L329.391 291.812L332.977 296ZM340.258 296H338.5V294.75H338.469C337.917 295.708 337.107 296.188 336.039 296.188C335.253 296.188 334.635 295.974 334.188 295.547C333.745 295.12 333.523 294.555 333.523 293.852C333.523 292.341 334.393 291.461 336.133 291.211L338.508 290.875C338.508 289.734 337.966 289.164 336.883 289.164C335.93 289.164 335.07 289.492 334.305 290.148V288.562C335.148 288.062 336.122 287.812 337.227 287.812C339.247 287.812 340.258 288.807 340.258 290.797V296ZM338.508 292.07L336.828 292.305C336.307 292.372 335.914 292.5 335.648 292.688C335.388 292.87 335.258 293.193 335.258 293.656C335.258 293.995 335.378 294.273 335.617 294.492C335.862 294.706 336.188 294.812 336.594 294.812C337.146 294.812 337.602 294.62 337.961 294.234C338.326 293.844 338.508 293.354 338.508 292.766V292.07ZM347.969 296.141V299.734H346.297V296.141H346.031C344.812 296.141 343.826 295.766 343.07 295.016C342.32 294.266 341.945 293.284 341.945 292.07C341.945 290.794 342.326 289.773 343.086 289.008C343.846 288.242 344.852 287.859 346.102 287.859H346.297V284.586H347.969V287.859H348.148C349.409 287.859 350.419 288.24 351.18 289C351.94 289.76 352.32 290.784 352.32 292.07C352.32 293.284 351.945 294.266 351.195 295.016C350.451 295.766 349.471 296.141 348.258 296.141H347.969ZM347.969 289.234V294.773H348.117C348.831 294.773 349.401 294.529 349.828 294.039C350.255 293.549 350.469 292.885 350.469 292.047C350.469 291.167 350.258 290.479 349.836 289.984C349.419 289.484 348.859 289.234 348.156 289.234H347.969ZM346.297 294.773V289.234H346.133C345.43 289.234 344.865 289.484 344.438 289.984C344.01 290.484 343.797 291.172 343.797 292.047C343.797 292.875 344.01 293.536 344.438 294.031C344.865 294.526 345.438 294.773 346.156 294.773H346.297ZM358.148 284.578L356.883 288.055H355.68L356.547 284.578H358.148ZM355.383 284.578L354.109 288.055H352.914L353.797 284.578H355.383ZM364.508 296V288H368.328C369.188 288 369.867 288.174 370.367 288.523C370.867 288.872 371.117 289.349 371.117 289.953C371.117 290.974 370.594 291.594 369.547 291.812C370.792 291.969 371.414 292.583 371.414 293.656C371.414 294.318 371.151 294.875 370.625 295.328C370.099 295.776 369.445 296 368.664 296H364.508ZM366.32 289.281V291.273H367.922C368.828 291.273 369.281 290.922 369.281 290.219C369.281 289.594 368.885 289.281 368.094 289.281H366.32ZM366.32 292.531V294.711H368.18C369.107 294.711 369.57 294.336 369.57 293.586C369.57 292.883 369.068 292.531 368.062 292.531H366.32ZM384.688 288L381.078 297.281C380.328 298.938 379.276 299.766 377.922 299.766C377.542 299.766 377.224 299.732 376.969 299.664V298.156C377.255 298.25 377.516 298.297 377.75 298.297C378.427 298.297 378.932 297.964 379.266 297.297L379.805 295.984L376.625 288H378.633L380.539 293.812C380.56 293.885 380.607 294.078 380.68 294.391H380.719C380.745 294.271 380.792 294.083 380.859 293.828L382.859 288H384.688ZM393.023 296H391.203V289.383H387.719V296H385.898V288H393.023V296ZM397.227 294.82H397.195V299.68H395.383V288H397.195V289.406H397.227C397.846 288.344 398.753 287.812 399.945 287.812C400.961 287.812 401.753 288.169 402.32 288.883C402.888 289.596 403.172 290.555 403.172 291.758C403.172 293.091 402.852 294.159 402.211 294.961C401.57 295.763 400.695 296.164 399.586 296.164C398.565 296.164 397.779 295.716 397.227 294.82ZM397.18 291.664V292.656C397.18 293.24 397.365 293.734 397.734 294.141C398.109 294.547 398.583 294.75 399.156 294.75C399.828 294.75 400.354 294.49 400.734 293.969C401.12 293.443 401.312 292.711 401.312 291.773C401.312 290.987 401.133 290.372 400.773 289.93C400.419 289.482 399.938 289.258 399.328 289.258C398.682 289.258 398.161 289.487 397.766 289.945C397.375 290.404 397.18 290.977 397.18 291.664ZM410.977 296H409.219V294.75H409.188C408.635 295.708 407.826 296.188 406.758 296.188C405.971 296.188 405.354 295.974 404.906 295.547C404.464 295.12 404.242 294.555 404.242 293.852C404.242 292.341 405.112 291.461 406.852 291.211L409.227 290.875C409.227 289.734 408.685 289.164 407.602 289.164C406.648 289.164 405.789 289.492 405.023 290.148V288.562C405.867 288.062 406.841 287.812 407.945 287.812C409.966 287.812 410.977 288.807 410.977 290.797V296ZM409.227 292.07L407.547 292.305C407.026 292.372 406.633 292.5 406.367 292.688C406.107 292.87 405.977 293.193 405.977 293.656C405.977 293.995 406.096 294.273 406.336 294.492C406.581 294.706 406.906 294.812 407.312 294.812C407.865 294.812 408.32 294.62 408.68 294.234C409.044 293.844 409.227 293.354 409.227 292.766V292.07ZM413.195 296V288H417.016C417.875 288 418.555 288.174 419.055 288.523C419.555 288.872 419.805 289.349 419.805 289.953C419.805 290.974 419.281 291.594 418.234 291.812C419.479 291.969 420.102 292.583 420.102 293.656C420.102 294.318 419.839 294.875 419.312 295.328C418.786 295.776 418.133 296 417.352 296H413.195ZM415.008 289.281V291.273H416.609C417.516 291.273 417.969 290.922 417.969 290.219C417.969 289.594 417.573 289.281 416.781 289.281H415.008ZM415.008 292.531V294.711H416.867C417.794 294.711 418.258 294.336 418.258 293.586C418.258 292.883 417.755 292.531 416.75 292.531H415.008ZM428.656 296H426.836V289.383H425.203C424.974 291.857 424.581 293.596 424.023 294.602C423.471 295.602 422.727 296.102 421.789 296.102C421.477 296.102 421.208 296.057 420.984 295.969V294.617C421.167 294.706 421.362 294.75 421.57 294.75C422.69 294.75 423.409 292.5 423.727 288H428.656V296ZM437.797 292.492H432.344C432.365 293.232 432.591 293.802 433.023 294.203C433.461 294.604 434.06 294.805 434.82 294.805C435.674 294.805 436.458 294.549 437.172 294.039V295.5C436.443 295.958 435.479 296.188 434.281 296.188C433.104 296.188 432.18 295.826 431.508 295.102C430.841 294.372 430.508 293.349 430.508 292.031C430.508 290.786 430.875 289.773 431.609 288.992C432.349 288.206 433.266 287.812 434.359 287.812C435.453 287.812 436.299 288.164 436.898 288.867C437.497 289.57 437.797 290.547 437.797 291.797V292.492ZM436.047 291.211C436.042 290.56 435.888 290.055 435.586 289.695C435.284 289.331 434.867 289.148 434.336 289.148C433.815 289.148 433.372 289.339 433.008 289.719C432.648 290.099 432.427 290.596 432.344 291.211H436.047ZM446.648 296H444.828V292.5H441.344V296H439.523V288H441.344V291.141H444.828V288H446.648V296ZM456.273 296H454.633V290.133C454.529 290.341 454.37 290.63 454.156 291L450.789 296H449.008V288H450.672V293.75C450.729 293.615 450.852 293.38 451.039 293.047L454.453 288H456.273V296ZM465.422 292.492H459.969C459.99 293.232 460.216 293.802 460.648 294.203C461.086 294.604 461.685 294.805 462.445 294.805C463.299 294.805 464.083 294.549 464.797 294.039V295.5C464.068 295.958 463.104 296.188 461.906 296.188C460.729 296.188 459.805 295.826 459.133 295.102C458.466 294.372 458.133 293.349 458.133 292.031C458.133 290.786 458.5 289.773 459.234 288.992C459.974 288.206 460.891 287.812 461.984 287.812C463.078 287.812 463.924 288.164 464.523 288.867C465.122 289.57 465.422 290.547 465.422 291.797V292.492ZM463.672 291.211C463.667 290.56 463.513 290.055 463.211 289.695C462.909 289.331 462.492 289.148 461.961 289.148C461.44 289.148 460.997 289.339 460.633 289.719C460.273 290.099 460.052 290.596 459.969 291.211H463.672Z" fill="#225F67"/>
<rect x="201.447" y="312.493" width="334.24" height="36.962" rx="12" fill="#FAFAFA"/>
</g>
<defs>
<filter id="filter0_d_131_49" x="0" y="0" width="464" height="360" filterUnits="userSpaceOnUse" color-interpolation-filters="sRGB">
<feFlood flood-opacity="0" result="BackgroundImageFix"/>
<feColorMatrix in="SourceAlpha" type="matrix" values="0 0 0 0 0 0 0 0 0 0 0 0 0 0 0 0 0 0 127 0" result="hardAlpha"/>
<feOffset dx="3" dy="5"/>
<feGaussianBlur stdDeviation="22.5"/>
<feComposite in2="hardAlpha" operator="out"/>
<feColorMatrix type="matrix" values="0 0 0 0 0.082066 0 0 0 0 0.0905948 0 0 0 0 0.120833 0 0 0 0.1 0"/>
<feBlend mode="normal" in2="BackgroundImageFix" result="effect1_dropShadow_131_49"/>
<feBlend mode="normal" in="SourceGraphic" in2="effect1_dropShadow_131_49" result="shape"/>
</filter>
<filter id="filter1_d_131_49" x="154" y="212" width="434" height="187.557" filterUnits="userSpaceOnUse" color-interpolation-filters="sRGB">
<feFlood flood-opacity="0" result="BackgroundImageFix"/>
<feColorMatrix in="SourceAlpha" type="matrix" values="0 0 0 0 0 0 0 0 0 0 0 0 0 0 0 0 0 0 127 0" result="hardAlpha"/>
<feOffset dx="3" dy="5"/>
<feGaussianBlur stdDeviation="15"/>
<feComposite in2="hardAlpha" operator="out"/>
<feColorMatrix type="matrix" values="0 0 0 0 0.082066 0 0 0 0 0.0905948 0 0 0 0 0.120833 0 0 0 0.15 0"/>
<feBlend mode="normal" in2="BackgroundImageFix" result="effect1_dropShadow_131_49"/>
<feBlend mode="normal" in="SourceGraphic" in2="effect1_dropShadow_131_49" result="shape"/>
</filter>
<linearGradient id="paint0_linear_131_49" x1="-0.566158" y1="56.4445" x2="539.56" y2="448.336" gradientUnits="userSpaceOnUse">
<stop stop-color="#801DCD"/>
<stop offset="1" stop-color="#7997FF"/>
</linearGradient>
</defs>
</svg>
