<svg width="321" height="344" viewBox="0 0 321 344" fill="none" xmlns="http://www.w3.org/2000/svg">
<g filter="url(#filter0_d_22_18)">
<path d="M57 133L112.346 187.691C114.721 190.038 118.684 189.443 120.265 186.503L191.5 54" stroke="#2D68FF" stroke-width="40" stroke-linecap="round"/>
</g>
<g filter="url(#filter1_bdi_22_18)">
<path fill-rule="evenodd" clip-rule="evenodd" d="M89.2222 84.4444C89.2222 76.0436 89.2222 71.8432 90.8571 68.6346C92.2952 65.8121 94.5899 63.5174 97.4123 62.0793C100.621 60.4444 104.821 60.4444 113.222 60.4444H256.194C264.595 60.4444 268.796 60.4444 272.004 62.0793C274.827 63.5174 277.121 65.8121 278.559 68.6346C280.194 71.8432 280.194 76.0436 280.194 84.4444V279.5C280.194 287.901 280.194 292.101 278.559 295.31C277.121 298.132 274.827 300.427 272.004 301.865C268.796 303.5 264.595 303.5 256.194 303.5H113.222C104.821 303.5 100.621 303.5 97.4123 301.865C94.5899 300.427 92.2952 298.132 90.8571 295.31C89.2222 292.101 89.2222 287.901 89.2222 279.5V84.4444ZM154.326 97.3368C154.326 96.5469 154.326 96.1519 154.349 95.8185C154.683 90.8217 158.662 86.8428 163.659 86.5084C163.992 86.4861 164.387 86.4861 165.177 86.4861H247.642C248.432 86.4861 248.827 86.4861 249.161 86.5084C254.157 86.8428 258.136 90.8217 258.471 95.8185C258.493 96.1519 258.493 96.5469 258.493 97.3368V97.3368C258.493 98.1267 258.493 98.5217 258.471 98.8551C258.136 103.852 254.157 107.831 249.161 108.165C248.827 108.187 248.432 108.187 247.642 108.187H165.177C164.387 108.187 163.992 108.187 163.659 108.165C158.662 107.831 154.683 103.852 154.349 98.8551C154.326 98.5217 154.326 98.1267 154.326 97.3368V97.3368ZM258.493 146.816C258.493 146.026 258.493 145.631 258.471 145.298C258.136 140.301 254.157 136.322 249.161 135.988C248.827 135.965 248.432 135.965 247.642 135.965H165.177C164.387 135.965 163.992 135.965 163.659 135.988C158.662 136.322 154.683 140.301 154.349 145.298C154.326 145.631 154.326 146.026 154.326 146.816V146.816C154.326 147.606 154.326 148.001 154.349 148.334C154.683 153.331 158.662 157.31 163.659 157.644C163.992 157.667 164.387 157.667 165.177 157.667H247.642C248.432 157.667 248.827 157.667 249.161 157.644C254.157 157.31 258.136 153.331 258.471 148.334C258.493 148.001 258.493 147.606 258.493 146.816V146.816ZM154.326 196.295C154.326 195.505 154.326 195.11 154.349 194.777C154.683 189.78 158.662 185.801 163.659 185.467C163.992 185.444 164.387 185.444 165.177 185.444H247.642C248.432 185.444 248.827 185.444 249.161 185.467C254.157 185.801 258.136 189.78 258.471 194.777C258.493 195.11 258.493 195.505 258.493 196.295V196.295C258.493 197.085 258.493 197.48 258.471 197.813C258.136 202.81 254.157 206.789 249.161 207.124C248.827 207.146 248.432 207.146 247.642 207.146H165.177C164.387 207.146 163.992 207.146 163.659 207.124C158.662 206.789 154.683 202.81 154.349 197.813C154.326 197.48 154.326 197.085 154.326 196.295V196.295ZM258.493 245.774C258.493 244.984 258.493 244.589 258.471 244.256C258.136 239.259 254.157 235.28 249.161 234.946C248.827 234.924 248.432 234.924 247.642 234.924H165.177C164.387 234.924 163.992 234.924 163.659 234.946C158.662 235.28 154.683 239.259 154.349 244.256C154.326 244.589 154.326 244.984 154.326 245.774V245.774C154.326 246.564 154.326 246.959 154.349 247.293C154.683 252.289 158.662 256.268 163.659 256.603C163.992 256.625 164.387 256.625 165.177 256.625H247.642C248.432 256.625 248.827 256.625 249.161 256.603C254.157 256.268 258.136 252.289 258.471 247.293C258.493 246.959 258.493 246.564 258.493 245.774V245.774ZM110.924 97.3368C110.924 96.5469 110.924 96.1519 110.946 95.8185C111.28 90.8217 115.259 86.8428 120.256 86.5084C120.589 86.4861 120.984 86.4861 121.774 86.4861V86.4861C122.564 86.4861 122.959 86.4861 123.293 86.5084C128.289 86.8428 132.268 90.8217 132.603 95.8185C132.625 96.1519 132.625 96.5469 132.625 97.3368V97.3368C132.625 98.1267 132.625 98.5217 132.603 98.8551C132.268 103.852 128.289 107.831 123.293 108.165C122.959 108.187 122.564 108.187 121.774 108.187V108.187C120.984 108.187 120.589 108.187 120.256 108.165C115.259 107.831 111.28 103.852 110.946 98.8551C110.924 98.5217 110.924 98.1267 110.924 97.3368V97.3368ZM132.625 146.816C132.625 146.026 132.625 145.631 132.603 145.298C132.268 140.301 128.289 136.322 123.293 135.988C122.959 135.965 122.564 135.965 121.774 135.965V135.965C120.984 135.965 120.589 135.965 120.256 135.988C115.259 136.322 111.28 140.301 110.946 145.298C110.924 145.631 110.924 146.026 110.924 146.816V146.816C110.924 147.606 110.924 148.001 110.946 148.334C111.28 153.331 115.259 157.31 120.256 157.644C120.589 157.667 120.984 157.667 121.774 157.667V157.667C122.564 157.667 122.959 157.667 123.293 157.644C128.289 157.31 132.268 153.331 132.603 148.334C132.625 148.001 132.625 147.606 132.625 146.816V146.816ZM110.924 196.295C110.924 195.505 110.924 195.11 110.946 194.777C111.28 189.78 115.259 185.801 120.256 185.467C120.589 185.444 120.984 185.444 121.774 185.444V185.444C122.564 185.444 122.959 185.444 123.293 185.467C128.289 185.801 132.268 189.78 132.603 194.777C132.625 195.11 132.625 195.505 132.625 196.295V196.295C132.625 197.085 132.625 197.48 132.603 197.813C132.268 202.81 128.289 206.789 123.293 207.124C122.959 207.146 122.564 207.146 121.774 207.146V207.146C120.984 207.146 120.589 207.146 120.256 207.124C115.259 206.789 111.28 202.81 110.946 197.813C110.924 197.48 110.924 197.085 110.924 196.295V196.295ZM132.625 245.774C132.625 244.984 132.625 244.589 132.603 244.256C132.268 239.259 128.289 235.28 123.293 234.946C122.959 234.924 122.564 234.924 121.774 234.924V234.924C120.984 234.924 120.589 234.924 120.256 234.946C115.259 235.28 111.28 239.259 110.946 244.256C110.924 244.589 110.924 244.984 110.924 245.774V245.774C110.924 246.564 110.924 246.959 110.946 247.293C111.28 252.289 115.259 256.268 120.256 256.603C120.589 256.625 120.984 256.625 121.774 256.625V256.625C122.564 256.625 122.959 256.625 123.293 256.603C128.289 256.268 132.268 252.289 132.603 247.293C132.625 246.959 132.625 246.564 132.625 245.774V245.774Z" fill="white" fill-opacity="0.05" shape-rendering="crispEdges"/>
<path d="M113.222 60.9444H256.194C260.403 60.9444 263.529 60.9448 266.006 61.1471C268.476 61.349 270.255 61.7493 271.777 62.5248C274.506 63.915 276.724 66.1332 278.114 68.8616C278.89 70.3837 279.29 72.1628 279.492 74.6332C279.694 77.1094 279.694 80.2358 279.694 84.4444V279.5C279.694 283.709 279.694 286.835 279.492 289.311C279.29 291.782 278.89 293.561 278.114 295.083C276.724 297.811 274.506 300.029 271.777 301.42C270.255 302.195 268.476 302.595 266.006 302.797C263.529 303 260.403 303 256.194 303H113.222C109.014 303 105.887 303 103.411 302.797C100.941 302.595 99.1614 302.195 97.6393 301.42C94.911 300.029 92.6927 297.811 91.3026 295.083C90.527 293.561 90.1267 291.782 89.9249 289.311C89.7226 286.835 89.7222 283.709 89.7222 279.5V84.4444C89.7222 80.2358 89.7226 77.1094 89.9249 74.6332C90.1267 72.1628 90.527 70.3837 91.3026 68.8616C92.6927 66.1332 94.911 63.915 97.6393 62.5248C99.1614 61.7493 100.941 61.349 103.411 61.1471C105.887 60.9448 109.014 60.9444 113.222 60.9444ZM247.642 85.9861H165.177H165.15C164.385 85.9861 163.975 85.9861 163.625 86.0095C158.379 86.3606 154.201 90.5385 153.85 95.7851C153.826 96.1353 153.826 96.5452 153.826 97.3095V97.3368V97.3641C153.826 98.1283 153.826 98.5383 153.85 98.8885C154.201 104.135 158.379 108.313 163.625 108.664C163.975 108.687 164.385 108.687 165.15 108.687H165.177H247.642H247.67C248.434 108.687 248.844 108.687 249.194 108.664C254.441 108.313 258.618 104.135 258.97 98.8885C258.993 98.5382 258.993 98.1281 258.993 97.3634V97.3368V97.3102C258.993 96.5455 258.993 96.1354 258.97 95.7851C258.618 90.5385 254.441 86.3606 249.194 86.0095C248.844 85.9861 248.434 85.9861 247.67 85.9861H247.642ZM247.642 135.465H165.177H165.15C164.385 135.465 163.975 135.465 163.625 135.489C158.379 135.84 154.201 140.018 153.85 145.264C153.826 145.614 153.826 146.024 153.826 146.789V146.816V146.843C153.826 147.608 153.826 148.018 153.85 148.368C154.201 153.614 158.379 157.792 163.625 158.143C163.975 158.167 164.385 158.167 165.15 158.167H165.177H247.642H247.67C248.434 158.167 248.844 158.167 249.194 158.143C254.441 157.792 258.618 153.614 258.97 148.368C258.993 148.017 258.993 147.607 258.993 146.843V146.816V146.789C258.993 146.025 258.993 145.615 258.97 145.264C258.618 140.018 254.441 135.84 249.194 135.489C248.844 135.465 248.434 135.465 247.67 135.465H247.642ZM247.642 184.944H165.177H165.15C164.385 184.944 163.975 184.944 163.625 184.968C158.379 185.319 154.201 189.497 153.85 194.743C153.826 195.094 153.826 195.504 153.826 196.268V196.295V196.322C153.826 197.087 153.826 197.497 153.85 197.847C154.201 203.093 158.379 207.271 163.625 207.622C163.975 207.646 164.385 207.646 165.149 207.646H165.177H247.642H247.67C248.434 207.646 248.844 207.646 249.194 207.622C254.441 207.271 258.618 203.093 258.97 197.847C258.993 197.497 258.993 197.086 258.993 196.322V196.295V196.269C258.993 195.504 258.993 195.094 258.97 194.743C258.618 189.497 254.441 185.319 249.194 184.968C248.844 184.944 248.434 184.944 247.67 184.944H247.642ZM247.642 234.424H165.177H165.149C164.385 234.424 163.975 234.424 163.625 234.447C158.379 234.798 154.201 238.976 153.85 244.223C153.826 244.573 153.826 244.983 153.826 245.747V245.774V245.802C153.826 246.566 153.826 246.976 153.85 247.326C154.201 252.573 158.379 256.751 163.625 257.102C163.975 257.125 164.385 257.125 165.149 257.125H165.177H247.642H247.67C248.434 257.125 248.844 257.125 249.194 257.102C254.441 256.751 258.618 252.573 258.97 247.326C258.993 246.976 258.993 246.566 258.993 245.801V245.774V245.748C258.993 244.983 258.993 244.573 258.97 244.223C258.618 238.976 254.441 234.798 249.194 234.447C248.844 234.424 248.434 234.424 247.67 234.424H247.642ZM121.774 257.125H121.802C122.566 257.125 122.976 257.125 123.326 257.102C128.573 256.751 132.75 252.573 133.102 247.326C133.125 246.976 133.125 246.566 133.125 245.802V245.774V245.747C133.125 244.983 133.125 244.573 133.102 244.223C132.75 238.976 128.573 234.798 123.326 234.447C122.976 234.424 122.566 234.424 121.802 234.424H121.774H121.746C120.982 234.424 120.573 234.424 120.223 234.447C114.976 234.798 110.798 238.976 110.447 244.223C110.424 244.573 110.424 244.983 110.424 245.747V245.774V245.801C110.424 246.566 110.424 246.976 110.447 247.326C110.798 252.573 114.976 256.751 120.223 257.102C120.573 257.125 120.982 257.125 121.746 257.125H121.774ZM120.223 207.622C120.573 207.646 120.982 207.646 121.746 207.646H121.774H121.802C122.566 207.646 122.976 207.646 123.326 207.622C128.573 207.271 132.75 203.093 133.102 197.847C133.125 197.497 133.125 197.087 133.125 196.322V196.295V196.268C133.125 195.504 133.125 195.094 133.102 194.743C132.75 189.497 128.573 185.319 123.326 184.968C122.976 184.944 122.566 184.944 121.802 184.944H121.774H121.747C120.983 184.944 120.573 184.944 120.223 184.968C114.976 185.319 110.798 189.497 110.447 194.743C110.424 195.094 110.424 195.504 110.424 196.268V196.295V196.322C110.424 197.087 110.424 197.497 110.447 197.847C110.798 203.093 114.976 207.271 120.223 207.622ZM121.774 158.167H121.802C122.566 158.167 122.976 158.167 123.326 158.143C128.573 157.792 132.75 153.614 133.102 148.368C133.125 148.018 133.125 147.608 133.125 146.843V146.816V146.789C133.125 146.024 133.125 145.614 133.102 145.264C132.75 140.018 128.573 135.84 123.326 135.489C122.976 135.465 122.566 135.465 121.802 135.465H121.774H121.747C120.983 135.465 120.573 135.465 120.223 135.489C114.976 135.84 110.798 140.018 110.447 145.264C110.424 145.614 110.424 146.024 110.424 146.789V146.816V146.843C110.424 147.607 110.424 148.017 110.447 148.368C110.798 153.614 114.976 157.792 120.223 158.143C120.573 158.167 120.983 158.167 121.747 158.167H121.774ZM120.223 108.664C120.573 108.687 120.983 108.687 121.747 108.687H121.774H121.802C122.566 108.687 122.976 108.687 123.326 108.664C128.573 108.313 132.75 104.135 133.102 98.8885C133.125 98.5383 133.125 98.1283 133.125 97.3641V97.3368V97.3095C133.125 96.5452 133.125 96.1353 133.102 95.7851C132.75 90.5385 128.573 86.3606 123.326 86.0095C122.976 85.9861 122.566 85.9861 121.802 85.9861H121.774H121.747C120.983 85.9861 120.573 85.9861 120.223 86.0095C114.976 86.3606 110.798 90.5385 110.447 95.7851C110.424 96.1353 110.424 96.5453 110.424 97.3097V97.3368V97.3639C110.424 98.1283 110.424 98.5383 110.447 98.8885C110.798 104.135 114.976 108.313 120.223 108.664Z" stroke="#F1F1F1" stroke-opacity="0.3" shape-rendering="crispEdges"/>
</g>
<defs>
<filter id="filter0_d_22_18" x="0" y="0.996124" width="248.504" height="249.142" filterUnits="userSpaceOnUse" color-interpolation-filters="sRGB">
<feFlood flood-opacity="0" result="BackgroundImageFix"/>
<feColorMatrix in="SourceAlpha" type="matrix" values="0 0 0 0 0 0 0 0 0 0 0 0 0 0 0 0 0 0 127 0" result="hardAlpha"/>
<feOffset dy="4"/>
<feGaussianBlur stdDeviation="18.5"/>
<feComposite in2="hardAlpha" operator="out"/>
<feColorMatrix type="matrix" values="0 0 0 0 0 0 0 0 0 0 0 0 0 0 0 0 0 0 0.25 0"/>
<feBlend mode="normal" in2="BackgroundImageFix" result="effect1_dropShadow_22_18"/>
<feBlend mode="normal" in="SourceGraphic" in2="effect1_dropShadow_22_18" result="shape"/>
</filter>
<filter id="filter1_bdi_22_18" x="49.2222" y="20.4444" width="270.972" height="323.056" filterUnits="userSpaceOnUse" color-interpolation-filters="sRGB">
<feFlood flood-opacity="0" result="BackgroundImageFix"/>
<feGaussianBlur in="BackgroundImage" stdDeviation="10"/>
<feComposite in2="SourceAlpha" operator="in" result="effect1_backgroundBlur_22_18"/>
<feColorMatrix in="SourceAlpha" type="matrix" values="0 0 0 0 0 0 0 0 0 0 0 0 0 0 0 0 0 0 127 0" result="hardAlpha"/>
<feOffset/>
<feGaussianBlur stdDeviation="20"/>
<feComposite in2="hardAlpha" operator="out"/>
<feColorMatrix type="matrix" values="0 0 0 0 0.0398611 0 0 0 0 0.0529584 0 0 0 0 0.170833 0 0 0 0.1 0"/>
<feBlend mode="normal" in2="effect1_backgroundBlur_22_18" result="effect2_dropShadow_22_18"/>
<feBlend mode="normal" in="SourceGraphic" in2="effect2_dropShadow_22_18" result="shape"/>
<feColorMatrix in="SourceAlpha" type="matrix" values="0 0 0 0 0 0 0 0 0 0 0 0 0 0 0 0 0 0 127 0" result="hardAlpha"/>
<feOffset/>
<feGaussianBlur stdDeviation="6.5"/>
<feComposite in2="hardAlpha" operator="arithmetic" k2="-1" k3="1"/>
<feColorMatrix type="matrix" values="0 0 0 0 1 0 0 0 0 1 0 0 0 0 1 0 0 0 0.26 0"/>
<feBlend mode="normal" in2="shape" result="effect3_innerShadow_22_18"/>
</filter>
</defs>
</svg>
