<svg width="573" height="385" viewBox="0 0 573 385" fill="none" xmlns="http://www.w3.org/2000/svg">
<g filter="url(#filter0_d_131_49)">
<rect x="27" y="25" width="374" height="270" rx="18" fill="#F9F9F9"/>
<path d="M53.3828 67V55.7969H56.9375C58.0208 55.7969 58.8776 56.0339 59.5078 56.5078C60.1432 56.9818 60.4609 57.599 60.4609 58.3594C60.4609 58.9948 60.2812 59.5469 59.9219 60.0156C59.5625 60.4844 59.0651 60.8177 58.4297 61.0156V61.0469C59.2005 61.1354 59.8151 61.4219 60.2734 61.9062C60.737 62.3854 60.9688 63.0104 60.9688 63.7812C60.9688 64.7396 60.5911 65.5156 59.8359 66.1094C59.0807 66.7031 58.1276 67 56.9766 67H53.3828ZM55.2344 57.2891V60.4766H56.4375C57.0833 60.4766 57.5885 60.3255 57.9531 60.0234C58.3229 59.7161 58.5078 59.2839 58.5078 58.7266C58.5078 57.7682 57.8672 57.2891 56.5859 57.2891H55.2344ZM55.2344 61.9688V65.5156H56.8203C57.513 65.5156 58.0469 65.3568 58.4219 65.0391C58.8021 64.7161 58.9922 64.2734 58.9922 63.7109C58.9922 62.5495 58.1875 61.9688 56.5781 61.9688H55.2344ZM74.5234 67H72.2188L69.1094 63.1016H69.0781V67H67.2578V59H69.0781V62.6797H69.1094L72.0469 59H74.2656L70.9375 62.8125L74.5234 67ZM81.8047 67H80.0469V65.75H80.0156C79.4635 66.7083 78.6536 67.1875 77.5859 67.1875C76.7995 67.1875 76.1823 66.974 75.7344 66.5469C75.2917 66.1198 75.0703 65.5547 75.0703 64.8516C75.0703 63.3411 75.9401 62.4609 77.6797 62.2109L80.0547 61.875C80.0547 60.7344 79.513 60.1641 78.4297 60.1641C77.4766 60.1641 76.6172 60.4922 75.8516 61.1484V59.5625C76.6953 59.0625 77.6693 58.8125 78.7734 58.8125C80.7943 58.8125 81.8047 59.8073 81.8047 61.7969V67ZM80.0547 63.0703L78.375 63.3047C77.8542 63.3724 77.4609 63.5 77.1953 63.6875C76.9349 63.8698 76.8047 64.1927 76.8047 64.6562C76.8047 64.9948 76.9245 65.2734 77.1641 65.4922C77.4089 65.7057 77.7344 65.8125 78.1406 65.8125C78.6927 65.8125 79.1484 65.6198 79.5078 65.2344C79.8724 64.8438 80.0547 64.3542 80.0547 63.7656V63.0703ZM91.2891 67H88.9844L85.875 63.1016H85.8438V67H84.0234V59H85.8438V62.6797H85.875L88.8125 59H91.0312L87.7031 62.8125L91.2891 67ZM99.6953 67H98.0547V61.1328C97.9505 61.3411 97.7917 61.6302 97.5781 62L94.2109 67H92.4297V59H94.0938V64.75C94.151 64.6146 94.2734 64.3802 94.4609 64.0469L97.875 59H99.6953V67ZM108.844 63.4922H103.391C103.411 64.2318 103.638 64.8021 104.07 65.2031C104.508 65.6042 105.107 65.8047 105.867 65.8047C106.721 65.8047 107.505 65.5495 108.219 65.0391V66.5C107.49 66.9583 106.526 67.1875 105.328 67.1875C104.151 67.1875 103.227 66.8255 102.555 66.1016C101.888 65.3724 101.555 64.349 101.555 63.0312C101.555 61.7865 101.922 60.7734 102.656 59.9922C103.396 59.2057 104.312 58.8125 105.406 58.8125C106.5 58.8125 107.346 59.1641 107.945 59.8672C108.544 60.5703 108.844 61.5469 108.844 62.7969V63.4922ZM107.094 62.2109C107.089 61.5599 106.935 61.0547 106.633 60.6953C106.331 60.3307 105.914 60.1484 105.383 60.1484C104.862 60.1484 104.419 60.3385 104.055 60.7188C103.695 61.099 103.474 61.5964 103.391 62.2109H107.094ZM119.773 60.4453H116.797V67H114.977V59H119.773V60.4453ZM124.586 67.1875C123.352 67.1875 122.365 66.8151 121.625 66.0703C120.891 65.3203 120.523 64.3281 120.523 63.0938C120.523 61.75 120.906 60.7005 121.672 59.9453C122.443 59.1901 123.479 58.8125 124.781 58.8125C126.031 58.8125 127.005 59.1797 127.703 59.9141C128.401 60.6484 128.75 61.6667 128.75 62.9688C128.75 64.2448 128.372 65.2682 127.617 66.0391C126.867 66.8047 125.857 67.1875 124.586 67.1875ZM124.672 60.2578C123.964 60.2578 123.404 60.5052 122.992 61C122.581 61.4948 122.375 62.1771 122.375 63.0469C122.375 63.8854 122.583 64.5469 123 65.0312C123.417 65.5104 123.974 65.75 124.672 65.75C125.385 65.75 125.932 65.513 126.312 65.0391C126.698 64.5651 126.891 63.8906 126.891 63.0156C126.891 62.1354 126.698 61.4557 126.312 60.9766C125.932 60.4974 125.385 60.2578 124.672 60.2578ZM138.086 69.9141H136.578V67H130.883V69.9141H129.391V65.6172H130.102C131.378 63.7318 132.026 61.526 132.047 59H136.859V65.6172H138.086V69.9141ZM135.047 65.6172V60.375H133.523C133.398 62.3125 132.867 64.0599 131.93 65.6172H135.047ZM149.453 67H147.641V59H149.453V67ZM139.711 67V59H141.523V61.9531H143.711C144.539 61.9531 145.198 62.1719 145.688 62.6094C146.177 63.0417 146.422 63.6458 146.422 64.4219C146.422 65.2188 146.167 65.849 145.656 66.3125C145.151 66.7708 144.513 67 143.742 67H139.711ZM141.523 63.2578V65.6953H143.18C144.096 65.6953 144.555 65.276 144.555 64.4375C144.555 63.651 144.091 63.2578 143.164 63.2578H141.523ZM163.352 67H161.531V60.3828H158.047V67H156.227V59H163.352V67ZM167.555 65.8203H167.523V70.6797H165.711V59H167.523V60.4062H167.555C168.174 59.3438 169.081 58.8125 170.273 58.8125C171.289 58.8125 172.081 59.1693 172.648 59.8828C173.216 60.5964 173.5 61.5547 173.5 62.7578C173.5 64.0911 173.18 65.1589 172.539 65.9609C171.898 66.763 171.023 67.1641 169.914 67.1641C168.893 67.1641 168.107 66.7161 167.555 65.8203ZM167.508 62.6641V63.6562C167.508 64.2396 167.693 64.7344 168.062 65.1406C168.438 65.5469 168.911 65.75 169.484 65.75C170.156 65.75 170.682 65.4896 171.062 64.9688C171.448 64.4427 171.641 63.7109 171.641 62.7734C171.641 61.987 171.461 61.3724 171.102 60.9297C170.747 60.4818 170.266 60.2578 169.656 60.2578C169.01 60.2578 168.49 60.487 168.094 60.9453C167.703 61.4036 167.508 61.9766 167.508 62.6641ZM181.305 67H179.547V65.75H179.516C178.964 66.7083 178.154 67.1875 177.086 67.1875C176.299 67.1875 175.682 66.974 175.234 66.5469C174.792 66.1198 174.57 65.5547 174.57 64.8516C174.57 63.3411 175.44 62.4609 177.18 62.2109L179.555 61.875C179.555 60.7344 179.013 60.1641 177.93 60.1641C176.977 60.1641 176.117 60.4922 175.352 61.1484V59.5625C176.195 59.0625 177.169 58.8125 178.273 58.8125C180.294 58.8125 181.305 59.8073 181.305 61.7969V67ZM179.555 63.0703L177.875 63.3047C177.354 63.3724 176.961 63.5 176.695 63.6875C176.435 63.8698 176.305 64.1927 176.305 64.6562C176.305 64.9948 176.424 65.2734 176.664 65.4922C176.909 65.7057 177.234 65.8125 177.641 65.8125C178.193 65.8125 178.648 65.6198 179.008 65.2344C179.372 64.8438 179.555 64.3542 179.555 63.7656V63.0703ZM183.523 67V59H187.344C188.203 59 188.883 59.1745 189.383 59.5234C189.883 59.8724 190.133 60.349 190.133 60.9531C190.133 61.974 189.609 62.5938 188.562 62.8125C189.807 62.9688 190.43 63.5833 190.43 64.6562C190.43 65.3177 190.167 65.875 189.641 66.3281C189.115 66.776 188.461 67 187.68 67H183.523ZM185.336 60.2812V62.2734H186.938C187.844 62.2734 188.297 61.9219 188.297 61.2188C188.297 60.5938 187.901 60.2812 187.109 60.2812H185.336ZM185.336 63.5312V65.7109H187.195C188.122 65.7109 188.586 65.3359 188.586 64.5859C188.586 63.8828 188.083 63.5312 187.078 63.5312H185.336ZM199.633 67H197.992V61.1328C197.888 61.3411 197.729 61.6302 197.516 62L194.148 67H192.367V59H194.031V64.75C194.089 64.6146 194.211 64.3802 194.398 64.0469L197.812 59H199.633V67ZM208.625 67H206.805V60.3828H205.172C204.943 62.8568 204.549 64.5964 203.992 65.6016C203.44 66.6016 202.695 67.1016 201.758 67.1016C201.445 67.1016 201.177 67.0573 200.953 66.9688V65.6172C201.135 65.7057 201.331 65.75 201.539 65.75C202.659 65.75 203.378 63.5 203.695 59H208.625V67ZM217.133 67H215.375V65.75H215.344C214.792 66.7083 213.982 67.1875 212.914 67.1875C212.128 67.1875 211.51 66.974 211.062 66.5469C210.62 66.1198 210.398 65.5547 210.398 64.8516C210.398 63.3411 211.268 62.4609 213.008 62.2109L215.383 61.875C215.383 60.7344 214.841 60.1641 213.758 60.1641C212.805 60.1641 211.945 60.4922 211.18 61.1484V59.5625C212.023 59.0625 212.997 58.8125 214.102 58.8125C216.122 58.8125 217.133 59.8073 217.133 61.7969V67ZM215.383 63.0703L213.703 63.3047C213.182 63.3724 212.789 63.5 212.523 63.6875C212.263 63.8698 212.133 64.1927 212.133 64.6562C212.133 64.9948 212.253 65.2734 212.492 65.4922C212.737 65.7057 213.062 65.8125 213.469 65.8125C214.021 65.8125 214.477 65.6198 214.836 65.2344C215.201 64.8438 215.383 64.3542 215.383 63.7656V63.0703ZM230.25 67H223.961V55.7969H230V57.375H225.82V60.5469H229.672V62.1172H225.82V65.4297H230.25V67ZM239.305 67H237L233.891 63.1016H233.859V67H232.039V59H233.859V62.6797H233.891L236.828 59H239.047L235.719 62.8125L239.305 67ZM246.586 67H244.828V65.75H244.797C244.245 66.7083 243.435 67.1875 242.367 67.1875C241.581 67.1875 240.964 66.974 240.516 66.5469C240.073 66.1198 239.852 65.5547 239.852 64.8516C239.852 63.3411 240.721 62.4609 242.461 62.2109L244.836 61.875C244.836 60.7344 244.294 60.1641 243.211 60.1641C242.258 60.1641 241.398 60.4922 240.633 61.1484V59.5625C241.477 59.0625 242.451 58.8125 243.555 58.8125C245.576 58.8125 246.586 59.8073 246.586 61.7969V67ZM244.836 63.0703L243.156 63.3047C242.635 63.3724 242.242 63.5 241.977 63.6875C241.716 63.8698 241.586 64.1927 241.586 64.6562C241.586 64.9948 241.706 65.2734 241.945 65.4922C242.19 65.7057 242.516 65.8125 242.922 65.8125C243.474 65.8125 243.93 65.6198 244.289 65.2344C244.654 64.8438 244.836 64.3542 244.836 63.7656V63.0703ZM254.258 60.4453H251.977V67H250.156V60.4453H247.859V59H254.258V60.4453ZM262.203 63.4922H256.75C256.771 64.2318 256.997 64.8021 257.43 65.2031C257.867 65.6042 258.466 65.8047 259.227 65.8047C260.081 65.8047 260.865 65.5495 261.578 65.0391V66.5C260.849 66.9583 259.885 67.1875 258.688 67.1875C257.51 67.1875 256.586 66.8255 255.914 66.1016C255.247 65.3724 254.914 64.349 254.914 63.0312C254.914 61.7865 255.281 60.7734 256.016 59.9922C256.755 59.2057 257.672 58.8125 258.766 58.8125C259.859 58.8125 260.706 59.1641 261.305 59.8672C261.904 60.5703 262.203 61.5469 262.203 62.7969V63.4922ZM260.453 62.2109C260.448 61.5599 260.294 61.0547 259.992 60.6953C259.69 60.3307 259.273 60.1484 258.742 60.1484C258.221 60.1484 257.779 60.3385 257.414 60.7188C257.055 61.099 256.833 61.5964 256.75 62.2109H260.453ZM265.773 65.8203H265.742V70.6797H263.93V59H265.742V60.4062H265.773C266.393 59.3438 267.299 58.8125 268.492 58.8125C269.508 58.8125 270.299 59.1693 270.867 59.8828C271.435 60.5964 271.719 61.5547 271.719 62.7578C271.719 64.0911 271.398 65.1589 270.758 65.9609C270.117 66.763 269.242 67.1641 268.133 67.1641C267.112 67.1641 266.326 66.7161 265.773 65.8203ZM265.727 62.6641V63.6562C265.727 64.2396 265.911 64.7344 266.281 65.1406C266.656 65.5469 267.13 65.75 267.703 65.75C268.375 65.75 268.901 65.4896 269.281 64.9688C269.667 64.4427 269.859 63.7109 269.859 62.7734C269.859 61.987 269.68 61.3724 269.32 60.9297C268.966 60.4818 268.484 60.2578 267.875 60.2578C267.229 60.2578 266.708 60.487 266.312 60.9453C265.922 61.4036 265.727 61.9766 265.727 62.6641ZM280.836 67H279.195V61.1328C279.091 61.3411 278.932 61.6302 278.719 62L275.352 67H273.57V59H275.234V64.75C275.292 64.6146 275.414 64.3802 275.602 64.0469L279.016 59H280.836V67ZM290.336 67H288.516V63.5H285.031V67H283.211V59H285.031V62.1406H288.516V59H290.336V67ZM298.836 67H297.078V65.75H297.047C296.495 66.7083 295.685 67.1875 294.617 67.1875C293.831 67.1875 293.214 66.974 292.766 66.5469C292.323 66.1198 292.102 65.5547 292.102 64.8516C292.102 63.3411 292.971 62.4609 294.711 62.2109L297.086 61.875C297.086 60.7344 296.544 60.1641 295.461 60.1641C294.508 60.1641 293.648 60.4922 292.883 61.1484V59.5625C293.727 59.0625 294.701 58.8125 295.805 58.8125C297.826 58.8125 298.836 59.8073 298.836 61.7969V67ZM297.086 63.0703L295.406 63.3047C294.885 63.3724 294.492 63.5 294.227 63.6875C293.966 63.8698 293.836 64.1927 293.836 64.6562C293.836 64.9948 293.956 65.2734 294.195 65.4922C294.44 65.7057 294.766 65.8125 295.172 65.8125C295.724 65.8125 296.18 65.6198 296.539 65.2344C296.904 64.8438 297.086 64.3542 297.086 63.7656V63.0703ZM307.57 67H305.656V55.7969H307.57V67ZM311.32 63.8359C311.273 63.7057 311.232 63.5365 311.195 63.3281C311.159 63.1198 311.141 62.9141 311.141 62.7109C311.141 62.3932 311.203 62.1068 311.328 61.8516C311.458 61.5911 311.617 61.349 311.805 61.125C311.997 60.901 312.203 60.6849 312.422 60.4766C312.646 60.2682 312.852 60.0651 313.039 59.8672C313.232 59.6693 313.391 59.4609 313.516 59.2422C313.646 59.0234 313.711 58.7839 313.711 58.5234C313.711 58.2891 313.664 58.0859 313.57 57.9141C313.477 57.737 313.346 57.5911 313.18 57.4766C313.018 57.3568 312.831 57.2682 312.617 57.2109C312.409 57.1536 312.185 57.125 311.945 57.125C311.169 57.125 310.43 57.4714 309.727 58.1641V56.3594C310.581 55.8594 311.466 55.6094 312.383 55.6094C312.805 55.6094 313.203 55.6641 313.578 55.7734C313.953 55.8828 314.281 56.0443 314.562 56.2578C314.844 56.4714 315.065 56.737 315.227 57.0547C315.388 57.3724 315.469 57.7422 315.469 58.1641C315.469 58.5651 315.401 58.9219 315.266 59.2344C315.13 59.5469 314.958 59.8359 314.75 60.1016C314.547 60.362 314.326 60.5938 314.086 60.7969C313.852 61 313.63 61.2031 313.422 61.4062C313.219 61.6094 313.049 61.8203 312.914 62.0391C312.779 62.2578 312.711 62.5 312.711 62.7656C312.711 62.9896 312.74 63.1927 312.797 63.375C312.854 63.5573 312.911 63.7109 312.969 63.8359H311.32ZM312.211 67.1406C311.914 67.1406 311.651 67.0391 311.422 66.8359C311.203 66.638 311.094 66.3932 311.094 66.1016C311.094 65.8047 311.203 65.5599 311.422 65.3672C311.646 65.1589 311.909 65.0547 312.211 65.0547C312.508 65.0547 312.768 65.1589 312.992 65.3672C313.211 65.5599 313.32 65.8047 313.32 66.1016C313.32 66.3932 313.211 66.638 312.992 66.8359C312.763 67.0391 312.503 67.1406 312.211 67.1406Z" fill="#225F67"/>
<rect x="52" y="84" width="324" height="36" rx="8" fill="#DDE4FC"/>
<path d="M67.8047 96.5469V108H65.9922V98.7656C65.6641 99 65.3099 99.2005 64.9297 99.3672C64.5547 99.5286 64.125 99.6719 63.6406 99.7969V98.25C63.9427 98.151 64.2344 98.0469 64.5156 97.9375C64.7969 97.8281 65.0729 97.7057 65.3438 97.5703C65.6198 97.4349 65.8958 97.2839 66.1719 97.1172C66.4531 96.9505 66.7422 96.7604 67.0391 96.5469H67.8047ZM77.4688 97.7031C77 98.5625 76.5573 99.4141 76.1406 100.258C75.724 101.096 75.3464 101.94 75.0078 102.789C74.6693 103.638 74.375 104.495 74.125 105.359C73.875 106.219 73.6823 107.099 73.5469 108H71.6484C71.7734 107.198 71.9505 106.398 72.1797 105.602C72.4141 104.799 72.6875 104 73 103.203C73.3125 102.401 73.6615 101.596 74.0469 100.789C74.4375 99.9818 74.8516 99.1667 75.2891 98.3438H69.9844V96.7969H77.4688V97.7031ZM85.8125 108H78.7812V107.133C78.7812 106.779 78.8307 106.448 78.9297 106.141C79.0286 105.828 79.1615 105.536 79.3281 105.266C79.4948 104.99 79.6901 104.732 79.9141 104.492C80.138 104.247 80.3776 104.013 80.6328 103.789C80.888 103.56 81.1484 103.341 81.4141 103.133C81.6797 102.919 81.9401 102.706 82.1953 102.492C82.4349 102.289 82.6536 102.091 82.8516 101.898C83.0495 101.701 83.2188 101.497 83.3594 101.289C83.5 101.081 83.6094 100.862 83.6875 100.633C83.7656 100.398 83.8047 100.146 83.8047 99.875C83.8047 99.5781 83.7578 99.3203 83.6641 99.1016C83.5755 98.8776 83.4479 98.6927 83.2812 98.5469C83.1198 98.3958 82.9271 98.2839 82.7031 98.2109C82.4792 98.1328 82.2344 98.0938 81.9688 98.0938C81.5104 98.0938 81.0443 98.2005 80.5703 98.4141C80.0964 98.6276 79.6406 98.9479 79.2031 99.375V97.6328C79.4323 97.4609 79.6641 97.3125 79.8984 97.1875C80.1328 97.0573 80.375 96.9505 80.625 96.8672C80.875 96.7786 81.138 96.7135 81.4141 96.6719C81.6901 96.6302 81.9844 96.6094 82.2969 96.6094C82.8021 96.6094 83.2604 96.6771 83.6719 96.8125C84.0833 96.9427 84.4349 97.138 84.7266 97.3984C85.0182 97.6536 85.2422 97.974 85.3984 98.3594C85.5599 98.7448 85.6406 99.1875 85.6406 99.6875C85.6406 100.141 85.5833 100.549 85.4688 100.914C85.3594 101.273 85.2005 101.609 84.9922 101.922C84.7891 102.234 84.5417 102.531 84.25 102.812C83.9583 103.094 83.6328 103.383 83.2734 103.68C82.9714 103.924 82.6693 104.164 82.3672 104.398C82.0703 104.628 81.8021 104.854 81.5625 105.078C81.3229 105.297 81.1276 105.518 80.9766 105.742C80.8307 105.961 80.7578 106.182 80.7578 106.406V106.445H85.8125V108ZM88.1172 107.742V106C88.8516 106.495 89.5964 106.742 90.3516 106.742C91.112 106.742 91.724 106.549 92.1875 106.164C92.651 105.773 92.8828 105.255 92.8828 104.609C92.8828 103.974 92.6458 103.479 92.1719 103.125C91.7031 102.771 91.0286 102.594 90.1484 102.594C89.8464 102.594 89.2344 102.625 88.3125 102.688L88.7109 96.7969H94.2266V98.3438H90.2188L90.0312 101.148C90.3906 101.128 90.7161 101.117 91.0078 101.117C92.1953 101.117 93.112 101.422 93.7578 102.031C94.4089 102.641 94.7344 103.474 94.7344 104.531C94.7344 105.641 94.362 106.531 93.6172 107.203C92.8776 107.87 91.8594 108.203 90.5625 108.203C89.4688 108.203 88.6536 108.049 88.1172 107.742ZM101.188 104.297H96.9219V102.961H101.188V104.297ZM107.039 96.5469V108H105.227V98.7656C104.898 99 104.544 99.2005 104.164 99.3672C103.789 99.5286 103.359 99.6719 102.875 99.7969V98.25C103.177 98.151 103.469 98.0469 103.75 97.9375C104.031 97.8281 104.307 97.7057 104.578 97.5703C104.854 97.4349 105.13 97.2839 105.406 97.1172C105.688 96.9505 105.977 96.7604 106.273 96.5469H107.039ZM116.703 97.7031C116.234 98.5625 115.792 99.4141 115.375 100.258C114.958 101.096 114.581 101.94 114.242 102.789C113.904 103.638 113.609 104.495 113.359 105.359C113.109 106.219 112.917 107.099 112.781 108H110.883C111.008 107.198 111.185 106.398 111.414 105.602C111.648 104.799 111.922 104 112.234 103.203C112.547 102.401 112.896 101.596 113.281 100.789C113.672 99.9818 114.086 99.1667 114.523 98.3438H109.219V96.7969H116.703V97.7031ZM125.047 108H118.016V107.133C118.016 106.779 118.065 106.448 118.164 106.141C118.263 105.828 118.396 105.536 118.562 105.266C118.729 104.99 118.924 104.732 119.148 104.492C119.372 104.247 119.612 104.013 119.867 103.789C120.122 103.56 120.383 103.341 120.648 103.133C120.914 102.919 121.174 102.706 121.43 102.492C121.669 102.289 121.888 102.091 122.086 101.898C122.284 101.701 122.453 101.497 122.594 101.289C122.734 101.081 122.844 100.862 122.922 100.633C123 100.398 123.039 100.146 123.039 99.875C123.039 99.5781 122.992 99.3203 122.898 99.1016C122.81 98.8776 122.682 98.6927 122.516 98.5469C122.354 98.3958 122.161 98.2839 121.938 98.2109C121.714 98.1328 121.469 98.0938 121.203 98.0938C120.745 98.0938 120.279 98.2005 119.805 98.4141C119.331 98.6276 118.875 98.9479 118.438 99.375V97.6328C118.667 97.4609 118.898 97.3125 119.133 97.1875C119.367 97.0573 119.609 96.9505 119.859 96.8672C120.109 96.7786 120.372 96.7135 120.648 96.6719C120.924 96.6302 121.219 96.6094 121.531 96.6094C122.036 96.6094 122.495 96.6771 122.906 96.8125C123.318 96.9427 123.669 97.138 123.961 97.3984C124.253 97.6536 124.477 97.974 124.633 98.3594C124.794 98.7448 124.875 99.1875 124.875 99.6875C124.875 100.141 124.818 100.549 124.703 100.914C124.594 101.273 124.435 101.609 124.227 101.922C124.023 102.234 123.776 102.531 123.484 102.812C123.193 103.094 122.867 103.383 122.508 103.68C122.206 103.924 121.904 104.164 121.602 104.398C121.305 104.628 121.036 104.854 120.797 105.078C120.557 105.297 120.362 105.518 120.211 105.742C120.065 105.961 119.992 106.182 119.992 106.406V106.445H125.047V108ZM134.172 97.7031C133.703 98.5625 133.26 99.4141 132.844 100.258C132.427 101.096 132.049 101.94 131.711 102.789C131.372 103.638 131.078 104.495 130.828 105.359C130.578 106.219 130.385 107.099 130.25 108H128.352C128.477 107.198 128.654 106.398 128.883 105.602C129.117 104.799 129.391 104 129.703 103.203C130.016 102.401 130.365 101.596 130.75 100.789C131.141 99.9818 131.555 99.1667 131.992 98.3438H126.688V96.7969H134.172V97.7031Z" fill="black"/>
<rect x="52" y="135" width="324" height="36" rx="8" fill="#F3F3F3"/>
<rect x="52" y="186" width="324" height="36" rx="8" fill="#F3F3F3"/>
<rect x="52" y="237" width="324" height="36" rx="8" fill="#F3F3F3"/>
<path d="M67.8047 147.547V159H65.9922V149.766C65.6641 150 65.3099 150.201 64.9297 150.367C64.5547 150.529 64.125 150.672 63.6406 150.797V149.25C63.9427 149.151 64.2344 149.047 64.5156 148.938C64.7969 148.828 65.0729 148.706 65.3438 148.57C65.6198 148.435 65.8958 148.284 66.1719 148.117C66.4531 147.951 66.7422 147.76 67.0391 147.547H67.8047ZM77.4688 148.703C77 149.562 76.5573 150.414 76.1406 151.258C75.724 152.096 75.3464 152.94 75.0078 153.789C74.6693 154.638 74.375 155.495 74.125 156.359C73.875 157.219 73.6823 158.099 73.5469 159H71.6484C71.7734 158.198 71.9505 157.398 72.1797 156.602C72.4141 155.799 72.6875 155 73 154.203C73.3125 153.401 73.6615 152.596 74.0469 151.789C74.4375 150.982 74.8516 150.167 75.2891 149.344H69.9844V147.797H77.4688V148.703ZM85.8125 159H78.7812V158.133C78.7812 157.779 78.8307 157.448 78.9297 157.141C79.0286 156.828 79.1615 156.536 79.3281 156.266C79.4948 155.99 79.6901 155.732 79.9141 155.492C80.138 155.247 80.3776 155.013 80.6328 154.789C80.888 154.56 81.1484 154.341 81.4141 154.133C81.6797 153.919 81.9401 153.706 82.1953 153.492C82.4349 153.289 82.6536 153.091 82.8516 152.898C83.0495 152.701 83.2188 152.497 83.3594 152.289C83.5 152.081 83.6094 151.862 83.6875 151.633C83.7656 151.398 83.8047 151.146 83.8047 150.875C83.8047 150.578 83.7578 150.32 83.6641 150.102C83.5755 149.878 83.4479 149.693 83.2812 149.547C83.1198 149.396 82.9271 149.284 82.7031 149.211C82.4792 149.133 82.2344 149.094 81.9688 149.094C81.5104 149.094 81.0443 149.201 80.5703 149.414C80.0964 149.628 79.6406 149.948 79.2031 150.375V148.633C79.4323 148.461 79.6641 148.312 79.8984 148.188C80.1328 148.057 80.375 147.951 80.625 147.867C80.875 147.779 81.138 147.714 81.4141 147.672C81.6901 147.63 81.9844 147.609 82.2969 147.609C82.8021 147.609 83.2604 147.677 83.6719 147.812C84.0833 147.943 84.4349 148.138 84.7266 148.398C85.0182 148.654 85.2422 148.974 85.3984 149.359C85.5599 149.745 85.6406 150.188 85.6406 150.688C85.6406 151.141 85.5833 151.549 85.4688 151.914C85.3594 152.273 85.2005 152.609 84.9922 152.922C84.7891 153.234 84.5417 153.531 84.25 153.812C83.9583 154.094 83.6328 154.383 83.2734 154.68C82.9714 154.924 82.6693 155.164 82.3672 155.398C82.0703 155.628 81.8021 155.854 81.5625 156.078C81.3229 156.297 81.1276 156.518 80.9766 156.742C80.8307 156.961 80.7578 157.182 80.7578 157.406V157.445H85.8125V159ZM94.7031 159H87.6719V158.133C87.6719 157.779 87.7214 157.448 87.8203 157.141C87.9193 156.828 88.0521 156.536 88.2188 156.266C88.3854 155.99 88.5807 155.732 88.8047 155.492C89.0286 155.247 89.2682 155.013 89.5234 154.789C89.7786 154.56 90.0391 154.341 90.3047 154.133C90.5703 153.919 90.8307 153.706 91.0859 153.492C91.3255 153.289 91.5443 153.091 91.7422 152.898C91.9401 152.701 92.1094 152.497 92.25 152.289C92.3906 152.081 92.5 151.862 92.5781 151.633C92.6562 151.398 92.6953 151.146 92.6953 150.875C92.6953 150.578 92.6484 150.32 92.5547 150.102C92.4661 149.878 92.3385 149.693 92.1719 149.547C92.0104 149.396 91.8177 149.284 91.5938 149.211C91.3698 149.133 91.125 149.094 90.8594 149.094C90.401 149.094 89.9349 149.201 89.4609 149.414C88.987 149.628 88.5312 149.948 88.0938 150.375V148.633C88.3229 148.461 88.5547 148.312 88.7891 148.188C89.0234 148.057 89.2656 147.951 89.5156 147.867C89.7656 147.779 90.0286 147.714 90.3047 147.672C90.5807 147.63 90.875 147.609 91.1875 147.609C91.6927 147.609 92.151 147.677 92.5625 147.812C92.974 147.943 93.3255 148.138 93.6172 148.398C93.9089 148.654 94.1328 148.974 94.2891 149.359C94.4505 149.745 94.5312 150.188 94.5312 150.688C94.5312 151.141 94.474 151.549 94.3594 151.914C94.25 152.273 94.0911 152.609 93.8828 152.922C93.6797 153.234 93.4323 153.531 93.1406 153.812C92.849 154.094 92.5234 154.383 92.1641 154.68C91.862 154.924 91.5599 155.164 91.2578 155.398C90.9609 155.628 90.6927 155.854 90.4531 156.078C90.2135 156.297 90.0182 156.518 89.8672 156.742C89.7214 156.961 89.6484 157.182 89.6484 157.406V157.445H94.7031V159ZM101.188 155.297H96.9219V153.961H101.188V155.297ZM107.039 147.547V159H105.227V149.766C104.898 150 104.544 150.201 104.164 150.367C103.789 150.529 103.359 150.672 102.875 150.797V149.25C103.177 149.151 103.469 149.047 103.75 148.938C104.031 148.828 104.307 148.706 104.578 148.57C104.854 148.435 105.13 148.284 105.406 148.117C105.688 147.951 105.977 147.76 106.273 147.547H107.039ZM116.703 148.703C116.234 149.562 115.792 150.414 115.375 151.258C114.958 152.096 114.581 152.94 114.242 153.789C113.904 154.638 113.609 155.495 113.359 156.359C113.109 157.219 112.917 158.099 112.781 159H110.883C111.008 158.198 111.185 157.398 111.414 156.602C111.648 155.799 111.922 155 112.234 154.203C112.547 153.401 112.896 152.596 113.281 151.789C113.672 150.982 114.086 150.167 114.523 149.344H109.219V147.797H116.703V148.703ZM125.047 159H118.016V158.133C118.016 157.779 118.065 157.448 118.164 157.141C118.263 156.828 118.396 156.536 118.562 156.266C118.729 155.99 118.924 155.732 119.148 155.492C119.372 155.247 119.612 155.013 119.867 154.789C120.122 154.56 120.383 154.341 120.648 154.133C120.914 153.919 121.174 153.706 121.43 153.492C121.669 153.289 121.888 153.091 122.086 152.898C122.284 152.701 122.453 152.497 122.594 152.289C122.734 152.081 122.844 151.862 122.922 151.633C123 151.398 123.039 151.146 123.039 150.875C123.039 150.578 122.992 150.32 122.898 150.102C122.81 149.878 122.682 149.693 122.516 149.547C122.354 149.396 122.161 149.284 121.938 149.211C121.714 149.133 121.469 149.094 121.203 149.094C120.745 149.094 120.279 149.201 119.805 149.414C119.331 149.628 118.875 149.948 118.438 150.375V148.633C118.667 148.461 118.898 148.312 119.133 148.188C119.367 148.057 119.609 147.951 119.859 147.867C120.109 147.779 120.372 147.714 120.648 147.672C120.924 147.63 121.219 147.609 121.531 147.609C122.036 147.609 122.495 147.677 122.906 147.812C123.318 147.943 123.669 148.138 123.961 148.398C124.253 148.654 124.477 148.974 124.633 149.359C124.794 149.745 124.875 150.188 124.875 150.688C124.875 151.141 124.818 151.549 124.703 151.914C124.594 152.273 124.435 152.609 124.227 152.922C124.023 153.234 123.776 153.531 123.484 153.812C123.193 154.094 122.867 154.383 122.508 154.68C122.206 154.924 121.904 155.164 121.602 155.398C121.305 155.628 121.036 155.854 120.797 156.078C120.557 156.297 120.362 156.518 120.211 156.742C120.065 156.961 119.992 157.182 119.992 157.406V157.445H125.047V159ZM127.352 158.742V157C128.086 157.495 128.831 157.742 129.586 157.742C130.346 157.742 130.958 157.549 131.422 157.164C131.885 156.773 132.117 156.255 132.117 155.609C132.117 154.974 131.88 154.479 131.406 154.125C130.938 153.771 130.263 153.594 129.383 153.594C129.081 153.594 128.469 153.625 127.547 153.688L127.945 147.797H133.461V149.344H129.453L129.266 152.148C129.625 152.128 129.951 152.117 130.242 152.117C131.43 152.117 132.346 152.422 132.992 153.031C133.643 153.641 133.969 154.474 133.969 155.531C133.969 156.641 133.596 157.531 132.852 158.203C132.112 158.87 131.094 159.203 129.797 159.203C128.703 159.203 127.888 159.049 127.352 158.742Z" fill="black"/>
<path d="M67.8047 198.547V210H65.9922V200.766C65.6641 201 65.3099 201.201 64.9297 201.367C64.5547 201.529 64.125 201.672 63.6406 201.797V200.25C63.9427 200.151 64.2344 200.047 64.5156 199.938C64.7969 199.828 65.0729 199.706 65.3438 199.57C65.6198 199.435 65.8958 199.284 66.1719 199.117C66.4531 198.951 66.7422 198.76 67.0391 198.547H67.8047ZM77.4688 199.703C77 200.562 76.5573 201.414 76.1406 202.258C75.724 203.096 75.3464 203.94 75.0078 204.789C74.6693 205.638 74.375 206.495 74.125 207.359C73.875 208.219 73.6823 209.099 73.5469 210H71.6484C71.7734 209.198 71.9505 208.398 72.1797 207.602C72.4141 206.799 72.6875 206 73 205.203C73.3125 204.401 73.6615 203.596 74.0469 202.789C74.4375 201.982 74.8516 201.167 75.2891 200.344H69.9844V198.797H77.4688V199.703ZM85.8125 210H78.7812V209.133C78.7812 208.779 78.8307 208.448 78.9297 208.141C79.0286 207.828 79.1615 207.536 79.3281 207.266C79.4948 206.99 79.6901 206.732 79.9141 206.492C80.138 206.247 80.3776 206.013 80.6328 205.789C80.888 205.56 81.1484 205.341 81.4141 205.133C81.6797 204.919 81.9401 204.706 82.1953 204.492C82.4349 204.289 82.6536 204.091 82.8516 203.898C83.0495 203.701 83.2188 203.497 83.3594 203.289C83.5 203.081 83.6094 202.862 83.6875 202.633C83.7656 202.398 83.8047 202.146 83.8047 201.875C83.8047 201.578 83.7578 201.32 83.6641 201.102C83.5755 200.878 83.4479 200.693 83.2812 200.547C83.1198 200.396 82.9271 200.284 82.7031 200.211C82.4792 200.133 82.2344 200.094 81.9688 200.094C81.5104 200.094 81.0443 200.201 80.5703 200.414C80.0964 200.628 79.6406 200.948 79.2031 201.375V199.633C79.4323 199.461 79.6641 199.312 79.8984 199.188C80.1328 199.057 80.375 198.951 80.625 198.867C80.875 198.779 81.138 198.714 81.4141 198.672C81.6901 198.63 81.9844 198.609 82.2969 198.609C82.8021 198.609 83.2604 198.677 83.6719 198.812C84.0833 198.943 84.4349 199.138 84.7266 199.398C85.0182 199.654 85.2422 199.974 85.3984 200.359C85.5599 200.745 85.6406 201.188 85.6406 201.688C85.6406 202.141 85.5833 202.549 85.4688 202.914C85.3594 203.273 85.2005 203.609 84.9922 203.922C84.7891 204.234 84.5417 204.531 84.25 204.812C83.9583 205.094 83.6328 205.383 83.2734 205.68C82.9714 205.924 82.6693 206.164 82.3672 206.398C82.0703 206.628 81.8021 206.854 81.5625 207.078C81.3229 207.297 81.1276 207.518 80.9766 207.742C80.8307 207.961 80.7578 208.182 80.7578 208.406V208.445H85.8125V210ZM95.2266 206.398C95.2266 206.961 95.1328 207.474 94.9453 207.938C94.763 208.401 94.5078 208.802 94.1797 209.141C93.8516 209.474 93.4609 209.734 93.0078 209.922C92.5599 210.104 92.0729 210.195 91.5469 210.195C90.9844 210.195 90.4661 210.086 89.9922 209.867C89.5234 209.648 89.1172 209.323 88.7734 208.891C88.4349 208.458 88.1719 207.922 87.9844 207.281C87.7969 206.635 87.7031 205.888 87.7031 205.039C87.7031 204.003 87.8255 203.083 88.0703 202.281C88.3203 201.479 88.6615 200.807 89.0938 200.266C89.526 199.724 90.0339 199.312 90.6172 199.031C91.2005 198.75 91.8307 198.609 92.5078 198.609C92.9297 198.609 93.3125 198.638 93.6562 198.695C94.0052 198.753 94.2839 198.831 94.4922 198.93V200.562C94.2266 200.427 93.9427 200.312 93.6406 200.219C93.3385 200.125 92.9922 200.078 92.6016 200.078C92.1641 200.078 91.7604 200.167 91.3906 200.344C91.0208 200.521 90.7005 200.781 90.4297 201.125C90.1641 201.464 89.9531 201.885 89.7969 202.391C89.6458 202.891 89.5677 203.469 89.5625 204.125H89.6094C89.849 203.755 90.1719 203.464 90.5781 203.25C90.9896 203.036 91.4714 202.93 92.0234 202.93C92.513 202.93 92.9531 203.01 93.3438 203.172C93.7396 203.328 94.0755 203.557 94.3516 203.859C94.6328 204.156 94.849 204.521 95 204.953C95.151 205.38 95.2266 205.862 95.2266 206.398ZM93.3984 206.547C93.3984 206.224 93.3594 205.93 93.2812 205.664C93.2083 205.398 93.0938 205.172 92.9375 204.984C92.7865 204.792 92.5938 204.643 92.3594 204.539C92.1302 204.435 91.8594 204.383 91.5469 204.383C91.2344 204.383 90.9583 204.44 90.7188 204.555C90.4844 204.664 90.2865 204.81 90.125 204.992C89.9635 205.174 89.8411 205.383 89.7578 205.617C89.6797 205.852 89.6406 206.091 89.6406 206.336C89.6406 206.602 89.6771 206.875 89.75 207.156C89.8281 207.432 89.9453 207.685 90.1016 207.914C90.2578 208.143 90.4557 208.333 90.6953 208.484C90.9401 208.63 91.2292 208.703 91.5625 208.703C91.8594 208.703 92.1224 208.648 92.3516 208.539C92.5807 208.43 92.7708 208.279 92.9219 208.086C93.0781 207.893 93.1953 207.667 93.2734 207.406C93.3568 207.141 93.3984 206.854 93.3984 206.547ZM101.234 206.297H96.9688V204.961H101.234V206.297ZM107.086 198.547V210H105.273V200.766C104.945 201 104.591 201.201 104.211 201.367C103.836 201.529 103.406 201.672 102.922 201.797V200.25C103.224 200.151 103.516 200.047 103.797 199.938C104.078 199.828 104.354 199.706 104.625 199.57C104.901 199.435 105.177 199.284 105.453 199.117C105.734 198.951 106.023 198.76 106.32 198.547H107.086ZM116.75 199.703C116.281 200.562 115.839 201.414 115.422 202.258C115.005 203.096 114.628 203.94 114.289 204.789C113.951 205.638 113.656 206.495 113.406 207.359C113.156 208.219 112.964 209.099 112.828 210H110.93C111.055 209.198 111.232 208.398 111.461 207.602C111.695 206.799 111.969 206 112.281 205.203C112.594 204.401 112.943 203.596 113.328 202.789C113.719 201.982 114.133 201.167 114.57 200.344H109.266V198.797H116.75V199.703ZM125.094 210H118.062V209.133C118.062 208.779 118.112 208.448 118.211 208.141C118.31 207.828 118.443 207.536 118.609 207.266C118.776 206.99 118.971 206.732 119.195 206.492C119.419 206.247 119.659 206.013 119.914 205.789C120.169 205.56 120.43 205.341 120.695 205.133C120.961 204.919 121.221 204.706 121.477 204.492C121.716 204.289 121.935 204.091 122.133 203.898C122.331 203.701 122.5 203.497 122.641 203.289C122.781 203.081 122.891 202.862 122.969 202.633C123.047 202.398 123.086 202.146 123.086 201.875C123.086 201.578 123.039 201.32 122.945 201.102C122.857 200.878 122.729 200.693 122.562 200.547C122.401 200.396 122.208 200.284 121.984 200.211C121.76 200.133 121.516 200.094 121.25 200.094C120.792 200.094 120.326 200.201 119.852 200.414C119.378 200.628 118.922 200.948 118.484 201.375V199.633C118.714 199.461 118.945 199.312 119.18 199.188C119.414 199.057 119.656 198.951 119.906 198.867C120.156 198.779 120.419 198.714 120.695 198.672C120.971 198.63 121.266 198.609 121.578 198.609C122.083 198.609 122.542 198.677 122.953 198.812C123.365 198.943 123.716 199.138 124.008 199.398C124.299 199.654 124.523 199.974 124.68 200.359C124.841 200.745 124.922 201.188 124.922 201.688C124.922 202.141 124.865 202.549 124.75 202.914C124.641 203.273 124.482 203.609 124.273 203.922C124.07 204.234 123.823 204.531 123.531 204.812C123.24 205.094 122.914 205.383 122.555 205.68C122.253 205.924 121.951 206.164 121.648 206.398C121.352 206.628 121.083 206.854 120.844 207.078C120.604 207.297 120.409 207.518 120.258 207.742C120.112 207.961 120.039 208.182 120.039 208.406V208.445H125.094V210ZM134.367 203.789C134.367 204.909 134.245 205.872 134 206.68C133.76 207.487 133.427 208.151 133 208.672C132.578 209.193 132.081 209.578 131.508 209.828C130.94 210.073 130.328 210.195 129.672 210.195C129.458 210.195 129.242 210.182 129.023 210.156C128.81 210.13 128.604 210.096 128.406 210.055C128.214 210.013 128.036 209.969 127.875 209.922C127.719 209.87 127.589 209.82 127.484 209.773V208.141C127.594 208.208 127.729 208.279 127.891 208.352C128.052 208.419 128.227 208.482 128.414 208.539C128.607 208.591 128.805 208.635 129.008 208.672C129.216 208.703 129.417 208.719 129.609 208.719C130.052 208.719 130.453 208.633 130.812 208.461C131.177 208.289 131.487 208.034 131.742 207.695C131.997 207.357 132.193 206.938 132.328 206.438C132.469 205.932 132.539 205.349 132.539 204.688H132.508C132.414 204.854 132.289 205.013 132.133 205.164C131.982 205.31 131.807 205.44 131.609 205.555C131.411 205.664 131.19 205.753 130.945 205.82C130.706 205.888 130.448 205.922 130.172 205.922C129.703 205.922 129.266 205.841 128.859 205.68C128.458 205.513 128.109 205.279 127.812 204.977C127.516 204.674 127.281 204.307 127.109 203.875C126.943 203.443 126.859 202.961 126.859 202.43C126.859 201.846 126.956 201.32 127.148 200.852C127.341 200.378 127.607 199.977 127.945 199.648C128.284 199.315 128.682 199.06 129.141 198.883C129.599 198.701 130.096 198.609 130.633 198.609C131.138 198.609 131.615 198.706 132.062 198.898C132.516 199.086 132.911 199.388 133.25 199.805C133.594 200.216 133.865 200.75 134.062 201.406C134.266 202.062 134.367 202.857 134.367 203.789ZM132.477 202.594C132.477 202.219 132.427 201.878 132.328 201.57C132.234 201.263 132.102 201 131.93 200.781C131.758 200.562 131.552 200.393 131.312 200.273C131.078 200.154 130.82 200.094 130.539 200.094C130.289 200.094 130.049 200.146 129.82 200.25C129.596 200.349 129.398 200.492 129.227 200.68C129.06 200.867 128.927 201.094 128.828 201.359C128.729 201.625 128.68 201.919 128.68 202.242C128.68 202.596 128.727 202.909 128.82 203.18C128.919 203.451 129.055 203.68 129.227 203.867C129.398 204.049 129.604 204.19 129.844 204.289C130.089 204.383 130.357 204.43 130.648 204.43C130.909 204.43 131.148 204.383 131.367 204.289C131.591 204.19 131.784 204.06 131.945 203.898C132.112 203.732 132.242 203.536 132.336 203.312C132.43 203.089 132.477 202.849 132.477 202.594Z" fill="black"/>
<path d="M67.8047 249.547V261H65.9922V251.766C65.6641 252 65.3099 252.201 64.9297 252.367C64.5547 252.529 64.125 252.672 63.6406 252.797V251.25C63.9427 251.151 64.2344 251.047 64.5156 250.938C64.7969 250.828 65.0729 250.706 65.3438 250.57C65.6198 250.435 65.8958 250.284 66.1719 250.117C66.4531 249.951 66.7422 249.76 67.0391 249.547H67.8047ZM77.4688 250.703C77 251.562 76.5573 252.414 76.1406 253.258C75.724 254.096 75.3464 254.94 75.0078 255.789C74.6693 256.638 74.375 257.495 74.125 258.359C73.875 259.219 73.6823 260.099 73.5469 261H71.6484C71.7734 260.198 71.9505 259.398 72.1797 258.602C72.4141 257.799 72.6875 257 73 256.203C73.3125 255.401 73.6615 254.596 74.0469 253.789C74.4375 252.982 74.8516 252.167 75.2891 251.344H69.9844V249.797H77.4688V250.703ZM82.8203 249.547V261H81.0078V251.766C80.6797 252 80.3255 252.201 79.9453 252.367C79.5703 252.529 79.1406 252.672 78.6562 252.797V251.25C78.9583 251.151 79.25 251.047 79.5312 250.938C79.8125 250.828 80.0885 250.706 80.3594 250.57C80.6354 250.435 80.9115 250.284 81.1875 250.117C81.4688 249.951 81.7578 249.76 82.0547 249.547H82.8203ZM85.6641 260.742V259C86.3984 259.495 87.1432 259.742 87.8984 259.742C88.6589 259.742 89.2708 259.549 89.7344 259.164C90.1979 258.773 90.4297 258.255 90.4297 257.609C90.4297 256.974 90.1927 256.479 89.7188 256.125C89.25 255.771 88.5755 255.594 87.6953 255.594C87.3932 255.594 86.7812 255.625 85.8594 255.688L86.2578 249.797H91.7734V251.344H87.7656L87.5781 254.148C87.9375 254.128 88.263 254.117 88.5547 254.117C89.7422 254.117 90.6589 254.422 91.3047 255.031C91.9557 255.641 92.2812 256.474 92.2812 257.531C92.2812 258.641 91.9089 259.531 91.1641 260.203C90.4245 260.87 89.4062 261.203 88.1094 261.203C87.0156 261.203 86.2005 261.049 85.6641 260.742ZM98.7344 257.297H94.4688V255.961H98.7344V257.297ZM104.586 249.547V261H102.773V251.766C102.445 252 102.091 252.201 101.711 252.367C101.336 252.529 100.906 252.672 100.422 252.797V251.25C100.724 251.151 101.016 251.047 101.297 250.938C101.578 250.828 101.854 250.706 102.125 250.57C102.401 250.435 102.677 250.284 102.953 250.117C103.234 249.951 103.523 249.76 103.82 249.547H104.586ZM114.25 250.703C113.781 251.562 113.339 252.414 112.922 253.258C112.505 254.096 112.128 254.94 111.789 255.789C111.451 256.638 111.156 257.495 110.906 258.359C110.656 259.219 110.464 260.099 110.328 261H108.43C108.555 260.198 108.732 259.398 108.961 258.602C109.195 257.799 109.469 257 109.781 256.203C110.094 255.401 110.443 254.596 110.828 253.789C111.219 252.982 111.633 252.167 112.07 251.344H106.766V249.797H114.25V250.703ZM119.602 249.547V261H117.789V251.766C117.461 252 117.107 252.201 116.727 252.367C116.352 252.529 115.922 252.672 115.438 252.797V251.25C115.74 251.151 116.031 251.047 116.312 250.938C116.594 250.828 116.87 250.706 117.141 250.57C117.417 250.435 117.693 250.284 117.969 250.117C118.25 249.951 118.539 249.76 118.836 249.547H119.602ZM129.266 250.703C128.797 251.562 128.354 252.414 127.938 253.258C127.521 254.096 127.143 254.94 126.805 255.789C126.466 256.638 126.172 257.495 125.922 258.359C125.672 259.219 125.479 260.099 125.344 261H123.445C123.57 260.198 123.747 259.398 123.977 258.602C124.211 257.799 124.484 257 124.797 256.203C125.109 255.401 125.458 254.596 125.844 253.789C126.234 252.982 126.648 252.167 127.086 251.344H121.781V249.797H129.266V250.703Z" fill="black"/>
</g>
<g filter="url(#filter1_d_131_49)">
<rect x="166" y="222" width="374" height="127.557" rx="18" fill="#F9F9F9"/>
<path d="M201.422 260H199.555V250.461H194.242V260H192.383V248.797H201.422V260ZM210.734 256.492H205.281C205.302 257.232 205.529 257.802 205.961 258.203C206.398 258.604 206.997 258.805 207.758 258.805C208.612 258.805 209.396 258.549 210.109 258.039V259.5C209.38 259.958 208.417 260.188 207.219 260.188C206.042 260.188 205.117 259.826 204.445 259.102C203.779 258.372 203.445 257.349 203.445 256.031C203.445 254.786 203.812 253.773 204.547 252.992C205.286 252.206 206.203 251.812 207.297 251.812C208.391 251.812 209.237 252.164 209.836 252.867C210.435 253.57 210.734 254.547 210.734 255.797V256.492ZM208.984 255.211C208.979 254.56 208.826 254.055 208.523 253.695C208.221 253.331 207.805 253.148 207.273 253.148C206.753 253.148 206.31 253.339 205.945 253.719C205.586 254.099 205.365 254.596 205.281 255.211H208.984ZM214.305 258.82H214.273V263.68H212.461V252H214.273V253.406H214.305C214.924 252.344 215.831 251.812 217.023 251.812C218.039 251.812 218.831 252.169 219.398 252.883C219.966 253.596 220.25 254.555 220.25 255.758C220.25 257.091 219.93 258.159 219.289 258.961C218.648 259.763 217.773 260.164 216.664 260.164C215.643 260.164 214.857 259.716 214.305 258.82ZM214.258 255.664V256.656C214.258 257.24 214.443 257.734 214.812 258.141C215.188 258.547 215.661 258.75 216.234 258.75C216.906 258.75 217.432 258.49 217.812 257.969C218.198 257.443 218.391 256.711 218.391 255.773C218.391 254.987 218.211 254.372 217.852 253.93C217.497 253.482 217.016 253.258 216.406 253.258C215.76 253.258 215.24 253.487 214.844 253.945C214.453 254.404 214.258 254.977 214.258 255.664ZM228.875 256.492H223.422C223.443 257.232 223.669 257.802 224.102 258.203C224.539 258.604 225.138 258.805 225.898 258.805C226.753 258.805 227.536 258.549 228.25 258.039V259.5C227.521 259.958 226.557 260.188 225.359 260.188C224.182 260.188 223.258 259.826 222.586 259.102C221.919 258.372 221.586 257.349 221.586 256.031C221.586 254.786 221.953 253.773 222.688 252.992C223.427 252.206 224.344 251.812 225.438 251.812C226.531 251.812 227.378 252.164 227.977 252.867C228.576 253.57 228.875 254.547 228.875 255.797V256.492ZM227.125 255.211C227.12 254.56 226.966 254.055 226.664 253.695C226.362 253.331 225.945 253.148 225.414 253.148C224.893 253.148 224.451 253.339 224.086 253.719C223.727 254.099 223.505 254.596 223.422 255.211H227.125ZM238.258 262.914H236.75V260H231.055V262.914H229.562V258.617H230.273C231.549 256.732 232.198 254.526 232.219 252H237.031V258.617H238.258V262.914ZM235.219 258.617V253.375H233.695C233.57 255.312 233.039 257.06 232.102 258.617H235.219ZM246.656 256.492H241.203C241.224 257.232 241.451 257.802 241.883 258.203C242.32 258.604 242.919 258.805 243.68 258.805C244.534 258.805 245.318 258.549 246.031 258.039V259.5C245.302 259.958 244.339 260.188 243.141 260.188C241.964 260.188 241.039 259.826 240.367 259.102C239.701 258.372 239.367 257.349 239.367 256.031C239.367 254.786 239.734 253.773 240.469 252.992C241.208 252.206 242.125 251.812 243.219 251.812C244.312 251.812 245.159 252.164 245.758 252.867C246.357 253.57 246.656 254.547 246.656 255.797V256.492ZM244.906 255.211C244.901 254.56 244.747 254.055 244.445 253.695C244.143 253.331 243.727 253.148 243.195 253.148C242.674 253.148 242.232 253.339 241.867 253.719C241.508 254.099 241.286 254.596 241.203 255.211H244.906ZM255 260H253.18V253.383H251.547C251.318 255.857 250.924 257.596 250.367 258.602C249.815 259.602 249.07 260.102 248.133 260.102C247.82 260.102 247.552 260.057 247.328 259.969V258.617C247.51 258.706 247.706 258.75 247.914 258.75C249.034 258.75 249.753 256.5 250.07 252H255V260ZM263.508 260H261.75V258.75H261.719C261.167 259.708 260.357 260.188 259.289 260.188C258.503 260.188 257.885 259.974 257.438 259.547C256.995 259.12 256.773 258.555 256.773 257.852C256.773 256.341 257.643 255.461 259.383 255.211L261.758 254.875C261.758 253.734 261.216 253.164 260.133 253.164C259.18 253.164 258.32 253.492 257.555 254.148V252.562C258.398 252.062 259.372 251.812 260.477 251.812C262.497 251.812 263.508 252.807 263.508 254.797V260ZM261.758 256.07L260.078 256.305C259.557 256.372 259.164 256.5 258.898 256.688C258.638 256.87 258.508 257.193 258.508 257.656C258.508 257.995 258.628 258.273 258.867 258.492C259.112 258.706 259.438 258.812 259.844 258.812C260.396 258.812 260.852 258.62 261.211 258.234C261.576 257.844 261.758 257.354 261.758 256.766V256.07ZM272.992 260H271.352V254.133C271.247 254.341 271.089 254.63 270.875 255L267.508 260H265.727V252H267.391V257.75C267.448 257.615 267.57 257.38 267.758 257.047L271.172 252H272.992V260ZM272.469 248.148C272.385 248.93 272.062 249.547 271.5 250C270.943 250.448 270.242 250.672 269.398 250.672C268.534 250.672 267.828 250.448 267.281 250C266.74 249.547 266.443 248.93 266.391 248.148H267.898C267.971 249.096 268.479 249.57 269.422 249.57C269.839 249.57 270.182 249.445 270.453 249.195C270.729 248.945 270.898 248.596 270.961 248.148H272.469ZM280.82 253.445H278.539V260H276.719V253.445H274.422V252H280.82V253.445ZM288.766 256.492H283.312C283.333 257.232 283.56 257.802 283.992 258.203C284.43 258.604 285.029 258.805 285.789 258.805C286.643 258.805 287.427 258.549 288.141 258.039V259.5C287.411 259.958 286.448 260.188 285.25 260.188C284.073 260.188 283.148 259.826 282.477 259.102C281.81 258.372 281.477 257.349 281.477 256.031C281.477 254.786 281.844 253.773 282.578 252.992C283.318 252.206 284.234 251.812 285.328 251.812C286.422 251.812 287.268 252.164 287.867 252.867C288.466 253.57 288.766 254.547 288.766 255.797V256.492ZM287.016 255.211C287.01 254.56 286.857 254.055 286.555 253.695C286.253 253.331 285.836 253.148 285.305 253.148C284.784 253.148 284.341 253.339 283.977 253.719C283.617 254.099 283.396 254.596 283.312 255.211H287.016ZM300.625 259.633C299.984 260.003 299.227 260.188 298.352 260.188C297.164 260.188 296.206 259.818 295.477 259.078C294.747 258.333 294.383 257.37 294.383 256.188C294.383 254.87 294.773 253.812 295.555 253.016C296.341 252.214 297.391 251.812 298.703 251.812C299.432 251.812 300.076 251.94 300.633 252.195V253.883C300.076 253.466 299.482 253.258 298.852 253.258C298.086 253.258 297.458 253.518 296.969 254.039C296.479 254.555 296.234 255.232 296.234 256.07C296.234 256.898 296.464 257.552 296.922 258.031C297.385 258.51 298.005 258.75 298.781 258.75C299.432 258.75 300.047 258.518 300.625 258.055V259.633ZM309.047 260H307.227V253.383H305.594C305.365 255.857 304.971 257.596 304.414 258.602C303.862 259.602 303.117 260.102 302.18 260.102C301.867 260.102 301.599 260.057 301.375 259.969V258.617C301.557 258.706 301.753 258.75 301.961 258.75C303.081 258.75 303.799 256.5 304.117 252H309.047V260ZM314.961 260.188C313.727 260.188 312.74 259.815 312 259.07C311.266 258.32 310.898 257.328 310.898 256.094C310.898 254.75 311.281 253.701 312.047 252.945C312.818 252.19 313.854 251.812 315.156 251.812C316.406 251.812 317.38 252.18 318.078 252.914C318.776 253.648 319.125 254.667 319.125 255.969C319.125 257.245 318.747 258.268 317.992 259.039C317.242 259.805 316.232 260.188 314.961 260.188ZM315.047 253.258C314.339 253.258 313.779 253.505 313.367 254C312.956 254.495 312.75 255.177 312.75 256.047C312.75 256.885 312.958 257.547 313.375 258.031C313.792 258.51 314.349 258.75 315.047 258.75C315.76 258.75 316.307 258.513 316.688 258.039C317.073 257.565 317.266 256.891 317.266 256.016C317.266 255.135 317.073 254.456 316.688 253.977C316.307 253.497 315.76 253.258 315.047 253.258ZM320.977 260V252H324.797C325.656 252 326.336 252.174 326.836 252.523C327.336 252.872 327.586 253.349 327.586 253.953C327.586 254.974 327.062 255.594 326.016 255.812C327.26 255.969 327.883 256.583 327.883 257.656C327.883 258.318 327.62 258.875 327.094 259.328C326.568 259.776 325.914 260 325.133 260H320.977ZM322.789 253.281V255.273H324.391C325.297 255.273 325.75 254.922 325.75 254.219C325.75 253.594 325.354 253.281 324.562 253.281H322.789ZM322.789 256.531V258.711H324.648C325.576 258.711 326.039 258.336 326.039 257.586C326.039 256.883 325.536 256.531 324.531 256.531H322.789ZM333.367 260.188C332.133 260.188 331.146 259.815 330.406 259.07C329.672 258.32 329.305 257.328 329.305 256.094C329.305 254.75 329.688 253.701 330.453 252.945C331.224 252.19 332.26 251.812 333.562 251.812C334.812 251.812 335.786 252.18 336.484 252.914C337.182 253.648 337.531 254.667 337.531 255.969C337.531 257.245 337.154 258.268 336.398 259.039C335.648 259.805 334.638 260.188 333.367 260.188ZM333.453 253.258C332.745 253.258 332.185 253.505 331.773 254C331.362 254.495 331.156 255.177 331.156 256.047C331.156 256.885 331.365 257.547 331.781 258.031C332.198 258.51 332.755 258.75 333.453 258.75C334.167 258.75 334.714 258.513 335.094 258.039C335.479 257.565 335.672 256.891 335.672 256.016C335.672 255.135 335.479 254.456 335.094 253.977C334.714 253.497 334.167 253.258 333.453 253.258ZM345.109 259.633C344.469 260.003 343.711 260.188 342.836 260.188C341.648 260.188 340.69 259.818 339.961 259.078C339.232 258.333 338.867 257.37 338.867 256.188C338.867 254.87 339.258 253.812 340.039 253.016C340.826 252.214 341.875 251.812 343.188 251.812C343.917 251.812 344.56 251.94 345.117 252.195V253.883C344.56 253.466 343.966 253.258 343.336 253.258C342.57 253.258 341.943 253.518 341.453 254.039C340.964 254.555 340.719 255.232 340.719 256.07C340.719 256.898 340.948 257.552 341.406 258.031C341.87 258.51 342.49 258.75 343.266 258.75C343.917 258.75 344.531 258.518 345.109 258.055V259.633ZM350.461 260.188C349.227 260.188 348.24 259.815 347.5 259.07C346.766 258.32 346.398 257.328 346.398 256.094C346.398 254.75 346.781 253.701 347.547 252.945C348.318 252.19 349.354 251.812 350.656 251.812C351.906 251.812 352.88 252.18 353.578 252.914C354.276 253.648 354.625 254.667 354.625 255.969C354.625 257.245 354.247 258.268 353.492 259.039C352.742 259.805 351.732 260.188 350.461 260.188ZM350.547 253.258C349.839 253.258 349.279 253.505 348.867 254C348.456 254.495 348.25 255.177 348.25 256.047C348.25 256.885 348.458 257.547 348.875 258.031C349.292 258.51 349.849 258.75 350.547 258.75C351.26 258.75 351.807 258.513 352.188 258.039C352.573 257.565 352.766 256.891 352.766 256.016C352.766 255.135 352.573 254.456 352.188 253.977C351.807 253.497 351.26 253.258 350.547 253.258ZM363.406 260H361.594V256.984C360.682 257.479 359.844 257.727 359.078 257.727C357.276 257.727 356.375 256.747 356.375 254.789V252H358.148V254.539C358.148 255.669 358.591 256.234 359.477 256.234C360.133 256.234 360.839 256.039 361.594 255.648V252H363.406V260ZM372.547 256.492H367.094C367.115 257.232 367.341 257.802 367.773 258.203C368.211 258.604 368.81 258.805 369.57 258.805C370.424 258.805 371.208 258.549 371.922 258.039V259.5C371.193 259.958 370.229 260.188 369.031 260.188C367.854 260.188 366.93 259.826 366.258 259.102C365.591 258.372 365.258 257.349 365.258 256.031C365.258 254.786 365.625 253.773 366.359 252.992C367.099 252.206 368.016 251.812 369.109 251.812C370.203 251.812 371.049 252.164 371.648 252.867C372.247 253.57 372.547 254.547 372.547 255.797V256.492ZM370.797 255.211C370.792 254.56 370.638 254.055 370.336 253.695C370.034 253.331 369.617 253.148 369.086 253.148C368.565 253.148 368.122 253.339 367.758 253.719C367.398 254.099 367.177 254.596 367.094 255.211H370.797ZM379.727 253.445H377.445V260H375.625V253.445H373.328V252H379.727V253.445ZM387.305 260H385.547V258.75H385.516C384.964 259.708 384.154 260.188 383.086 260.188C382.299 260.188 381.682 259.974 381.234 259.547C380.792 259.12 380.57 258.555 380.57 257.852C380.57 256.341 381.44 255.461 383.18 255.211L385.555 254.875C385.555 253.734 385.013 253.164 383.93 253.164C382.977 253.164 382.117 253.492 381.352 254.148V252.562C382.195 252.062 383.169 251.812 384.273 251.812C386.294 251.812 387.305 252.807 387.305 254.797V260ZM385.555 256.07L383.875 256.305C383.354 256.372 382.961 256.5 382.695 256.688C382.435 256.87 382.305 257.193 382.305 257.656C382.305 257.995 382.424 258.273 382.664 258.492C382.909 258.706 383.234 258.812 383.641 258.812C384.193 258.812 384.648 258.62 385.008 258.234C385.372 257.844 385.555 257.354 385.555 256.766V256.07ZM396.648 260H394.828V256.5H391.344V260H389.523V252H391.344V255.141H394.828V252H396.648V260ZM406.273 260H404.633V254.133C404.529 254.341 404.37 254.63 404.156 255L400.789 260H399.008V252H400.672V257.75C400.729 257.615 400.852 257.38 401.039 257.047L404.453 252H406.273V260ZM415.422 256.492H409.969C409.99 257.232 410.216 257.802 410.648 258.203C411.086 258.604 411.685 258.805 412.445 258.805C413.299 258.805 414.083 258.549 414.797 258.039V259.5C414.068 259.958 413.104 260.188 411.906 260.188C410.729 260.188 409.805 259.826 409.133 259.102C408.466 258.372 408.133 257.349 408.133 256.031C408.133 254.786 408.5 253.773 409.234 252.992C409.974 252.206 410.891 251.812 411.984 251.812C413.078 251.812 413.924 252.164 414.523 252.867C415.122 253.57 415.422 254.547 415.422 255.797V256.492ZM413.672 255.211C413.667 254.56 413.513 254.055 413.211 253.695C412.909 253.331 412.492 253.148 411.961 253.148C411.44 253.148 410.997 253.339 410.633 253.719C410.273 254.099 410.052 254.596 409.969 255.211H413.672ZM197.023 269.578L196.148 273.055H194.562L195.836 269.578H197.023ZM194.258 269.578L193.406 273.055H191.789L193.062 269.578H194.258ZM206.711 283.914H205.203V281H199.508V283.914H198.016V279.617H198.727C200.003 277.732 200.651 275.526 200.672 273H205.484V279.617H206.711V283.914ZM203.672 279.617V274.375H202.148C202.023 276.312 201.492 278.06 200.555 279.617H203.672ZM215.109 277.492H209.656C209.677 278.232 209.904 278.802 210.336 279.203C210.773 279.604 211.372 279.805 212.133 279.805C212.987 279.805 213.771 279.549 214.484 279.039V280.5C213.755 280.958 212.792 281.188 211.594 281.188C210.417 281.188 209.492 280.826 208.82 280.102C208.154 279.372 207.82 278.349 207.82 277.031C207.82 275.786 208.188 274.773 208.922 273.992C209.661 273.206 210.578 272.812 211.672 272.812C212.766 272.812 213.612 273.164 214.211 273.867C214.81 274.57 215.109 275.547 215.109 276.797V277.492ZM213.359 276.211C213.354 275.56 213.201 275.055 212.898 274.695C212.596 274.331 212.18 274.148 211.648 274.148C211.128 274.148 210.685 274.339 210.32 274.719C209.961 275.099 209.74 275.596 209.656 276.211H213.359ZM218.68 279.82H218.648V284.68H216.836V273H218.648V274.406H218.68C219.299 273.344 220.206 272.812 221.398 272.812C222.414 272.812 223.206 273.169 223.773 273.883C224.341 274.596 224.625 275.555 224.625 276.758C224.625 278.091 224.305 279.159 223.664 279.961C223.023 280.763 222.148 281.164 221.039 281.164C220.018 281.164 219.232 280.716 218.68 279.82ZM218.633 276.664V277.656C218.633 278.24 218.818 278.734 219.188 279.141C219.562 279.547 220.036 279.75 220.609 279.75C221.281 279.75 221.807 279.49 222.188 278.969C222.573 278.443 222.766 277.711 222.766 276.773C222.766 275.987 222.586 275.372 222.227 274.93C221.872 274.482 221.391 274.258 220.781 274.258C220.135 274.258 219.615 274.487 219.219 274.945C218.828 275.404 218.633 275.977 218.633 276.664ZM233.25 277.492H227.797C227.818 278.232 228.044 278.802 228.477 279.203C228.914 279.604 229.513 279.805 230.273 279.805C231.128 279.805 231.911 279.549 232.625 279.039V280.5C231.896 280.958 230.932 281.188 229.734 281.188C228.557 281.188 227.633 280.826 226.961 280.102C226.294 279.372 225.961 278.349 225.961 277.031C225.961 275.786 226.328 274.773 227.062 273.992C227.802 273.206 228.719 272.812 229.812 272.812C230.906 272.812 231.753 273.164 232.352 273.867C232.951 274.57 233.25 275.547 233.25 276.797V277.492ZM231.5 276.211C231.495 275.56 231.341 275.055 231.039 274.695C230.737 274.331 230.32 274.148 229.789 274.148C229.268 274.148 228.826 274.339 228.461 274.719C228.102 275.099 227.88 275.596 227.797 276.211H231.5ZM234.977 281V273H238.797C239.656 273 240.336 273.174 240.836 273.523C241.336 273.872 241.586 274.349 241.586 274.953C241.586 275.974 241.062 276.594 240.016 276.812C241.26 276.969 241.883 277.583 241.883 278.656C241.883 279.318 241.62 279.875 241.094 280.328C240.568 280.776 239.914 281 239.133 281H234.977ZM236.789 274.281V276.273H238.391C239.297 276.273 239.75 275.922 239.75 275.219C239.75 274.594 239.354 274.281 238.562 274.281H236.789ZM236.789 277.531V279.711H238.648C239.576 279.711 240.039 279.336 240.039 278.586C240.039 277.883 239.536 277.531 238.531 277.531H236.789ZM249.984 281H248.18V277.836H247.25C246.802 277.836 246.396 278.237 246.031 279.039L245.078 281H243.023L244.289 278.625C244.648 278.01 245.081 277.604 245.586 277.406C244.951 277.323 244.464 277.096 244.125 276.727C243.792 276.352 243.625 275.883 243.625 275.32C243.625 274.607 243.909 274.042 244.477 273.625C245.049 273.208 245.818 273 246.781 273H249.984V281ZM248.18 276.586V274.312H246.93C245.951 274.312 245.461 274.685 245.461 275.43C245.461 276.201 245.943 276.586 246.906 276.586H248.18ZM259.461 281H257.641V277.5H254.156V281H252.336V273H254.156V276.141H257.641V273H259.461V281ZM268.945 281H267.125V277.5H263.641V281H261.82V273H263.641V276.141H267.125V273H268.945V281ZM281.047 281H279.234V273H281.047V281ZM271.305 281V273H273.117V275.953H275.305C276.133 275.953 276.792 276.172 277.281 276.609C277.771 277.042 278.016 277.646 278.016 278.422C278.016 279.219 277.76 279.849 277.25 280.312C276.745 280.771 276.107 281 275.336 281H271.305ZM273.117 277.258V279.695H274.773C275.69 279.695 276.148 279.276 276.148 278.438C276.148 277.651 275.685 277.258 274.758 277.258H273.117ZM290.68 281H289.039V275.133C288.935 275.341 288.776 275.63 288.562 276L285.195 281H283.414V273H285.078V278.75C285.135 278.615 285.258 278.38 285.445 278.047L288.859 273H290.68V281ZM290.156 269.148C290.073 269.93 289.75 270.547 289.188 271C288.63 271.448 287.93 271.672 287.086 271.672C286.221 271.672 285.516 271.448 284.969 271C284.427 270.547 284.13 269.93 284.078 269.148H285.586C285.659 270.096 286.167 270.57 287.109 270.57C287.526 270.57 287.87 270.445 288.141 270.195C288.417 269.945 288.586 269.596 288.648 269.148H290.156ZM308.344 281H297.461V273H299.281V279.617H301.992V273H303.812V279.617H306.523V273H308.344V281ZM317.977 281H315.672L312.562 277.102H312.531V281H310.711V273H312.531V276.68H312.562L315.5 273H317.719L314.391 276.812L317.977 281ZM325.258 281H323.5V279.75H323.469C322.917 280.708 322.107 281.188 321.039 281.188C320.253 281.188 319.635 280.974 319.188 280.547C318.745 280.12 318.523 279.555 318.523 278.852C318.523 277.341 319.393 276.461 321.133 276.211L323.508 275.875C323.508 274.734 322.966 274.164 321.883 274.164C320.93 274.164 320.07 274.492 319.305 275.148V273.562C320.148 273.062 321.122 272.812 322.227 272.812C324.247 272.812 325.258 273.807 325.258 275.797V281ZM323.508 277.07L321.828 277.305C321.307 277.372 320.914 277.5 320.648 277.688C320.388 277.87 320.258 278.193 320.258 278.656C320.258 278.995 320.378 279.273 320.617 279.492C320.862 279.706 321.188 279.812 321.594 279.812C322.146 279.812 322.602 279.62 322.961 279.234C323.326 278.844 323.508 278.354 323.508 277.766V277.07ZM332.969 281.141V284.734H331.297V281.141H331.031C329.812 281.141 328.826 280.766 328.07 280.016C327.32 279.266 326.945 278.284 326.945 277.07C326.945 275.794 327.326 274.773 328.086 274.008C328.846 273.242 329.852 272.859 331.102 272.859H331.297V269.586H332.969V272.859H333.148C334.409 272.859 335.419 273.24 336.18 274C336.94 274.76 337.32 275.784 337.32 277.07C337.32 278.284 336.945 279.266 336.195 280.016C335.451 280.766 334.471 281.141 333.258 281.141H332.969ZM332.969 274.234V279.773H333.117C333.831 279.773 334.401 279.529 334.828 279.039C335.255 278.549 335.469 277.885 335.469 277.047C335.469 276.167 335.258 275.479 334.836 274.984C334.419 274.484 333.859 274.234 333.156 274.234H332.969ZM331.297 279.773V274.234H331.133C330.43 274.234 329.865 274.484 329.438 274.984C329.01 275.484 328.797 276.172 328.797 277.047C328.797 277.875 329.01 278.536 329.438 279.031C329.865 279.526 330.438 279.773 331.156 279.773H331.297ZM343.148 269.578L341.883 273.055H340.68L341.547 269.578H343.148ZM340.383 269.578L339.109 273.055H337.914L338.797 269.578H340.383ZM349.508 281V273H353.328C354.188 273 354.867 273.174 355.367 273.523C355.867 273.872 356.117 274.349 356.117 274.953C356.117 275.974 355.594 276.594 354.547 276.812C355.792 276.969 356.414 277.583 356.414 278.656C356.414 279.318 356.151 279.875 355.625 280.328C355.099 280.776 354.445 281 353.664 281H349.508ZM351.32 274.281V276.273H352.922C353.828 276.273 354.281 275.922 354.281 275.219C354.281 274.594 353.885 274.281 353.094 274.281H351.32ZM351.32 277.531V279.711H353.18C354.107 279.711 354.57 279.336 354.57 278.586C354.57 277.883 354.068 277.531 353.062 277.531H351.32ZM369.688 273L366.078 282.281C365.328 283.938 364.276 284.766 362.922 284.766C362.542 284.766 362.224 284.732 361.969 284.664V283.156C362.255 283.25 362.516 283.297 362.75 283.297C363.427 283.297 363.932 282.964 364.266 282.297L364.805 280.984L361.625 273H363.633L365.539 278.812C365.56 278.885 365.607 279.078 365.68 279.391H365.719C365.745 279.271 365.792 279.083 365.859 278.828L367.859 273H369.688ZM378.023 281H376.203V274.383H372.719V281H370.898V273H378.023V281ZM382.227 279.82H382.195V284.68H380.383V273H382.195V274.406H382.227C382.846 273.344 383.753 272.812 384.945 272.812C385.961 272.812 386.753 273.169 387.32 273.883C387.888 274.596 388.172 275.555 388.172 276.758C388.172 278.091 387.852 279.159 387.211 279.961C386.57 280.763 385.695 281.164 384.586 281.164C383.565 281.164 382.779 280.716 382.227 279.82ZM382.18 276.664V277.656C382.18 278.24 382.365 278.734 382.734 279.141C383.109 279.547 383.583 279.75 384.156 279.75C384.828 279.75 385.354 279.49 385.734 278.969C386.12 278.443 386.312 277.711 386.312 276.773C386.312 275.987 386.133 275.372 385.773 274.93C385.419 274.482 384.938 274.258 384.328 274.258C383.682 274.258 383.161 274.487 382.766 274.945C382.375 275.404 382.18 275.977 382.18 276.664ZM395.977 281H394.219V279.75H394.188C393.635 280.708 392.826 281.188 391.758 281.188C390.971 281.188 390.354 280.974 389.906 280.547C389.464 280.12 389.242 279.555 389.242 278.852C389.242 277.341 390.112 276.461 391.852 276.211L394.227 275.875C394.227 274.734 393.685 274.164 392.602 274.164C391.648 274.164 390.789 274.492 390.023 275.148V273.562C390.867 273.062 391.841 272.812 392.945 272.812C394.966 272.812 395.977 273.807 395.977 275.797V281ZM394.227 277.07L392.547 277.305C392.026 277.372 391.633 277.5 391.367 277.688C391.107 277.87 390.977 278.193 390.977 278.656C390.977 278.995 391.096 279.273 391.336 279.492C391.581 279.706 391.906 279.812 392.312 279.812C392.865 279.812 393.32 279.62 393.68 279.234C394.044 278.844 394.227 278.354 394.227 277.766V277.07ZM398.195 281V273H402.016C402.875 273 403.555 273.174 404.055 273.523C404.555 273.872 404.805 274.349 404.805 274.953C404.805 275.974 404.281 276.594 403.234 276.812C404.479 276.969 405.102 277.583 405.102 278.656C405.102 279.318 404.839 279.875 404.312 280.328C403.786 280.776 403.133 281 402.352 281H398.195ZM400.008 274.281V276.273H401.609C402.516 276.273 402.969 275.922 402.969 275.219C402.969 274.594 402.573 274.281 401.781 274.281H400.008ZM400.008 277.531V279.711H401.867C402.794 279.711 403.258 279.336 403.258 278.586C403.258 277.883 402.755 277.531 401.75 277.531H400.008ZM413.656 281H411.836V274.383H410.203C409.974 276.857 409.581 278.596 409.023 279.602C408.471 280.602 407.727 281.102 406.789 281.102C406.477 281.102 406.208 281.057 405.984 280.969V279.617C406.167 279.706 406.362 279.75 406.57 279.75C407.69 279.75 408.409 277.5 408.727 273H413.656V281ZM422.797 277.492H417.344C417.365 278.232 417.591 278.802 418.023 279.203C418.461 279.604 419.06 279.805 419.82 279.805C420.674 279.805 421.458 279.549 422.172 279.039V280.5C421.443 280.958 420.479 281.188 419.281 281.188C418.104 281.188 417.18 280.826 416.508 280.102C415.841 279.372 415.508 278.349 415.508 277.031C415.508 275.786 415.875 274.773 416.609 273.992C417.349 273.206 418.266 272.812 419.359 272.812C420.453 272.812 421.299 273.164 421.898 273.867C422.497 274.57 422.797 275.547 422.797 276.797V277.492ZM421.047 276.211C421.042 275.56 420.888 275.055 420.586 274.695C420.284 274.331 419.867 274.148 419.336 274.148C418.815 274.148 418.372 274.339 418.008 274.719C417.648 275.099 417.427 275.596 417.344 276.211H421.047ZM431.648 281H429.828V277.5H426.344V281H424.523V273H426.344V276.141H429.828V273H431.648V281ZM441.273 281H439.633V275.133C439.529 275.341 439.37 275.63 439.156 276L435.789 281H434.008V273H435.672V278.75C435.729 278.615 435.852 278.38 436.039 278.047L439.453 273H441.273V281ZM450.422 277.492H444.969C444.99 278.232 445.216 278.802 445.648 279.203C446.086 279.604 446.685 279.805 447.445 279.805C448.299 279.805 449.083 279.549 449.797 279.039V280.5C449.068 280.958 448.104 281.188 446.906 281.188C445.729 281.188 444.805 280.826 444.133 280.102C443.466 279.372 443.133 278.349 443.133 277.031C443.133 275.786 443.5 274.773 444.234 273.992C444.974 273.206 445.891 272.812 446.984 272.812C448.078 272.812 448.924 273.164 449.523 273.867C450.122 274.57 450.422 275.547 450.422 276.797V277.492ZM448.672 276.211C448.667 275.56 448.513 275.055 448.211 274.695C447.909 274.331 447.492 274.148 446.961 274.148C446.44 274.148 445.997 274.339 445.633 274.719C445.273 275.099 445.052 275.596 444.969 276.211H448.672Z" fill="#225F67"/>
<rect x="186.947" y="297.993" width="333.24" height="35.962" rx="11.5" fill="white" stroke="#E9E9E9"/>
</g>
<defs>
<filter id="filter0_d_131_49" x="0" y="0" width="434" height="330" filterUnits="userSpaceOnUse" color-interpolation-filters="sRGB">
<feFlood flood-opacity="0" result="BackgroundImageFix"/>
<feColorMatrix in="SourceAlpha" type="matrix" values="0 0 0 0 0 0 0 0 0 0 0 0 0 0 0 0 0 0 127 0" result="hardAlpha"/>
<feOffset dx="3" dy="5"/>
<feGaussianBlur stdDeviation="15"/>
<feComposite in2="hardAlpha" operator="out"/>
<feColorMatrix type="matrix" values="0 0 0 0 0.082066 0 0 0 0 0.0905948 0 0 0 0 0.120833 0 0 0 0.05 0"/>
<feBlend mode="normal" in2="BackgroundImageFix" result="effect1_dropShadow_131_49"/>
<feBlend mode="normal" in="SourceGraphic" in2="effect1_dropShadow_131_49" result="shape"/>
</filter>
<filter id="filter1_d_131_49" x="139" y="197" width="434" height="187.557" filterUnits="userSpaceOnUse" color-interpolation-filters="sRGB">
<feFlood flood-opacity="0" result="BackgroundImageFix"/>
<feColorMatrix in="SourceAlpha" type="matrix" values="0 0 0 0 0 0 0 0 0 0 0 0 0 0 0 0 0 0 127 0" result="hardAlpha"/>
<feOffset dx="3" dy="5"/>
<feGaussianBlur stdDeviation="15"/>
<feComposite in2="hardAlpha" operator="out"/>
<feColorMatrix type="matrix" values="0 0 0 0 0.082066 0 0 0 0 0.0905948 0 0 0 0 0.120833 0 0 0 0.05 0"/>
<feBlend mode="normal" in2="BackgroundImageFix" result="effect1_dropShadow_131_49"/>
<feBlend mode="normal" in="SourceGraphic" in2="effect1_dropShadow_131_49" result="shape"/>
</filter>
</defs>
</svg>
