<svg width="261" height="256" viewBox="0 0 261 256" fill="none" xmlns="http://www.w3.org/2000/svg">
<rect x="2" width="256" height="256" rx="25" fill="#05040F"/>
<g filter="url(#filter0_d_207_7)">
<path fill-rule="evenodd" clip-rule="evenodd" d="M149.382 75.7578H129.355V110.444L149.382 75.7578ZM110.927 142.363L88.9795 180.377C88.1267 180.608 87.2543 180.818 86.3623 181.007C81.333 182.081 76.0107 182.618 70.3955 182.618C64.6338 182.618 59.1406 182.13 53.916 181.153C48.7402 180.177 44.248 178.712 40.4395 176.759V153.321C44.6875 156.886 49.3018 159.571 54.2822 161.378C59.2627 163.136 64.292 164.015 69.3701 164.015C72.3486 164.015 74.9365 163.746 77.1338 163.209C79.3799 162.672 81.2354 161.939 82.7002 161.012C84.2139 160.035 85.3369 158.912 86.0693 157.643C86.8018 156.324 87.168 154.908 87.168 153.395C87.168 151.344 86.582 149.513 85.4102 147.901C84.2383 146.29 82.627 144.801 80.5762 143.434C78.5742 142.066 76.1816 140.748 73.3984 139.479C70.6152 138.209 67.6123 136.915 64.3896 135.597C56.1865 132.179 50.0586 128.004 46.0059 123.072C42.002 118.141 40 112.184 40 105.201C40 99.7324 41.0986 95.0449 43.2959 91.1387C45.4932 87.1836 48.4717 83.9365 52.2314 81.3975C56.04 78.8584 60.4346 77.0029 65.415 75.8311C70.3955 74.6104 75.6689 74 81.2354 74C86.7041 74 91.5381 74.3418 95.7373 75.0254C99.9854 75.6602 103.892 76.6611 107.456 78.0283V99.9277C105.698 98.707 103.77 97.6328 101.67 96.7051C99.6191 95.7773 97.4951 95.0205 95.2979 94.4346C93.1006 93.7998 90.9033 93.3359 88.7061 93.043C86.5576 92.75 84.5068 92.6035 82.5537 92.6035C79.8682 92.6035 77.4268 92.8721 75.2295 93.4092C73.0322 93.8975 71.1768 94.6055 69.6631 95.5332C68.1494 96.4609 66.9775 97.584 66.1475 98.9023C65.3174 100.172 64.9023 101.612 64.9023 103.224C64.9023 104.981 65.3662 106.568 66.2939 107.984C67.2217 109.352 68.54 110.67 70.249 111.939C71.958 113.16 74.0332 114.381 76.4746 115.602C78.916 116.773 81.6748 117.994 84.751 119.264C88.9502 121.021 92.71 122.901 96.0303 124.903C99.3994 126.856 102.28 129.078 104.673 131.568C107.065 134.059 108.896 136.915 110.166 140.138C110.452 140.852 110.706 141.594 110.927 142.363ZM129.355 140.394L153.013 99.4184V117.652H196.519V75.7578H220.249V180.787H196.519V138.014H153.013V180.787H129.355V140.394Z" fill="#D9D9D9"/>
</g>
<defs>
<filter id="filter0_d_207_7" x="0" y="34" width="260.249" height="188.618" filterUnits="userSpaceOnUse" color-interpolation-filters="sRGB">
<feFlood flood-opacity="0" result="BackgroundImageFix"/>
<feColorMatrix in="SourceAlpha" type="matrix" values="0 0 0 0 0 0 0 0 0 0 0 0 0 0 0 0 0 0 127 0" result="hardAlpha"/>
<feOffset/>
<feGaussianBlur stdDeviation="20"/>
<feComposite in2="hardAlpha" operator="out"/>
<feColorMatrix type="matrix" values="0 0 0 0 1 0 0 0 0 1 0 0 0 0 1 0 0 0 0.1 0"/>
<feBlend mode="normal" in2="BackgroundImageFix" result="effect1_dropShadow_207_7"/>
<feBlend mode="normal" in="SourceGraphic" in2="effect1_dropShadow_207_7" result="shape"/>
</filter>
</defs>
</svg>
